<svg xmlns="http://www.w3.org/2000/svg" xmlns:xlink="http://www.w3.org/1999/xlink" xmlns:lucid="lucid" width="1300" height="680"><g transform="translate(0 0)" lucid:page-tab-id="zMt1U8CEEkL~"><path d="M290 186a6 6 0 0 1 6-6h68a6 6 0 0 1 6 6v68a6 6 0 0 1-6 6h-68a6 6 0 0 1-6-6z" stroke="#3a414a" fill="#ffdda6"/><use xlink:href="#a" transform="matrix(1,0,0,1,295,185) translate(12.996419270833336 42.22547743055556)"/><path d="M370 186a6 6 0 0 1 6-6h68a6 6 0 0 1 6 6v68a6 6 0 0 1-6 6h-68a6 6 0 0 1-6-6z" stroke="#3a414a" fill="#cfe4ff"/><use xlink:href="#b" transform="matrix(1,0,0,1,375,185) translate(20.330946180555557 42.53797743055556)"/><path d="M190 215.62a6 6 0 0 1 6-6h46a5.06 5.06 0 0 0 5.07-5.06 1.94 1.94 0 0 1 3.38-1.3l10.83 12.03a6.67 6.67 0 0 1 0 8.9l-10.83 12.04a1.94 1.94 0 0 1-3.38-1.3 5.06 5.06 0 0 0-5.07-5.07h-46a6 6 0 0 1-6-6z" stroke="#3a414a" fill="#fff"/><use xlink:href="#c" transform="matrix(1,0,0,1,195,204.49367088607593) translate(0.9947916666666856 19.048177083333332)"/><path d="M10.85 288a6 6 0 0 1 6-6H117.8a6 6 0 0 1 6 6v18.38a6 6 0 0 1-6 6H16.84a6 6 0 0 1-6-6z" stroke="#000" stroke-opacity="0" fill="#fff" fill-opacity="0"/><use xlink:href="#d" transform="matrix(1,0,0,1,15.847285067873315,287) translate(0 19.812934027777775)"/><use xlink:href="#e" transform="matrix(1,0,0,1,15.847285067873315,287) translate(66.6775173611111 19.812934027777775)"/><path d="M10.85 457a6 6 0 0 1 6-6H117.8a6 6 0 0 1 6 6v18.38a6 6 0 0 1-6 6H16.84a6 6 0 0 1-6-6z" stroke="#000" stroke-opacity="0" fill="#fff" fill-opacity="0"/><use xlink:href="#d" transform="matrix(1,0,0,1,15.847285067873315,456) translate(0 19.812934027777775)"/><use xlink:href="#f" transform="matrix(1,0,0,1,15.847285067873315,456) translate(66.6775173611111 19.812934027777775)"/><path d="M10.5 281a.5.5 0 0 1 .5-.5h938a.5.5 0 0 1 .5.5.5.5 0 0 1-.5.5H11a.5.5 0 0 1-.5-.5z" fill="none"/><path d="M22.92 280.5h7.95m7.95 0h7.95m7.95 0h7.95m7.95 0h7.95m7.95 0h7.95m7.95 0h7.94m7.95 0h7.96m7.95 0h7.96m7.95 0h7.96m7.95 0h7.96m7.95 0h7.96m7.94 0h7.95m7.95 0h7.95m7.95 0h7.95m7.95 0h7.95m7.95 0h7.95m7.95 0h7.95m7.94 0h7.94m7.95 0h7.94m7.95 0h7.94m7.95 0h7.94m7.95 0h7.94m7.95 0h7.94m7.94 0h7.95m7.95 0h7.95m7.95 0h7.95m7.95 0h7.95m7.95 0h7.95m7.95 0h7.94m7.96 0h7.94m7.95 0h7.95m7.95 0h7.95m7.95 0h7.95m7.95 0h7.95m7.95 0h7.94m7.96 0h7.95m7.96 0h7.95m7.96 0h7.95m7.96 0H635m7.96 0h7.95m7.96 0h7.94m7.95 0h7.95m7.95 0h7.95m7.95 0h7.95m7.95 0h7.95m7.95 0h7.95m7.95 0h7.95m7.94 0h7.95m7.94 0H794m7.94 0h7.95m7.94 0h7.95m7.94 0h7.95m7.94 0h7.95m7.93 0h7.95m7.95 0h7.95m7.95 0h7.95m7.95 0h7.95m7.95 0h7.95m7.94 0h4.06l.07.02.08.03.06.05.05.05.05.06.05.07.02.08.02.07v.16l-.02.07-.03.08-.05.06-.05.05-.06.05-.07.05-.08.03h-.07l-.08.02h-3.98m-7.94 0h-7.95m-7.95 0h-7.95m-7.95 0h-7.95m-7.95 0h-7.95m-7.95 0h-7.95m-7.94 0h-7.96m-7.95 0h-7.96m-7.95 0h-7.96m-7.95 0h-7.96m-7.95 0h-7.96m-7.95 0h-7.96m-7.94 0h-7.95m-7.95 0h-7.95m-7.95 0h-7.95m-7.95 0h-7.95m-7.95 0h-7.95m-7.95 0h-7.95m-7.95 0h-7.94m-7.95 0h-7.94m-7.95 0h-7.94m-7.95 0h-7.94m-7.95 0h-7.94m-7.95 0h-7.94m-7.95 0h-7.93m-7.95 0h-7.95m-7.95 0h-7.95m-7.95 0h-7.95m-7.95 0h-7.95m-7.95 0h-7.94m-7.96 0h-7.94m-7.95 0h-7.95m-7.95 0h-7.95m-7.95 0h-7.95m-7.95 0h-7.95m-7.95 0h-7.94m-7.96 0h-7.95m-7.96 0h-7.95m-7.96 0h-7.95m-7.96 0H325m-7.96 0h-7.95m-7.96 0h-7.94m-7.95 0h-7.95m-7.95 0h-7.95m-7.95 0h-7.95m-7.95 0h-7.95m-7.95 0h-7.95m-7.95 0h-7.94m-7.94 0h-7.95m-7.94 0H166m-7.94 0h-7.95m-7.94 0h-7.95m-7.94 0h-7.95m-7.94 0h-7.94m-7.95 0h-7.95m-7.95 0h-7.95m-7.95 0h-7.95m-7.95 0h-7.95m-7.95 0h-7.95m-7.95 0h-4.05l-.07-.02-.08-.03-.06-.05-.05-.05-.05-.06-.04-.07-.04-.08v-.07l-.02-.08v-.08l.02-.07.03-.08.04-.06.05-.05.06-.05.07-.05.08-.03h.07l.08-.02h3.97" stroke="#3a414a" fill="none"/><path d="M303.3 630a6 6 0 0 1 6-6h100.93a6 6 0 0 1 6 6v18.38a6 6 0 0 1-6 6H309.3a6 6 0 0 1-6-6z" stroke="#000" stroke-opacity="0" fill="#fff" fill-opacity="0"/><use xlink:href="#g" transform="matrix(1,0,0,1,308.2895927601809,629.0000000000001) translate(11.493489583333343 19.812934027777775)"/><path d="M200 396a6 6 0 0 1 6-6h68a6 6 0 0 1 6 6v28a6 6 0 0 1-6 6h-68a6 6 0 0 1-6-6z" stroke="#3a414a" fill="#e3fae3"/><use xlink:href="#h" transform="matrix(1,0,0,1,205,395) translate(27.66547309027778 22.287977430555554)"/><path d="M870 396a6 6 0 0 1 6-6h68a6 6 0 0 1 6 6v28a6 6 0 0 1-6 6h-68a6 6 0 0 1-6-6z" stroke="#3a414a" fill="#e3fae3"/><use xlink:href="#i" transform="matrix(1,0,0,1,875,395) translate(12.996419270833336 20.350477430555554)"/><use xlink:href="#j" transform="matrix(1,0,0,1,875,395) translate(27.66547309027778 48.04144965277777)"/><use xlink:href="#k" transform="matrix(1,0,0,1,875,395) translate(12.996419270833336 75.732421875)"/><path d="M290 396a6 6 0 0 1 6-6h68a6 6 0 0 1 6 6v28a6 6 0 0 1-6 6h-68a6 6 0 0 1-6-6z" stroke="#3a414a" fill="#ffdda6"/><use xlink:href="#l" transform="matrix(1,0,0,1,295,395) translate(12.996419270833336 22.225477430555554)"/><path d="M10 16a6 6 0 0 1 6-6h928a6 6 0 0 1 6 6v38a6 6 0 0 1-6 6H16a6 6 0 0 1-6-6z" stroke="#000" stroke-opacity="0" fill="#dfe3e8"/><use xlink:href="#m" transform="matrix(1,0,0,1,15,15) translate(351.6482204861112 26.00043402777776)"/><use xlink:href="#n" transform="matrix(1,0,0,1,15,15) translate(511.6742621527777 26.00043402777776)"/><path d="M290 306a6 6 0 0 1 6-6h68a6 6 0 0 1 6 6v68a6 6 0 0 1-6 6h-68a6 6 0 0 1-6-6z" stroke="#3a414a" fill="#ffdda6"/><use xlink:href="#a" transform="matrix(1,0,0,1,295,305) translate(12.996419270833336 42.22547743055556)"/><path d="M200 566a6 6 0 0 1 6-6h68a6 6 0 0 1 6 6v28a6 6 0 0 1-6 6h-68a6 6 0 0 1-6-6z" stroke="#3a414a" fill="#e3fae3"/><use xlink:href="#h" transform="matrix(1,0,0,1,205,564.9873419135138) translate(27.66547309027778 22.287977430555554)"/><path d="M370 566a6 6 0 0 1 6-6h68a6 6 0 0 1 6 6v28a6 6 0 0 1-6 6h-68a6 6 0 0 1-6-6z" stroke="#3a414a" fill="#cfe4ff"/><use xlink:href="#o" transform="matrix(1,0,0,1,375,564.9873419135138) translate(12.996419270833336 22.225477430555554)"/><path d="M370 476a6 6 0 0 1 6-6h68a6 6 0 0 1 6 6v68a6 6 0 0 1-6 6h-68a6 6 0 0 1-6-6z" stroke="#3a414a" fill="#cfe4ff"/><use xlink:href="#b" transform="matrix(1,0,0,1,375,474.9873419135138) translate(20.330946180555557 42.22547743055556)"/><path d="M330 261l.63 22.12" stroke="#3a414a" fill="none"/><path d="M330.5 261l-1 .03v-.53h1z" stroke="#3a414a" stroke-width=".05" fill="#3a414a"/><path d="M331.04 297.88L326 283.75l9.28-.26z" stroke="#3a414a" fill="#3a414a"/><path d="M410 261v192.1" stroke="#3a414a" fill="none"/><path d="M410.5 261h-1v-.5h1z" stroke="#3a414a" stroke-width=".05" fill="#3a414a"/><path d="M410 467.87l-4.63-14.27h9.26z" stroke="#3a414a" fill="#3a414a"/><path d="M371 410h142.12" stroke="#3a414a" stroke-linejoin="round" fill="none"/><path d="M371 410.5h-.5v-1h.5z" stroke="#3a414a" stroke-width=".05" fill="#3a414a"/><path d="M527.88 410l-14.26 4.63v-9.26z" stroke="#3a414a" fill="#3a414a"/><path d="M654.7 175.1a6 6 0 0 1 6-6h46a5.06 5.06 0 0 0 5.07-5.05 1.94 1.94 0 0 1 3.4-1.3l10.82 12.03a6.67 6.67 0 0 1 0 8.92l-10.84 12.03a1.94 1.94 0 0 1-3.4-1.3 5.06 5.06 0 0 0-5.05-5.06h-46a6 6 0 0 1-6-6z" stroke="#3a414a" fill="#fff"/><use xlink:href="#c" transform="matrix(1,0,0,1,659.7058823529411,163.98734177215192) translate(0.9947916666666856 19.048177083333332)"/><path d="M660 396a6 6 0 0 1 6-6h68a6 6 0 0 1 6 6v28a6 6 0 0 1-6 6h-68a6 6 0 0 1-6-6z" stroke="#3a414a" fill="#ffdda6"/><use xlink:href="#p" transform="matrix(1,0,0,1,665,395) translate(12.996419270833336 22.287977430555554)"/><path d="M750 396a6 6 0 0 1 6-6h68a6 6 0 0 1 6 6v28a6 6 0 0 1-6 6h-68a6 6 0 0 1-6-6z" stroke="#3a414a" fill="#ffdda6"/><use xlink:href="#q" transform="matrix(1,0,0,1,755,395) translate(13.496419270833336 22.225477430555554)"/><path d="M660 566a6 6 0 0 1 6-6h68a6 6 0 0 1 6 6v28a6 6 0 0 1-6 6h-68a6 6 0 0 1-6-6z" stroke="#3a414a" fill="#cfe4ff"/><use xlink:href="#o" transform="matrix(1,0,0,1,665,565) translate(12.996419270833336 22.287977430555554)"/><path d="M831 410h22.12" stroke="#3a414a" stroke-linejoin="round" fill="none"/><path d="M831 410.5h-.5v-1h.5z" stroke="#3a414a" stroke-width=".05" fill="#3a414a"/><path d="M867.88 410l-14.26 4.63v-9.26z" stroke="#3a414a" fill="#3a414a"/><path d="M831 579.98l1.1-.03 1.43-.15 1.3-.22 1.2-.3 1.1-.35 1.04-.4 1-.48.95-.54.92-.6.9-.7.9-.77.9-.9.9-1.05.94-1.23.96-1.47 1-1.8 1.1-2.3 1.2-3.07 1.4-4.55 2.4-10.23 4.13-18.82 1.56-5 1.35-3.46 1.24-2.63 1.17-2.1 1.12-1.72 1.1-1.47 1.1-1.25 1.1-1.1 1.1-.96 1.12-.86 1.15-.76 1.2-.68 1.25-.6 1.2-.48 2.64-1.05 2.48-1.2 2.4-1.34 2.27-1.5 2.22-1.65 2.14-1.84 2.1-2.05 2.07-2.3 2.02-2.6 2-2.9 1.96-3.33 1.93-3.8 1.88-4.44 1.82-5.18 1.72-6.13 1.53-7.32 1.26-8.8.2-2.64" stroke="#3a414a" stroke-linejoin="round" fill="none"/><path d="M831.03 580.48l-.53.02v-1l.5-.02z" stroke="#3a414a" stroke-width=".05" fill="#3a414a"/><path d="M909.92 432.12l3.94 14.47-9.26-.46z" stroke="#3a414a" fill="#3a414a"/><path d="M831 579.68h22.12" stroke="#3a414a" fill="none"/><path d="M831 580.18h-.5v-1h.5z" stroke="#3a414a" stroke-width=".05" fill="#3a414a"/><path d="M867.88 579.68l-14.26 4.64v-9.27z" stroke="#3a414a" fill="#3a414a"/><path d="M870 566a6 6 0 0 1 6-6h68a6 6 0 0 1 6 6v28a6 6 0 0 1-6 6h-68a6 6 0 0 1-6-6z" stroke="#3a414a" fill="#e3fae3"/><use xlink:href="#i" transform="matrix(1,0,0,1,875,564.9999998615244) translate(12.996419270833336 20.350477430555554)"/><use xlink:href="#j" transform="matrix(1,0,0,1,875,564.9999998615244) translate(27.66547309027778 48.04144965277777)"/><use xlink:href="#k" transform="matrix(1,0,0,1,875,564.9999998615244) translate(12.996419270833336 75.732421875)"/><path d="M750 566a6 6 0 0 1 6-6h68a6 6 0 0 1 6 6v28a6 6 0 0 1-6 6h-68a6 6 0 0 1-6-6z" stroke="#3a414a" fill="#cfe4ff"/><use xlink:href="#r" transform="matrix(1,0,0,1,755,565) translate(13.496419270833336 22.225477430555554)"/><path d="M10.5 450a.5.5 0 0 1 .5-.5h938a.5.5 0 0 1 .5.5.5.5 0 0 1-.5.5H11a.5.5 0 0 1-.5-.5z" fill="none"/><path d="M22.92 449.5h7.95m7.95 0h7.95m7.95 0h7.95m7.95 0h7.95m7.95 0h7.95m7.95 0h7.94m7.95 0h7.96m7.95 0h7.96m7.95 0h7.96m7.95 0h7.96m7.95 0h7.96m7.94 0h7.95m7.95 0h7.95m7.95 0h7.95m7.95 0h7.95m7.95 0h7.95m7.95 0h7.95m7.94 0h7.94m7.95 0h7.94m7.95 0h7.94m7.95 0h7.94m7.95 0h7.94m7.95 0h7.94m7.94 0h7.95m7.95 0h7.95m7.95 0h7.95m7.95 0h7.95m7.95 0h7.95m7.95 0h7.94m7.96 0h7.94m7.95 0h7.95m7.95 0h7.95m7.95 0h7.95m7.95 0h7.95m7.95 0h7.94m7.96 0h7.95m7.96 0h7.95m7.96 0h7.95m7.96 0H635m7.96 0h7.95m7.96 0h7.94m7.95 0h7.95m7.95 0h7.95m7.95 0h7.95m7.95 0h7.95m7.95 0h7.95m7.95 0h7.95m7.94 0h7.95m7.94 0H794m7.94 0h7.95m7.94 0h7.95m7.94 0h7.95m7.94 0h7.95m7.93 0h7.95m7.95 0h7.95m7.95 0h7.95m7.95 0h7.95m7.95 0h7.95m7.94 0h4.06l.07.02.08.03.06.05.05.05.05.06.05.07.02.08.02.07v.16l-.02.07-.03.08-.05.06-.05.05-.06.05-.07.05-.08.03h-.07l-.08.02h-3.98m-7.94 0h-7.95m-7.95 0h-7.95m-7.95 0h-7.95m-7.95 0h-7.95m-7.95 0h-7.95m-7.94 0h-7.96m-7.95 0h-7.96m-7.95 0h-7.96m-7.95 0h-7.96m-7.95 0h-7.96m-7.95 0h-7.96m-7.94 0h-7.95m-7.95 0h-7.95m-7.95 0h-7.95m-7.95 0h-7.95m-7.95 0h-7.95m-7.95 0h-7.95m-7.95 0h-7.94m-7.95 0h-7.94m-7.95 0h-7.94m-7.95 0h-7.94m-7.95 0h-7.94m-7.95 0h-7.94m-7.95 0h-7.93m-7.95 0h-7.95m-7.95 0h-7.95m-7.95 0h-7.95m-7.95 0h-7.95m-7.95 0h-7.94m-7.96 0h-7.94m-7.95 0h-7.95m-7.95 0h-7.95m-7.95 0h-7.95m-7.95 0h-7.95m-7.95 0h-7.94m-7.96 0h-7.95m-7.96 0h-7.95m-7.96 0h-7.95m-7.96 0H325m-7.96 0h-7.95m-7.96 0h-7.94m-7.95 0h-7.95m-7.95 0h-7.95m-7.95 0h-7.95m-7.95 0h-7.95m-7.95 0h-7.95m-7.95 0h-7.94m-7.94 0h-7.95m-7.94 0H166m-7.94 0h-7.95m-7.94 0h-7.95m-7.94 0h-7.95m-7.94 0h-7.94m-7.95 0h-7.95m-7.95 0h-7.95m-7.95 0h-7.95m-7.95 0h-7.95m-7.95 0h-7.95m-7.95 0h-4.05l-.07-.02-.08-.03-.06-.05-.05-.05-.05-.06-.04-.07-.04-.08v-.07l-.02-.08v-.08l.02-.07.03-.08.04-.06.05-.05.06-.05.07-.05.08-.03h.07l.08-.02h3.97" stroke="#3a414a" fill="none"/><path d="M10.5 621a.5.5 0 0 1 .5-.5h938a.5.5 0 0 1 .5.5.5.5 0 0 1-.5.5H11a.5.5 0 0 1-.5-.5z" fill="none"/><path d="M22.92 620.5h7.95m7.95 0h7.95m7.95 0h7.95m7.95 0h7.95m7.95 0h7.95m7.95 0h7.94m7.95 0h7.96m7.95 0h7.96m7.95 0h7.96m7.95 0h7.96m7.95 0h7.96m7.94 0h7.95m7.95 0h7.95m7.95 0h7.95m7.95 0h7.95m7.95 0h7.95m7.95 0h7.95m7.94 0h7.94m7.95 0h7.94m7.95 0h7.94m7.95 0h7.94m7.95 0h7.94m7.95 0h7.94m7.94 0h7.95m7.95 0h7.95m7.95 0h7.95m7.95 0h7.95m7.95 0h7.95m7.95 0h7.94m7.96 0h7.94m7.95 0h7.95m7.95 0h7.95m7.95 0h7.95m7.95 0h7.95m7.95 0h7.94m7.96 0h7.95m7.96 0h7.95m7.96 0h7.95m7.96 0H635m7.96 0h7.95m7.96 0h7.94m7.95 0h7.95m7.95 0h7.95m7.95 0h7.95m7.95 0h7.95m7.95 0h7.95m7.95 0h7.95m7.94 0h7.95m7.94 0H794m7.94 0h7.95m7.94 0h7.95m7.94 0h7.95m7.94 0h7.95m7.93 0h7.95m7.95 0h7.95m7.95 0h7.95m7.95 0h7.95m7.95 0h7.95m7.94 0h4.06l.07.02.08.03.06.05.05.05.05.06.05.07.02.08.02.07v.16l-.02.07-.03.08-.05.06-.05.05-.06.05-.07.05-.08.02-.07.02h-4.06m-7.94 0h-7.95m-7.95 0h-7.95m-7.95 0h-7.95m-7.95 0h-7.95m-7.95 0h-7.95m-7.94 0h-7.96m-7.95 0h-7.96m-7.95 0h-7.96m-7.95 0h-7.96m-7.95 0h-7.96m-7.95 0h-7.96m-7.94 0h-7.95m-7.95 0h-7.95m-7.95 0h-7.95m-7.95 0h-7.95m-7.95 0h-7.95m-7.95 0h-7.95m-7.95 0h-7.94m-7.95 0h-7.94m-7.95 0h-7.94m-7.95 0h-7.94m-7.95 0h-7.94m-7.95 0h-7.94m-7.95 0h-7.93m-7.95 0h-7.95m-7.95 0h-7.95m-7.95 0h-7.95m-7.95 0h-7.95m-7.95 0h-7.94m-7.96 0h-7.94m-7.95 0h-7.95m-7.95 0h-7.95m-7.95 0h-7.95m-7.95 0h-7.95m-7.95 0h-7.94m-7.96 0h-7.95m-7.96 0h-7.95m-7.96 0h-7.95m-7.96 0H325m-7.96 0h-7.95m-7.96 0h-7.94m-7.95 0h-7.95m-7.95 0h-7.95m-7.95 0h-7.95m-7.95 0h-7.95m-7.95 0h-7.95m-7.95 0h-7.94m-7.94 0h-7.95m-7.94 0H166m-7.94 0h-7.95m-7.94 0h-7.95m-7.94 0h-7.95m-7.94 0h-7.94m-7.95 0h-7.95m-7.95 0h-7.95m-7.95 0h-7.95m-7.95 0h-7.95m-7.95 0h-7.95m-7.95 0h-4.05l-.07-.02-.08-.03-.06-.05-.05-.05-.05-.06-.04-.07-.04-.08v-.07l-.02-.08v-.08l.02-.07.03-.08.04-.06.05-.05.06-.05.07-.05.08-.02.07-.02h4.05" stroke="#3a414a" fill="none"/><path d="M690 630a6 6 0 0 1 6-6h100.94a6 6 0 0 1 6 6v18.38a6 6 0 0 1-6 6H696a6 6 0 0 1-6-6z" stroke="#000" stroke-opacity="0" fill="#fff" fill-opacity="0"/><use xlink:href="#g" transform="matrix(1,0,0,1,694.9999999999998,629.0000000000001) translate(11.493489583333343 19.812934027777775)"/><path d="M837.06 630a6 6 0 0 1 6-6H944a6 6 0 0 1 6 6v18.38a6 6 0 0 1-6 6H843.06a6 6 0 0 1-6-6z" stroke="#000" stroke-opacity="0" fill="#fff" fill-opacity="0"/><use xlink:href="#s" transform="matrix(1,0,0,1,842.0588235294117,629.0000000000001) translate(-8.509765624999979 18.500434027777775)"/><path d="M319.06 214.2h21.88v16.24h-21.88z" fill="#fff" fill-opacity="0"/><path d="M336.64 215.93l-.06.26c-1.06.04-1.74.7-2.14 1.22l-7 9.2h-.46v-7.06h-.18l-4.74 7.06h-.46v-9.1c0-.87-.53-1.33-1.42-1.33h-.16l.06-.27h4.6l-.06.26h-.12c-.62 0-1.2 0-1.2 1.12v6.02h.07l3.6-5.3v-.97c0-.5-.3-.88-1.3-.88h-.13l.06-.27h4.56l-.07.26h-.3c-1 0-1.13.58-1.13 1.14v6.3h.1l4.44-5.9c.28-.35.65-.85.65-1.15 0-.27-.2-.4-.87-.4h-.27l.07-.27h3.87M338.13 228.76h-3.1v-.17c.82-.06 1.06-.3 1.06-.92v-5.06c0-.4-.1-.56-.35-.56-.1 0-.3.06-.5.14l-.3.1v-.15l2-1.03.1.04v6.74c0 .48.24.7 1.08.7v.16" fill="#303f49"/><path d="M319.06 331.88h21.88v16.24h-21.88z" fill="#fff" fill-opacity="0"/><path d="M336.64 333.62l-.06.25c-1.06.05-1.74.7-2.14 1.23l-7 9.2h-.46v-7.06h-.18l-4.74 7.06h-.46v-9.1c0-.87-.53-1.33-1.42-1.33h-.16l.06-.25h4.6l-.06.25h-.12c-.62 0-1.2 0-1.2 1.14v6.03h.07l3.6-5.3v-.98c0-.5-.3-.88-1.3-.88h-.13l.06-.25h4.56l-.07.25h-.3c-1 0-1.13.6-1.13 1.15v6.3h.1l4.44-5.9c.28-.35.65-.85.65-1.15 0-.25-.2-.4-.87-.4h-.27l.07-.25h3.87M338.13 346.44h-3.1v-.17c.82-.04 1.06-.28 1.06-.9v-5.07c0-.4-.1-.56-.35-.56-.1 0-.3.06-.5.14l-.3.1v-.15l2-1.02.1.04v6.74c0 .5.24.7 1.08.7v.16" fill="#303f49"/><path d="M402.04 213.2h21.88v16.23h-21.88z" fill="#fff" fill-opacity="0"/><path d="M419.62 214.92l-.06.26c-1.06.04-1.74.7-2.14 1.23l-7 9.2h-.46v-7.05h-.18l-4.74 7.05h-.46v-9.08c0-.88-.53-1.34-1.42-1.34H403l.06-.26h4.6l-.06.26h-.12c-.62 0-1.2 0-1.2 1.13v6.03h.07l3.6-5.3v-.97c0-.5-.3-.88-1.3-.88h-.13l.07-.26h4.54l-.07.26h-.28c-1 0-1.15.6-1.15 1.15v6.3h.1l4.44-5.9c.26-.35.63-.85.63-1.15 0-.26-.2-.4-.87-.4h-.27l.06-.26h3.86M422.02 226.2l-.6 1.55h-4.43v-.14l2-2.12c1.06-1.12 1.47-1.98 1.47-2.94 0-1.03-.6-1.6-1.57-1.6-.8 0-1.2.37-1.66 1.48l-.24-.06c.24-1.32.96-2.25 2.35-2.25 1.28 0 2.1.88 2.1 2 0 .9-.45 1.74-1.45 2.8l-1.87 2h2.65c.47 0 .7-.14 1.08-.77" fill="#303f49"/><path d="M399.06 504.26h21.88v16.24h-21.88z" fill="#fff" fill-opacity="0"/><path d="M416.64 506l-.06.25c-1.06.05-1.74.7-2.14 1.23l-7 9.2h-.46v-7.06h-.18l-4.74 7.06h-.46v-9.1c0-.87-.53-1.33-1.42-1.33h-.16l.06-.25h4.6l-.06.25h-.12c-.62 0-1.2 0-1.2 1.13v6.03h.07l3.6-5.3v-.97c0-.5-.3-.88-1.3-.88h-.13l.06-.25h4.56l-.07.25h-.3c-1 0-1.13.6-1.13 1.15v6.3h.1l4.44-5.9c.28-.35.65-.85.65-1.15 0-.25-.2-.4-.87-.4h-.27l.07-.25h3.87M419.04 517.27l-.6 1.55H414v-.14l2.02-2.13c1.06-1.12 1.47-1.98 1.47-2.93 0-1.03-.62-1.6-1.58-1.6-.8 0-1.2.36-1.66 1.47l-.24-.07c.24-1.32.96-2.24 2.35-2.24 1.28 0 2.1.86 2.1 1.97 0 .9-.45 1.74-1.45 2.8l-1.87 2h2.65c.47 0 .7-.13 1.08-.76" fill="#303f49"/><path d="M233.53 402.9h12.94v14.2h-12.94z" fill="#fff" fill-opacity="0"/><path d="M246.46 404.63l-.06.25h-.06c-1.1 0-1.57.5-2.16 1.2l-3 3.4 1.55 4.23c.2.56.46 1.1 1.26 1.1h.2l-.05.26h-4.5l.07-.26h.18c.6 0 1.07-.06 1.07-.65 0-.13-.02-.26-.06-.42l-1.1-3.1-2.9 3.2c-.13.17-.18.32-.18.46 0 .3.3.5.9.5h.35l-.07.26h-3.97l.06-.26c.85-.1 1.64-.6 2.23-1.23l3.32-3.67-1.36-3.7c-.18-.5-.46-1.32-1.64-1.32h-.14l.06-.25H241l-.06.25h-.3c-.48 0-.84.07-.84.56 0 .13.04.27.1.45l.96 2.85 2.62-2.94c.14-.17.24-.36.24-.53-.02-.26-.2-.4-.72-.4h-.15l.07-.24h3.54" fill="#303f49"/><path d="M233.53 572.88h12.94v14.22h-12.94z" fill="#fff" fill-opacity="0"/><path d="M246.46 574.6l-.06.27h-.06c-1.1 0-1.57.5-2.16 1.18l-3 3.4 1.55 4.25c.2.54.46 1.1 1.26 1.1h.2l-.05.24h-4.5l.07-.25h.18c.6 0 1.07-.08 1.07-.67 0-.13-.02-.25-.06-.4l-1.1-3.1-2.9 3.2c-.13.16-.18.3-.18.45 0 .3.3.5.9.5h.35l-.07.26h-3.97l.06-.25c.85-.12 1.64-.6 2.23-1.24l3.32-3.67-1.36-3.7c-.18-.5-.46-1.33-1.64-1.33h-.14l.06-.25H241l-.06.25h-.3c-.48 0-.84.06-.84.56 0 .13.04.27.1.45l.96 2.86 2.62-2.94c.14-.18.24-.37.24-.55-.02-.25-.2-.38-.72-.38h-.15l.07-.25h3.54" fill="#303f49"/><path d="M321.7 402.9h19.58v16.23H321.7z" fill="#fff" fill-opacity="0"/><path d="M334.5 404.63l-9.03 9.82h3.48c1.5 0 2.9-.18 3.47-2.24h.25l-.73 2.86h-9.28l9.15-9.84h-3.22c-1.53 0-2.95.1-3.56 1.93h-.27l.77-2.52h9M338.48 417.45h-3.12v-.17c.83-.04 1.07-.28 1.07-.9v-5.07c0-.38-.1-.54-.34-.54-.12 0-.3.05-.5.13l-.32.1v-.15l2.02-1.03.1.03v6.74c0 .48.23.68 1.08.68v.17" fill="#303f49"/><path d="M400.2 572.88h19.6v16.24h-19.6z" fill="#fff" fill-opacity="0"/><path d="M413 574.6l-9.02 9.84h3.48c1.5 0 2.9-.18 3.46-2.24h.26l-.74 2.84h-9.27l9.15-9.83h-3.23c-1.54 0-2.96.1-3.57 1.94h-.27l.76-2.52h9M417.9 585.9l-.62 1.54h-4.42v-.14l2-2.13c1.07-1.12 1.48-1.98 1.48-2.94 0-1.02-.6-1.6-1.57-1.6-.8 0-1.2.37-1.66 1.48l-.23-.05c.24-1.32.96-2.24 2.35-2.24 1.28 0 2.1.88 2.1 2 0 .88-.45 1.73-1.45 2.8l-1.87 1.98h2.65c.47 0 .7-.12 1.08-.76" fill="#303f49"/><path d="M10 186a6 6 0 0 1 6-6h138a6 6 0 0 1 6 6v68a6 6 0 0 1-6 6H16a6 6 0 0 1-6-6z" stroke="#3a414a" fill="#fff"/><path d="M76.2 214.2h17.6v14.22H76.2z" fill="#fff"/><path d="M93.8 215.93l-.08.26c-1.05.04-1.74.7-2.14 1.22l-7 9.2h-.45v-7.06h-.18l-4.74 7.06h-.46v-9.1c0-.87-.52-1.33-1.42-1.33h-.16l.07-.27h4.6l-.07.26h-.1c-.63 0-1.22 0-1.22 1.12v6.02h.08l3.6-5.3v-.97c0-.5-.3-.88-1.3-.88h-.13l.05-.27h4.55l-.06.26h-.3c-.98 0-1.12.58-1.12 1.14v6.3h.1l4.43-5.9c.28-.35.64-.85.64-1.15 0-.27-.22-.4-.87-.4h-.27l.06-.27h3.87" fill="#303f49"/><path d="M550 106a6 6 0 0 1 6-6h68a6 6 0 0 1 6 6v148a6 6 0 0 1-6 6h-68a6 6 0 0 1-6-6z" stroke="#3a414a" fill="#fff"/><path d="M581.2 172.9h17.6v14.2h-17.6z" fill="#fff"/><path d="M598.8 174.63l-.08.25c-1.05.05-1.74.7-2.14 1.23l-7 9.2h-.45v-7.05h-.18l-4.74 7.06h-.46v-9.08c0-.87-.52-1.34-1.42-1.34h-.16l.07-.25h4.6l-.07.25h-.1c-.63 0-1.22 0-1.22 1.14v6.02h.08l3.6-5.3v-.98c0-.5-.3-.88-1.3-.88h-.13l.05-.25h4.55l-.06.25h-.3c-.98 0-1.12.6-1.12 1.15v6.3h.1l4.43-5.9c.27-.35.64-.84.64-1.15 0-.25-.22-.4-.87-.4h-.27l.06-.25h3.87" fill="#303f49"/><path d="M690 401.88h18.7v16.24H690z" fill="#fff" fill-opacity="0"/><path d="M700.94 414.04h-4.55v-.25h.24c.9 0 1.15-.35 1.15-1l-.04-.32-.2-1.8h-3.17l-1.35 2.23c-.1.14-.16.3-.16.43 0 .28.26.46.68.46h.46v.24h-3.48v-.25c.56-.07 1.15-.27 1.72-1.2l5.7-9.2h.28l1.24 9.27c.1.78.5 1.12 1.18 1.12h.26v.24m-3.5-3.96l-.4-3.62h-.1l-2.2 3.62h2.7M705.9 416.44h-3.12v-.17c.84-.04 1.08-.28 1.08-.9v-5.07c0-.4-.1-.56-.34-.56-.12 0-.3.06-.5.14l-.32.1v-.15l2.02-1.02.1.04v6.74c0 .5.23.7 1.08.7v.16" fill="#303f49"/><path d="M691.3 571.87H710v16.24h-18.7z" fill="#fff" fill-opacity="0"/><path d="M702.23 584.03h-4.55v-.25h.26c.9 0 1.15-.34 1.15-.98 0-.1-.03-.22-.05-.33l-.2-1.8h-3.17l-1.34 2.23c-.1.13-.16.3-.16.4.02.3.28.48.7.48h.45v.25h-3.48v-.25c.56-.07 1.15-.26 1.73-1.2l5.68-9.2h.3l1.24 9.28c.1.78.5 1.12 1.18 1.12h.25v.25m-3.5-3.96l-.4-3.62h-.1l-2.2 3.62h2.7M708.1 584.88l-.62 1.55h-4.4v-.14l2-2.14c1.06-1.12 1.47-1.98 1.47-2.94 0-1.02-.6-1.6-1.57-1.6-.8 0-1.2.37-1.66 1.48l-.24-.06c.24-1.32.96-2.25 2.35-2.25 1.28 0 2.1.86 2.1 1.98 0 .9-.45 1.74-1.46 2.8l-1.86 2h2.65c.48 0 .7-.13 1.1-.77" fill="#303f49"/><path d="M750 106a6 6 0 0 1 6-6h68a6 6 0 0 1 6 6v68a6 6 0 0 1-6 6h-68a6 6 0 0 1-6-6z" stroke="#3a414a" fill="#ffdda6"/><use xlink:href="#a" transform="matrix(1,0,0,1,755,105) translate(12.996419270833336 42.22547743055556)"/><path d="M779.06 131.88h21.88v16.24h-21.88z" fill="#fff" fill-opacity="0"/><path d="M796.64 133.62l-.06.25c-1.06.05-1.74.7-2.14 1.23l-7 9.2h-.46v-7.06h-.18l-4.74 7.06h-.46v-9.1c0-.86-.53-1.33-1.42-1.33h-.16l.06-.25h4.6l-.06.25h-.12c-.62 0-1.2 0-1.2 1.14v6.03h.07l3.6-5.3v-.98c0-.5-.3-.88-1.3-.88h-.13l.07-.25h4.56l-.07.25h-.3c-.98 0-1.13.6-1.13 1.15v6.3h.1l4.44-5.9c.28-.35.64-.85.64-1.15 0-.26-.2-.4-.86-.4h-.27l.07-.25h3.87M798.13 146.44h-3.1v-.17c.82-.05 1.06-.28 1.06-.9v-5.07c0-.4-.1-.56-.35-.56-.1 0-.3.06-.5.14l-.3.1v-.14l2-1.03.1.04v6.74c0 .5.24.7 1.08.7v.16" fill="#303f49"/><path d="M750 186a6 6 0 0 1 6-6h68a6 6 0 0 1 6 6v68a6 6 0 0 1-6 6h-68a6 6 0 0 1-6-6z" stroke="#3a414a" fill="#cfe4ff"/><use xlink:href="#t" transform="matrix(1,0,0,1,755,185) translate(12.996419270833336 42.22547743055556)"/><path d="M779.06 213.2h21.88v16.23h-21.88z" fill="#fff" fill-opacity="0"/><path d="M796.64 214.92l-.06.26c-1.06.04-1.74.7-2.14 1.23l-7 9.2h-.46v-7.05h-.18l-4.74 7.05h-.46v-9.08c0-.88-.53-1.34-1.42-1.34h-.16l.06-.26h4.6l-.06.26h-.12c-.62 0-1.2 0-1.2 1.13v6.03h.07l3.6-5.3v-.97c0-.5-.3-.88-1.3-.88h-.13l.07-.26h4.56l-.07.26h-.3c-.98 0-1.13.6-1.13 1.15v6.3h.1l4.44-5.9c.28-.35.64-.85.64-1.15 0-.26-.2-.4-.86-.4h-.27l.07-.26h3.87M799.04 226.2l-.6 1.55H794v-.14l2.02-2.12c1.06-1.12 1.47-1.98 1.47-2.94 0-1.03-.62-1.6-1.58-1.6-.8 0-1.2.37-1.66 1.48l-.24-.06c.24-1.32.96-2.25 2.35-2.25 1.28 0 2.1.88 2.1 2 0 .9-.45 1.74-1.45 2.8l-1.87 2h2.64c.47 0 .7-.14 1.08-.77" fill="#303f49"/><path d="M750 306a6 6 0 0 1 6-6h68a6 6 0 0 1 6 6v68a6 6 0 0 1-6 6h-68a6 6 0 0 1-6-6z" stroke="#3a414a" fill="#ffdda6"/><use xlink:href="#a" transform="matrix(1,0,0,1,755,305) translate(12.996419270833336 42.22547743055556)"/><path d="M779.06 332.76h21.88V349h-21.88z" fill="#fff" fill-opacity="0"/><path d="M796.64 334.5l-.06.25c-1.06.05-1.74.7-2.14 1.23l-7 9.2h-.46v-7.06h-.18l-4.74 7.06h-.46v-9.1c0-.86-.53-1.33-1.42-1.33h-.16l.06-.25h4.6l-.06.25h-.12c-.62 0-1.2 0-1.2 1.14v6h.07l3.6-5.3v-.97c0-.5-.3-.88-1.3-.88h-.13l.07-.25h4.56l-.07.25h-.3c-.98 0-1.13.6-1.13 1.15v6.3h.1l4.44-5.9c.28-.35.64-.85.64-1.15 0-.25-.2-.4-.86-.4h-.27l.07-.25h3.87M798.13 347.32h-3.1v-.17c.82-.04 1.06-.28 1.06-.9v-5.07c0-.38-.1-.56-.35-.56-.1 0-.3.06-.5.14l-.3.1v-.14l2-1.03.1.02v6.74c0 .5.24.7 1.08.7v.16" fill="#303f49"/><path d="M750 476a6 6 0 0 1 6-6h68a6 6 0 0 1 6 6v68a6 6 0 0 1-6 6h-68a6 6 0 0 1-6-6z" stroke="#3a414a" fill="#cfe4ff"/><use xlink:href="#t" transform="matrix(1,0,0,1,755,474.9873419135138) translate(12.996419270833336 42.22547743055556)"/><path d="M779.06 504.26h21.88v16.24h-21.88z" fill="#fff" fill-opacity="0"/><path d="M796.64 506l-.06.25c-1.06.05-1.74.7-2.14 1.23l-7 9.2h-.46v-7.06h-.18l-4.74 7.06h-.46v-9.1c0-.87-.53-1.33-1.42-1.33h-.16l.06-.25h4.6l-.06.25h-.12c-.62 0-1.2 0-1.2 1.13v6.03h.07l3.6-5.3v-.97c0-.5-.3-.88-1.3-.88h-.13l.07-.25h4.56l-.07.25h-.3c-.98 0-1.13.6-1.13 1.15v6.3h.1l4.44-5.9c.28-.35.64-.85.64-1.15 0-.25-.2-.4-.86-.4h-.27l.07-.25h3.87M799.04 517.27l-.6 1.55H794v-.14l2.02-2.13c1.06-1.12 1.47-1.98 1.47-2.93 0-1.03-.62-1.6-1.58-1.6-.8 0-1.2.36-1.66 1.47l-.24-.07c.24-1.32.96-2.24 2.35-2.24 1.28 0 2.1.86 2.1 1.97 0 .9-.45 1.74-1.45 2.8l-1.87 2h2.64c.47 0 .7-.13 1.08-.76" fill="#303f49"/><path d="M782.1 401.88h15.8v16.24h-15.8z" fill="#fff" fill-opacity="0"/><path d="M793.2 403.62l-.07.25c-.87.07-1.48.5-1.98 1.1l-3.33 4.1-.95 3.73c-.03.14-.04.24-.04.4 0 .35.28.6 1.2.6h.33l-.06.24h-5.24l.06-.25h.27c1.22 0 1.54-.46 1.67-1l.97-3.93-1.42-3.8c-.27-.7-.73-1.2-1.96-1.2l.06-.25h4.78l-.07.25h-.3c-.8 0-.93.24-.93.64 0 .15.08.33.12.44l1.2 3.3h.06l2.78-3.38c.2-.24.25-.37.25-.54 0-.3-.32-.45-1.25-.45l.06-.25h3.8M795.1 416.44h-3.12v-.17c.83-.04 1.07-.28 1.07-.9v-5.07c0-.4-.1-.56-.34-.56-.1 0-.3.06-.5.14l-.3.1v-.15l2.02-1.02.1.04v6.74c0 .5.23.7 1.07.7v.16" fill="#303f49"/><path d="M782.1 572.88h15.8v16.24h-15.8z" fill="#fff" fill-opacity="0"/><path d="M793.2 574.6l-.07.27c-.87.06-1.48.5-1.98 1.1l-3.33 4.1-.95 3.73c-.03.14-.04.24-.04.4 0 .35.28.6 1.2.6h.33l-.06.24h-5.24l.06-.25h.27c1.22 0 1.54-.46 1.67-1l.97-3.93-1.42-3.8c-.27-.7-.73-1.2-1.96-1.2l.06-.25h4.78l-.07.25h-.3c-.8 0-.93.24-.93.64 0 .15.08.33.12.44l1.2 3.3h.06l2.78-3.38c.2-.24.25-.37.25-.54 0-.3-.32-.45-1.25-.45l.06-.25h3.8M796 585.9l-.6 1.54h-4.43v-.14l2-2.13c1.07-1.12 1.48-1.98 1.48-2.94 0-1.02-.6-1.6-1.57-1.6-.8 0-1.2.37-1.66 1.48l-.24-.05c.24-1.32.96-2.24 2.35-2.24 1.28 0 2.1.88 2.1 2 0 .88-.45 1.73-1.46 2.8l-1.86 1.98h2.65c.48 0 .72-.12 1.1-.76" fill="#303f49"/><path d="M885.18 401.88h49.64v16.24h-49.64z" fill="#fff" fill-opacity="0"/><path d="M896.28 403.62l-.07.25c-.87.07-1.47.5-1.97 1.1l-3.34 4.1-.95 3.73c-.03.14-.05.24-.05.4 0 .35.3.6 1.22.6h.32l-.07.24h-5.24l.07-.25h.27c1.23 0 1.55-.46 1.68-1l.97-3.93-1.42-3.8c-.27-.7-.73-1.2-1.96-1.2l.06-.25h4.78l-.07.25h-.3c-.8 0-.92.24-.92.64 0 .15.08.33.1.44l1.2 3.3h.07l2.78-3.38c.2-.24.26-.37.26-.54 0-.3-.35-.45-1.27-.45l.06-.25h3.78M898.17 416.44h-3.12v-.17c.84-.04 1.08-.28 1.08-.9v-5.07c0-.4-.1-.56-.34-.56-.13 0-.32.06-.52.14l-.3.1v-.15l2-1.02.12.04v6.74c0 .5.22.7 1.07.7v.16M914.67 410.53h-4.16v4.17h-1.05v-4.17h-4.17v-1.05h4.17v-4.17h1.05v4.18h4.17v1.05M930.1 403.62l-.05.25c-.88.07-1.48.5-1.98 1.1l-3.34 4.1-.94 3.73c-.04.14-.06.24-.06.4 0 .35.3.6 1.22.6h.32l-.07.24h-5.23l.07-.25h.27c1.24 0 1.56-.46 1.7-1l.96-3.93-1.42-3.8c-.27-.7-.74-1.2-1.96-1.2l.06-.25h4.77l-.05.25h-.3c-.8 0-.93.24-.93.64 0 .15.08.33.1.44l1.2 3.3h.07l2.77-3.38c.2-.24.26-.37.26-.54 0-.3-.34-.45-1.26-.45l.06-.25h3.78M932.9 414.9l-.6 1.54h-4.4v-.14l2-2.13c1.06-1.12 1.47-1.98 1.47-2.94 0-1.02-.62-1.6-1.58-1.6-.82 0-1.2.37-1.66 1.48l-.24-.05c.24-1.32.96-2.24 2.35-2.24 1.27 0 2.1.88 2.1 2 0 .9-.46 1.73-1.46 2.8l-1.87 1.98h2.64c.47 0 .7-.12 1.08-.75" fill="#303f49"/><path d="M885.18 572.88h49.64v16.24h-49.64z" fill="#fff" fill-opacity="0"/><path d="M896.28 574.6l-.07.27c-.87.06-1.47.5-1.97 1.1l-3.34 4.1-.95 3.73c-.03.14-.05.24-.05.4 0 .35.3.6 1.22.6h.32l-.07.24h-5.24l.07-.25h.27c1.23 0 1.55-.46 1.68-1l.97-3.93-1.42-3.8c-.27-.7-.73-1.2-1.96-1.2l.06-.25h4.78l-.07.25h-.3c-.8 0-.92.24-.92.64 0 .15.08.33.1.44l1.2 3.3h.07l2.78-3.38c.2-.24.26-.37.26-.54 0-.3-.35-.45-1.27-.45l.06-.25h3.78M898.17 587.44h-3.12v-.17c.84-.05 1.08-.28 1.08-.9v-5.07c0-.4-.1-.56-.34-.56-.13 0-.32.06-.52.14l-.3.1v-.15l2-1.02.12.04v6.74c0 .5.22.7 1.07.7v.16M914.67 581.53h-4.16v4.17h-1.05v-4.17h-4.17v-1.05h4.17v-4.17h1.05v4.18h4.17v1.05M930.1 574.6l-.05.27c-.88.06-1.48.5-1.98 1.1l-3.34 4.1-.94 3.73c-.04.14-.06.24-.06.4 0 .35.3.6 1.22.6h.32l-.07.24h-5.23l.07-.25h.27c1.24 0 1.56-.46 1.7-1l.96-3.93-1.42-3.8c-.27-.7-.74-1.2-1.96-1.2l.06-.25h4.77l-.05.25h-.3c-.8 0-.93.24-.93.64 0 .15.08.33.1.44l1.2 3.3h.07l2.77-3.38c.2-.24.26-.37.26-.54 0-.3-.34-.45-1.26-.45l.06-.25h3.78M932.9 585.9l-.6 1.54h-4.4v-.14l2-2.13c1.06-1.12 1.47-1.98 1.47-2.94 0-1.02-.62-1.6-1.58-1.6-.82 0-1.2.37-1.66 1.48l-.24-.05c.24-1.32.96-2.24 2.35-2.24 1.27 0 2.1.88 2.1 2 0 .88-.46 1.73-1.46 2.8l-1.87 1.98h2.64c.47 0 .7-.12 1.08-.76" fill="#303f49"/><path d="M749.13 140.33l-.23.2-.65.64-.72.75-.78.9-.86 1.08-.98 1.33-1.1 1.63-1.24 2.04-1.44 2.6-1.68 3.35-2 4.45-2.4 6.02-2.95 8.37-3.64 11.93-4.47 17.22-5.15 23.74-4.5 25.78-2.1 15.68-.24 2.4-.36 6.04.07 5.67.45 5.34.8 5.04 1.1 4.76 1.38 4.53 1.67 4.3 1.96 4.13 2.25 3.97 2.55 3.83 2.88 3.72 3.24 3.6 3.66 3.55 2.3 1.93" stroke="#3a414a" stroke-linejoin="round" fill="none"/><path d="M749.5 140.67l-.05.05-.67-.75.72-.64z" stroke="#3a414a" stroke-width=".05" fill="#3a414a"/><path d="M748.16 339.1l-14.42-4.14 5.18-7.68z" stroke="#3a414a" fill="#3a414a"/><path d="M749.3 220.46l-4.08 8.7-4.02 9.63-3.77 10.2-3.48 10.8-3.16 11.45-2.84 12.18-2.43 12.94-2 13.77-1.5 14.63-.94 15.54-.3 16.43.4 17.27 1.17 18 2 18.5 2.8 18.72 3.57 18.44 4.17 17.63 4.6 16.24 4.27 13.1" stroke="#3a414a" stroke-linejoin="round" fill="none"/><path d="M749.5 220.57l-.67-.3.67-1.45z" stroke="#3a414a" stroke-width=".05" fill="#3a414a"/><path d="M748.93 508.47l-9.33-11.74 8.7-3.24z" stroke="#3a414a" fill="#3a414a"/><path d="M570 410c0 11.05-8.95 20-20 20s-20-8.95-20-20 8.95-20 20-20 20 8.95 20 20zM570 580c0 11.03-8.95 20-20 20s-20-8.97-20-20c0-11.06 8.95-20 20-20s20 8.94 20 20z" stroke="#3a414a" fill="#fff"/><path d="M451 580h62.12" stroke="#3a414a" stroke-linejoin="round" fill="none"/><path d="M451 580.5h-.5v-1h.5z" stroke="#3a414a" stroke-width=".05" fill="#3a414a"/><path d="M527.88 580l-14.26 4.62v-9.27z" stroke="#3a414a" fill="#3a414a"/><path d="M571 410h72.12" stroke="#3a414a" stroke-linejoin="round" fill="none"/><path d="M571 410.5h-.56l.06-.48-.02-.52h.53z" stroke="#3a414a" stroke-width=".05" fill="#3a414a"/><path d="M657.88 410l-14.26 4.63v-9.26z" stroke="#3a414a" fill="#3a414a"/><path d="M571 580h72.12" stroke="#3a414a" stroke-linejoin="round" fill="none"/><path d="M571 580.5h-.56l.06-.5-.02-.5h.53z" stroke="#3a414a" stroke-width=".05" fill="#3a414a"/><path d="M657.88 580l-14.26 4.62v-9.27z" stroke="#3a414a" fill="#3a414a"/><path d="M831 410.02l3.2.12 3.4.4 3.23.64 3.07.87 2.97 1.1 2.92 1.33 2.88 1.6 2.9 1.95 3 2.34 3.08 2.85 3.27 3.52 3.54 4.48 3.96 5.9 4.73 8.44 6.93 15.08 5.3 13.23 2.12 5.84 1.68 5.67 1.42 6.06 1.4 8.2 4.05 28.04 2.07 8.84 2.26 7.6" stroke="#3a414a" stroke-linejoin="round" fill="none"/><path d="M831.03 409.52l-.04 1-.5-.02v-1z" stroke="#3a414a" stroke-width=".05" fill="#3a414a"/><path d="M909.45 557.98l-9.24-11.82 8.73-3.17z" stroke="#3a414a" fill="#3a414a"/><path d="M26.38 170h117.24" stroke="#3a414a" fill="none"/><path d="M11.62 170l14.26-4.63v9.26zM158.38 170l-14.26 4.63v-9.26z" stroke="#3a414a" fill="#3a414a"/><path d="M51.2 150h72.6v18.63H51.2z" fill="#fff" fill-opacity="0"/><path d="M59.88 160.9h-1.9v3.06h-1.42v-3.06h-5.13v-1.18l5.75-8.15h.8v8.16h1.9v1.17m-3.32-1.18v-6.28l-4.4 6.28h4.4M75.38 163.55l-.84.86-4.24-4.2-4.23 4.22-.84-.85 4.2-4.23-4.2-4.23.86-.84 4.2 4.22 4.23-4.22.85.83-4.22 4.24M89.9 151.72l-2.72 10.96c-.02.05-.04.16-.04.22 0 .1.1.16.28.16.36 0 .87-.64 1.13-1.03l.2.22c-.55.83-1.52 1.93-2.38 1.93-.6 0-.73-.42-.73-.75 0-.37.03-.63.18-1.18h-.1c-1.35 1.7-2.45 1.93-3.12 1.93-1.34 0-1.62-1.36-1.62-2.33 0-1.9 1.9-5.97 4.7-5.97 1.06 0 1.48.47 1.5.9h.03l.98-3.82c.02-.07.04-.14.04-.22 0-.23-.13-.36-.6-.36-.17 0-.37.03-.5.05l-.07-.27m-.15 5.57c0-.86-.27-1.3-1.02-1.3-1.82 0-3.3 3.66-3.3 5.42 0 .9.5 1.2 1.02 1.2 1.3 0 2.5-1.7 3-3.4.2-.64.3-1.35.3-1.92M98.64 165.32l.17.14c-.4.7-1.08 1.35-1.7 1.35-.27 0-.5-.12-.5-.63 0-.1.02-.22.08-.47l.73-2.87c.06-.18.08-.3.08-.52 0-.25-.07-.48-.3-.48-.7 0-2.13 2.35-2.32 3.14l-.44 1.75h-1.03l1-3.87c.02-.1.05-.32.05-.52 0-.25-.06-.48-.3-.48-.67 0-2.1 2.35-2.3 3.14l-.45 1.75h-1l1.22-4.84c0-.23-.08-.4-.43-.4-.1 0-.26 0-.36.03l-.03-.2 2.05-.3-.57 2.18h.08c1.2-1.85 2-2.2 2.48-2.2s.72.5.72 1.06c0 .22-.04.42-.12.68l-.13.46h.07c.38-.67 1.05-1.47 1.7-1.9.27-.2.52-.3.78-.3.46 0 .7.35.7.93 0 .25-.02.5-.1.8l-.78 3c-.02.03-.03.1-.03.15 0 .1.08.16.2.16.22 0 .55-.2.8-.68M104.87 163c0 1.8-1.43 3.85-3.4 3.85-1.32 0-1.76-1.17-1.76-2.1 0-1.67 1.35-3.76 3.27-3.76 1.03 0 1.9.6 1.9 2m-1.05-.4c0-.5-.18-1.22-.87-1.22-1.06 0-2.2 1.93-2.2 3.7 0 .42.05 1.38.78 1.38 1.37 0 2.3-2.9 2.3-3.87M111.96 158.05l-1.93 7.75c-.02.04-.03.1-.03.15 0 .08.07.12.2.12.25 0 .62-.45.8-.72l.14.15c-.4.58-1.07 1.36-1.68 1.36-.42 0-.52-.3-.52-.53 0-.26.03-.44.13-.83H109c-.95 1.2-1.73 1.36-2.2 1.36-.96 0-1.15-.96-1.15-1.64 0-1.34 1.33-4.23 3.33-4.23.74 0 1.03.33 1.05.64h.02l.7-2.7.02-.16c0-.17-.1-.26-.43-.26-.12 0-.26.02-.35.04l-.06-.2m-.1 3.94c0-.6-.2-.92-.73-.92-1.27 0-2.32 2.6-2.32 3.84 0 .63.36.85.72.85.9 0 1.76-1.22 2.13-2.4.14-.46.2-.97.2-1.37M116.74 165.25l.18.17c-.9 1.12-1.78 1.43-2.6 1.43-1.26 0-1.76-1.1-1.76-2.02 0-.3 0-.48.08-.78.32-1.44 1.74-3.06 3.4-3.06.53 0 1.3.17 1.3.98 0 1.64-2.15 2.28-3.7 2.36v.36c0 .83.68 1.38 1.47 1.38.55 0 1.18-.23 1.64-.83m-3.1-1.28h.12c1.35 0 2.57-.9 2.57-2.03 0-.32-.25-.56-.57-.56-.96 0-1.74 1.5-2.12 2.6M121.4 158.05l-1.9 7.66s-.02.06-.02.15c0 .1.05.17.16.17.3 0 .68-.5.8-.7l.2.14c-.43.52-1 1.38-1.74 1.38-.4 0-.5-.34-.5-.67 0-.15.03-.33.07-.46l1.66-6.6c.04-.17.04-.27.04-.3 0-.16-.1-.3-.4-.3-.1 0-.25.03-.35.04l-.04-.2" fill="#303f49"/><path d="M570 70h43.53v18.64H570z" fill="#fff" fill-opacity="0"/><path d="M579.65 71.72l-2.72 10.95-.04.22c0 .1.08.16.26.16.37 0 .88-.64 1.14-1.03l.2.22c-.55.83-1.52 1.93-2.38 1.93-.6 0-.73-.42-.73-.75 0-.37.02-.63.17-1.18h-.1c-1.35 1.7-2.45 1.93-3.13 1.93-1.33 0-1.6-1.36-1.6-2.33 0-1.9 1.88-5.97 4.7-5.97 1.05 0 1.47.47 1.5.9h.02l.97-3.82c.02-.07.04-.14.04-.2 0-.25-.13-.38-.6-.38-.17 0-.37.04-.5.05l-.07-.27m-.15 5.57c0-.86-.27-1.3-1.02-1.3-1.82 0-3.3 3.66-3.3 5.42 0 .9.5 1.2 1.02 1.2 1.28 0 2.5-1.7 3-3.4.2-.64.3-1.35.3-1.92M588.4 85.32l.15.14c-.4.7-1.08 1.35-1.7 1.35-.28 0-.5-.12-.5-.63 0-.1.02-.22.08-.48l.73-2.87c.05-.18.07-.3.07-.52 0-.24-.07-.48-.3-.48-.7 0-2.13 2.35-2.32 3.14l-.44 1.75h-1.02l1-3.87c.02-.1.06-.32.06-.52 0-.24-.06-.48-.3-.48-.67 0-2.1 2.35-2.3 3.14l-.45 1.75h-1l1.22-4.84c0-.23-.08-.4-.43-.4-.1 0-.25 0-.35.03l-.04-.2 2.04-.3-.57 2.18h.08c1.22-1.85 2-2.2 2.5-2.2.47 0 .7.5.7 1.06 0 .22-.03.42-.1.68l-.14.46h.06c.38-.67 1.05-1.47 1.7-1.9.27-.2.52-.3.78-.3.46 0 .7.35.7.93 0 .25-.02.5-.1.8l-.8 3v.15c0 .1.07.16.18.16.22 0 .56-.2.8-.68M594.62 83c0 1.8-1.43 3.85-3.4 3.85-1.32 0-1.76-1.17-1.76-2.1 0-1.67 1.34-3.76 3.25-3.76 1.05 0 1.92.6 1.92 2m-1.05-.4c0-.5-.18-1.22-.87-1.22-1.06 0-2.2 1.93-2.2 3.7 0 .42.05 1.38.78 1.38 1.37 0 2.3-2.9 2.3-3.87M601.7 78.05l-1.92 7.75c-.02.04-.03.12-.03.15 0 .08.07.12.2.12.25 0 .62-.45.8-.72l.14.15c-.4.58-1.08 1.36-1.7 1.36-.4 0-.5-.3-.5-.53 0-.26 0-.44.12-.83h-.07c-.96 1.2-1.73 1.36-2.2 1.36-.96 0-1.15-.96-1.15-1.64 0-1.34 1.33-4.23 3.33-4.23.74 0 1.03.33 1.05.64h.02l.7-2.7v-.16c0-.17-.08-.26-.4-.26-.13 0-.27.03-.36.04l-.05-.2m-.12 3.94c0-.6-.2-.92-.72-.92-1.28 0-2.33 2.6-2.33 3.84 0 .63.36.85.72.85.9 0 1.76-1.22 2.13-2.4.14-.46.2-.97.2-1.37M606.5 85.25l.17.17c-.9 1.12-1.8 1.43-2.6 1.43-1.26 0-1.76-1.1-1.76-2.02 0-.3.02-.48.08-.78.33-1.44 1.75-3.06 3.4-3.06.54 0 1.32.17 1.32.98 0 1.64-2.17 2.28-3.7 2.35v.37c0 .83.67 1.38 1.46 1.38.54 0 1.16-.23 1.63-.83m-3.1-1.28h.1c1.36 0 2.58-.9 2.58-2.03 0-.33-.25-.56-.58-.56-.95 0-1.73 1.5-2.1 2.6M611.16 78.05l-1.92 7.66v.15c0 .1.04.17.14.17.3 0 .7-.5.8-.7l.22.14c-.44.52-1 1.38-1.75 1.38-.4 0-.5-.34-.5-.67 0-.15.03-.33.07-.46l1.66-6.6c.04-.17.04-.27.04-.3 0-.16-.1-.3-.4-.3-.1 0-.25.03-.36.05l-.03-.2" fill="#303f49"/><path d="M566.38 89.32h47.24" stroke="#3a414a" fill="none"/><path d="M551.62 89.32l14.26-4.64v9.27zM628.38 89.32l-14.26 4.63v-9.27z" stroke="#3a414a" fill="#3a414a"/><path d="M540 243.62V116.38" stroke="#3a414a" fill="none"/><path d="M540 258.38l-4.63-14.26h9.26zM540 101.62l4.63 14.26h-9.26z" stroke="#3a414a" fill="#3a414a"/><path d="M520 216.3v-72.6h18.63v72.6z" fill="#fff" fill-opacity="0"/><path d="M530.9 207.62v1.9h3.06v1.42h-3.06v5.13h-1.17l-8.16-5.75v-.8h8.16v-1.9h1.17m-1.17 3.32h-6.3l6.3 4.4v-4.4M533.55 192.12l.87.85-4.22 4.23 4.22 4.23-.85.84-4.23-4.2-4.23 4.2-.83-.86 4.2-4.2-4.2-4.23.82-.85 4.24 4.22M521.72 177.6l10.95 2.72.22.04c.1 0 .16-.1.16-.27 0-.38-.64-.9-1.03-1.15l.22-.2c.83.55 1.93 1.52 1.93 2.38 0 .6-.42.73-.75.73-.37 0-.63-.03-1.18-.18v.1c1.7 1.35 1.93 2.45 1.93 3.12 0 1.34-1.36 1.62-2.33 1.62-1.9 0-5.97-1.9-5.97-4.7 0-1.06.47-1.48.9-1.5v-.03l-3.82-.98c-.07-.02-.14-.04-.22-.04-.23 0-.36.13-.36.6 0 .17.03.37.05.5l-.27.07m5.57.15c-.86 0-1.3.27-1.3 1.02 0 1.82 3.66 3.3 5.42 3.3.9 0 1.2-.5 1.2-1.02 0-1.3-1.7-2.5-3.4-3-.64-.2-1.35-.3-1.92-.3M535.32 168.86l.14-.17c.7.4 1.35 1.08 1.35 1.7 0 .28-.12.5-.63.5-.1 0-.22-.02-.47-.08l-2.87-.73c-.18-.06-.3-.1-.52-.1-.24 0-.48.1-.48.33 0 .7 2.35 2.12 3.14 2.3l1.75.45v1.03l-3.87-1c-.1-.02-.32-.05-.52-.05-.24 0-.48.06-.48.3 0 .67 2.35 2.1 3.14 2.3l1.75.45v1l-4.84-1.22c-.23 0-.4.08-.4.43 0 .1 0 .26.03.36l-.2.03-.3-2.05 2.18.57v-.08c-1.85-1.2-2.2-2-2.2-2.48s.5-.7 1.06-.7c.22 0 .42.02.68.1l.46.13v-.07c-.67-.38-1.47-1.05-1.9-1.7-.2-.27-.3-.52-.3-.78 0-.46.35-.7.93-.7.25 0 .5.02.8.1l3 .78c.03.02.1.03.15.03.1 0 .16-.08.16-.2 0-.2-.2-.55-.68-.8M533 162.63c1.8 0 3.85 1.43 3.85 3.4 0 1.32-1.17 1.76-2.1 1.76-1.67 0-3.76-1.35-3.76-3.26 0-1.04.6-1.9 2-1.9m-.4 1.04c-.5 0-1.22.18-1.22.87 0 1.06 1.93 2.2 3.7 2.2.42 0 1.38-.05 1.38-.78 0-1.37-2.9-2.3-3.87-2.3M528.05 155.54l7.75 1.93c.04.02.12.03.15.03.08 0 .12-.07.12-.2 0-.26-.45-.62-.72-.8l.15-.14c.58.4 1.36 1.07 1.36 1.68 0 .42-.3.52-.53.52-.26 0-.44-.03-.83-.13v.07c1.2.95 1.36 1.73 1.36 2.2 0 .96-.96 1.15-1.64 1.15-1.34 0-4.23-1.33-4.23-3.33 0-.74.33-1.03.64-1.05v-.02l-2.7-.7-.16-.02c-.17 0-.26.1-.26.43 0 .12.03.26.04.35l-.2.06m3.94.1c-.6 0-.92.2-.92.73 0 1.27 2.6 2.32 3.84 2.32.63 0 .85-.36.85-.72 0-.9-1.22-1.76-2.4-2.13-.46-.14-.97-.2-1.37-.2M535.25 150.76l.17-.18c1.12.9 1.43 1.8 1.43 2.6 0 1.26-1.1 1.76-2.02 1.76-.3 0-.48 0-.78-.07-1.44-.33-3.06-1.75-3.06-3.4 0-.54.17-1.32.98-1.32 1.64 0 2.28 2.16 2.36 3.7h.36c.83 0 1.38-.67 1.38-1.46 0-.55-.23-1.17-.83-1.64m-1.28 3.1v-.12c0-1.35-.9-2.57-2.03-2.57-.33 0-.56.25-.56.57 0 .96 1.5 1.74 2.6 2.12M528.05 146.1l7.66 1.9s.06.02.15.02c.1 0 .17-.05.17-.16 0-.3-.5-.68-.7-.8l.14-.2c.52.43 1.38 1 1.38 1.74 0 .4-.34.5-.67.5-.15 0-.33-.03-.46-.07l-6.6-1.66c-.17-.04-.27-.04-.3-.04-.16 0-.3.1-.3.4 0 .1.03.25.05.35l-.2.04" fill="#303f49"/><path d="M460 243.62v-47.24" stroke="#3a414a" fill="none"/><path d="M460 258.38l-4.63-14.26h9.26zM460 181.62l4.63 14.26h-9.26z" stroke="#3a414a" fill="#3a414a"/><path d="M460.42 243.07v-43.53h18.64v43.53z" fill="#fff" fill-opacity="0"/><path d="M462.14 233.42l10.96 2.73.22.03c.1 0 .16-.1.16-.27 0-.36-.64-.87-1.02-1.13l.22-.2c.82.55 1.92 1.52 1.92 2.38 0 .6-.42.73-.75.73-.37 0-.62-.03-1.17-.18v.1c1.7 1.35 1.92 2.45 1.92 3.13 0 1.33-1.36 1.6-2.33 1.6-1.88 0-5.97-1.88-5.97-4.7 0-1.04.48-1.47.92-1.48v-.04l-3.83-.96c-.1-.02-.16-.04-.23-.04-.24 0-.37.13-.37.6 0 .17.04.37.06.5l-.28.07m5.57.15c-.86 0-1.3.28-1.3 1.03 0 1.8 3.66 3.3 5.42 3.3.9 0 1.2-.52 1.2-1.03 0-1.28-1.7-2.5-3.4-3-.64-.2-1.35-.3-1.92-.3M475.74 224.68l.14-.16c.7.4 1.35 1.08 1.35 1.7 0 .28-.13.5-.63.5-.1 0-.22-.02-.48-.08l-2.86-.73c-.2-.04-.3-.06-.52-.06-.26 0-.5.07-.5.3 0 .7 2.35 2.13 3.14 2.33l1.75.44v1.03l-3.87-1c-.12-.02-.33-.06-.52-.06-.26 0-.5.06-.5.3 0 .67 2.35 2.1 3.14 2.3l1.75.46v1l-4.85-1.23c-.23 0-.4.08-.4.43l.03.35-.17.03-.3-2.03 2.18.57v-.07c-1.85-1.22-2.18-2-2.18-2.5 0-.47.48-.7 1.05-.7.22 0 .4.04.67.1l.47.14v-.05c-.67-.38-1.47-1.05-1.9-1.7-.2-.27-.28-.52-.28-.78 0-.46.33-.7.92-.7.23 0 .47.02.8.1l2.98.8h.15c.1 0 .16-.07.16-.18 0-.23-.2-.57-.7-.82M473.4 218.45c1.8 0 3.87 1.43 3.87 3.4 0 1.32-1.16 1.76-2.1 1.76-1.67 0-3.75-1.33-3.75-3.24 0-1.04.6-1.9 2-1.9m-.4 1.04c-.5 0-1.22.18-1.22.87 0 1.06 1.93 2.2 3.7 2.2.42 0 1.38-.05 1.38-.77 0-1.38-2.9-2.3-3.87-2.3M468.48 211.36l7.74 1.93.16.02c.07 0 .1-.06.1-.2 0-.25-.44-.62-.7-.8l.14-.14c.6.4 1.36 1.08 1.36 1.68 0 .42-.3.52-.53.52-.26 0-.44-.02-.83-.13v.07c1.2.96 1.36 1.73 1.36 2.2 0 .96-.95 1.15-1.64 1.15-1.34 0-4.22-1.33-4.22-3.33 0-.73.33-1.03.64-1.05v-.03l-2.7-.7h-.16c-.17 0-.26.08-.26.4 0 .13.03.27.04.36l-.2.05m3.94.1c-.6 0-.92.2-.92.73 0 1.3 2.6 2.35 3.84 2.35.63 0 .85-.37.85-.73 0-.9-1.22-1.76-2.42-2.12-.45-.15-.95-.2-1.36-.2M475.68 206.58l.17-.18c1.1.9 1.42 1.8 1.42 2.6 0 1.26-1.1 1.77-2.02 1.77-.3 0-.48-.02-.78-.08-1.43-.34-3.05-1.76-3.05-3.4 0-.55.18-1.33.98-1.33 1.65 0 2.28 2.17 2.36 3.7h.36c.83 0 1.4-.67 1.4-1.46 0-.53-.25-1.15-.84-1.62m-1.28 3.1v-.12c0-1.35-.9-2.56-2.04-2.56-.32 0-.56.24-.56.57 0 .95 1.5 1.73 2.6 2.1M468.48 201.9l7.65 1.93h.14c.1 0 .17-.04.17-.14 0-.3-.5-.7-.7-.82l.14-.2c.52.44 1.38 1 1.38 1.74 0 .4-.34.5-.66.5-.16 0-.34-.03-.47-.07l-6.6-1.66c-.17-.05-.28-.05-.32-.05-.14 0-.27.1-.27.4 0 .1.02.25.04.36l-.2.04" fill="#303f49"/><path d="M220 360.68h43.53v18.64H220z" fill="#fff" fill-opacity="0"/><path d="M229.66 362.4l-2.73 10.96c-.02.05-.04.16-.04.22 0 .1.08.16.26.16.37 0 .88-.64 1.14-1.02l.2.22c-.55.82-1.52 1.92-2.38 1.92-.6 0-.73-.42-.73-.75 0-.36.02-.6.17-1.16h-.1c-1.35 1.7-2.45 1.92-3.13 1.92-1.33 0-1.6-1.36-1.6-2.33 0-1.88 1.88-5.97 4.7-5.97 1.05 0 1.47.48 1.5.92h.02l.97-3.83c.02-.08.04-.15.04-.22 0-.24-.13-.37-.6-.37-.17 0-.37.04-.5.06l-.07-.28m-.15 5.57c0-.85-.27-1.3-1.03-1.3-1.8 0-3.3 3.67-3.3 5.43 0 .9.52 1.2 1.03 1.2 1.28 0 2.5-1.7 3-3.4.2-.64.3-1.35.3-1.92M238.4 376l.16.14c-.42.7-1.1 1.35-1.7 1.35-.3 0-.5-.14-.5-.64 0-.1 0-.22.07-.48l.73-2.87c.05-.17.07-.28.07-.5 0-.26-.07-.5-.3-.5-.7 0-2.13 2.35-2.33 3.14l-.44 1.75h-1.02l1-3.88c.02-.12.06-.33.06-.52 0-.26-.06-.5-.3-.5-.67 0-2.1 2.35-2.3 3.14l-.45 1.75h-1l1.22-4.86c0-.23-.08-.4-.43-.4-.1 0-.25 0-.35.03l-.04-.18 2.04-.32-.57 2.2h.07c1.22-1.87 2-2.2 2.5-2.2.47 0 .7.47.7 1.05 0 .2-.04.4-.1.67l-.14.47h.06c.38-.68 1.05-1.48 1.7-1.9.27-.2.52-.3.78-.3.46 0 .7.34.7.93 0 .23-.02.47-.1.8l-.78 2.98c-.02.04-.03.1-.03.15 0 .1.07.16.18.16.22 0 .56-.22.8-.7M244.62 373.67c0 1.8-1.43 3.86-3.4 3.86-1.32 0-1.76-1.16-1.76-2.1 0-1.67 1.34-3.75 3.25-3.75 1.05 0 1.92.6 1.92 2m-1.05-.4c0-.5-.18-1.22-.87-1.22-1.06 0-2.2 1.93-2.2 3.7 0 .42.05 1.38.78 1.38 1.37 0 2.3-2.9 2.3-3.87M251.7 368.74l-1.92 7.74c-.02.04-.03.12-.03.16 0 .07.07.1.2.1.25 0 .62-.44.8-.7l.14.14c-.4.6-1.08 1.36-1.7 1.36-.4 0-.5-.3-.5-.53 0-.25.02-.43.12-.82h-.07c-.96 1.2-1.73 1.36-2.2 1.36-.96 0-1.15-.96-1.15-1.64 0-1.34 1.33-4.22 3.33-4.22.74 0 1.03.33 1.05.64h.02l.7-2.7v-.16c0-.17-.07-.26-.4-.26-.13 0-.27.03-.36.04l-.05-.2m-.12 3.94c0-.6-.2-.92-.72-.92-1.3 0-2.33 2.6-2.33 3.84 0 .63.36.85.72.85.9 0 1.76-1.2 2.13-2.4.14-.46.2-.96.2-1.37M256.5 375.94l.17.17c-.9 1.12-1.8 1.43-2.6 1.43-1.26 0-1.76-1.1-1.76-2.02 0-.3.02-.47.08-.77.33-1.44 1.75-3.05 3.4-3.05.54 0 1.32.18 1.32.98 0 1.64-2.17 2.28-3.7 2.36v.36c0 .83.67 1.4 1.46 1.4.54 0 1.16-.25 1.63-.84m-3.1-1.3h.1c1.36 0 2.57-.88 2.57-2.02 0-.32-.24-.56-.56-.56-.95 0-1.73 1.5-2.1 2.6M261.16 368.74l-1.92 7.65v.13c0 .1.04.17.14.17.3 0 .7-.5.8-.7l.22.14c-.44.52-1 1.38-1.75 1.38-.4 0-.5-.34-.5-.66 0-.16.03-.34.07-.47l1.66-6.6c.04-.18.04-.3.04-.33 0-.15-.1-.28-.4-.28-.1 0-.25 0-.35.03l-.04-.2" fill="#303f49"/><path d="M216.38 380h47.24" stroke="#3a414a" fill="none"/><path d="M201.62 380l14.26-4.63v9.26zM278.38 380l-14.26 4.63v-9.26z" stroke="#3a414a" fill="#3a414a"/><path d="M545.63 405.92h8.74v10.18h-8.74z" fill="#fff"/><path d="M554.36 407.2l-.32 1.18h-2.76c.35 1 1.34 1.08 1.34 2.28 0 1.8-1.77 3.56-4.1 3.56-1.63 0-2.25-1.4-2.25-2.56 0-2.7 2.07-4.45 4.15-4.45h3.94m-4.16 1.18h-.04c-1.07.1-2.6 1.46-2.6 3.73 0 .52.18 1.64 1.04 1.64 1.58 0 2.75-2 2.75-3.3 0-1.03-.63-1.75-1.15-2.06" fill="#303f49"/><path d="M545.63 575.9h8.74v10.2h-8.74z" fill="#fff"/><path d="M554.36 577.2l-.32 1.16h-2.76c.35 1 1.34 1.1 1.34 2.3 0 1.77-1.77 3.55-4.1 3.55-1.63 0-2.25-1.4-2.25-2.55 0-2.7 2.07-4.45 4.15-4.45h3.94m-4.16 1.16h-.04c-1.07.1-2.6 1.47-2.6 3.74 0 .5.18 1.63 1.04 1.63 1.58 0 2.75-2 2.75-3.3 0-1.03-.63-1.75-1.15-2.07" fill="#303f49"/><path d="M10 630a6 6 0 0 1 6-6h36.8a6 6 0 0 1 6 6v19.16a6 6 0 0 1-6 6H16a6 6 0 0 1-6-6z" stroke="#000" stroke-opacity="0" fill="#fff" fill-opacity="0"/><g><use xlink:href="#u" transform="matrix(1,0,0,1,15.000000000000028,629) translate(0 18.500434027777775)"/></g><path d="M960 86a6 6 0 0 1 6-6h318a6 6 0 0 1 6 6v148.4a6 6 0 0 1-6 6H966a6 6 0 0 1-6-6z" stroke="#3a414a" fill="#fff"/><path d="M970 156a6 6 0 0 1 6-6h8a6 6 0 0 1 6 6v8a6 6 0 0 1-6 6h-8a6 6 0 0 1-6-6z" stroke="#3a414a" fill="#ffdda6"/><g><use xlink:href="#v" transform="matrix(1,0,0,1,975,154.99999999999994) translate(-13.0029296875 16.650390625)"/></g><path d="M970 186a6 6 0 0 1 6-6h8a6 6 0 0 1 6 6v8a6 6 0 0 1-6 6h-8a6 6 0 0 1-6-6z" stroke="#3a414a" fill="#cfe4ff"/><g><use xlink:href="#w" transform="matrix(1,0,0,1,975,184.99999999999994) translate(-13.0029296875 16.650390625)"/></g><path d="M970 216a6 6 0 0 1 6-6h8a6 6 0 0 1 6 6v8a6 6 0 0 1-6 6h-8a6 6 0 0 1-6-6z" stroke="#3a414a" fill="#e3fae3"/><g><use xlink:href="#x" transform="matrix(1,0,0,1,975,214.99999999999994) translate(-1.0009765625 16.650390625)"/></g><path d="M970 126.4a6 6 0 0 1 6-6h8a6 6 0 0 1 6 6v8a6 6 0 0 1-6 6h-8a6 6 0 0 1-6-6z" stroke="#3a414a" fill="#fff"/><path d="M1000 121.4a6 6 0 0 1 6-6h228a6 6 0 0 1 6 6v8a6 6 0 0 1-6 6h-228a6 6 0 0 1-6-6z" stroke="#000" stroke-opacity="0" fill="#fff" fill-opacity="0"/><g><use xlink:href="#y" transform="matrix(1,0,0,1,1005,120.3924049219292) translate(0 16.650390625)"/><use xlink:href="#z" transform="matrix(1,0,0,1,1005,120.3924049219292) translate(120.01953125 16.650390625)"/></g><path d="M1000 151.4a6 6 0 0 1 6-6h278a6 6 0 0 1 6 6v8a6 6 0 0 1-6 6h-278a6 6 0 0 1-6-6z" stroke="#000" stroke-opacity="0" fill="#fff" fill-opacity="0"/><g><use xlink:href="#A" transform="matrix(1,0,0,1,1005,150.3924049219292) translate(0 16.650390625)"/><use xlink:href="#B" transform="matrix(1,0,0,1,1005,150.3924049219292) translate(96.015625 16.650390625)"/><use xlink:href="#C" transform="matrix(1,0,0,1,1005,150.3924049219292) translate(180.029296875 16.650390625)"/><use xlink:href="#D" transform="matrix(1,0,0,1,1005,150.3924049219292) translate(252.041015625 16.650390625)"/></g><path d="M1000 181.4a6 6 0 0 1 6-6h278a6 6 0 0 1 6 6v12.1a6 6 0 0 1-6 6h-278a6 6 0 0 1-6-6z" stroke="#000" stroke-opacity="0" fill="#fff" fill-opacity="0"/><g><use xlink:href="#A" transform="matrix(1,0,0,1,1005.0000000000001,180.3924049219292) translate(0 16.650390625)"/><use xlink:href="#B" transform="matrix(1,0,0,1,1005.0000000000001,180.3924049219292) translate(96.015625 16.650390625)"/><use xlink:href="#C" transform="matrix(1,0,0,1,1005.0000000000001,180.3924049219292) translate(180.029296875 16.650390625)"/><use xlink:href="#E" transform="matrix(1,0,0,1,1005.0000000000001,180.3924049219292) translate(252.041015625 16.650390625)"/></g><path d="M1000 211a6 6 0 0 1 6-6h278a6 6 0 0 1 6 6v8a6 6 0 0 1-6 6h-278a6 6 0 0 1-6-6z" stroke="#000" stroke-opacity="0" fill="#fff" fill-opacity="0"/><g><use xlink:href="#F" transform="matrix(1,0,0,1,1005.0000000000002,209.99999999999994) translate(0 16.650390625)"/><use xlink:href="#G" transform="matrix(1,0,0,1,1005.0000000000002,209.99999999999994) translate(132.021484375 16.650390625)"/></g><path d="M965 92a6 6 0 0 1 6-6h228a6 6 0 0 1 6 6v8a6 6 0 0 1-6 6H971a6 6 0 0 1-6-6z" stroke="#000" stroke-opacity="0" fill="#fff" fill-opacity="0"/><g><use xlink:href="#H" transform="matrix(1,0,0,1,970,90.99999999999994) translate(0 16.650390625)"/></g><defs><path fill-opacity="0" d="M1018 0H810c-67-251-137-496-194-756C558-495 487-250 419 0H211L0-1349h189c48 393 110 772 142 1181 58-262 128-512 197-763h175c69 251 139 500 197 763 37-402 92-789 139-1181h189" id="I"/><path fill-opacity="0" d="M-5 220v-96h1238v96H-5" id="J"/><path fill-opacity="0" d="M148-1120c216-7 379-89 463-229h166v1204h353V0H157v-145h439v-1021c-79 124-254 184-448 194v-148" id="K"/><g id="a"><use transform="matrix(0.011935763888888888,0,0,0.011935763888888888,0,0)" xlink:href="#I"/><use transform="matrix(0.011935763888888888,0,0,0.011935763888888888,14.669053819444443,0)" xlink:href="#J"/><use transform="matrix(0.011935763888888888,0,0,0.011935763888888888,29.338107638888886,0)" xlink:href="#K"/></g><path fill-opacity="0" d="M611-1370c266 0 451 106 451 368 0 147-77 243-154 327-132 144-316 255-451 395-42 44-75 87-96 134h723V0H144v-117c124-264 387-411 582-603 73-72 151-147 151-271 0-161-104-231-266-231-163 0-249 90-268 238l-184-17c35-233 185-369 452-369" id="L"/><g id="b"><use transform="matrix(0.011935763888888888,0,0,0.011935763888888888,0,0)" xlink:href="#J"/><use transform="matrix(0.011935763888888888,0,0,0.011935763888888888,14.669053819444443,0)" xlink:href="#L"/></g><path fill="#3a414a" d="M614-1226c-167 1-283 53-283 213 0 183 186 193 334 234 230 63 463 120 463 409 0 286-219 387-518 390C309 23 131-98 79-338l185-37c34 165 149 248 351 246 184-2 324-58 324-238 0-203-207-221-372-266-210-57-422-111-422-377 0-267 201-356 470-360 279-5 430 101 480 324l-188 33c-28-141-121-215-293-213" id="M"/><path fill="#3a414a" d="M648-963c-190 6-283 138-283 336V0H185v-1484h181c-2 197 6 404-9 587h3c62-120 159-205 339-205 242 0 351 135 350 381V0H868v-695c1-168-57-273-220-268" id="N"/><path fill="#3a414a" d="M1000-272c3 95 12 159 101 161 21 0 41-3 59-7V-6c-44 10-86 16-139 16-141 2-191-84-197-217h-6C748-76 648 20 446 20c-207 0-318-120-318-322 0-266 194-348 454-354l236-4c12-191-40-305-222-305-140 0-220 47-232 172l-188-17c33-204 181-292 423-292 255 0 401 118 401 364v466zm-683-27c0 109 63 184 175 182 166-3 259-96 306-217 24-65 20-120 20-200-232 7-501-28-501 235" id="O"/><path fill="#3a414a" d="M839-1102c70 0 148 7 206 17v167c-112-18-268-36-363 15-129 69-208 203-208 395V0H294c-10-367 32-789-52-1082h171c21 75 41 161 48 250h5c67-152 152-270 373-270" id="P"/><path fill="#3a414a" d="M865-914c-3-187-2-380-2-570h180v1261c0 76 1 155 6 223H877c-8-49-9-116-10-174h-5C801-44 708 26 530 26c-135 0-234-46-297-139s-95-232-95-419c0-377 131-566 392-566 176 0 271 63 335 184zm-286-51c-222 0-255 197-255 427 0 229 31 425 253 425 237 0 286-195 286-441 0-238-52-411-284-411" id="Q"/><path fill="#3a414a" d="M745-142h380V0H143v-142h422v-798H246v-142h499v940zM545-1292v-192h200v192H545" id="R"/><path fill="#3a414a" d="M706-1102c241 0 344 136 343 381V0H868v-695c1-168-57-273-220-268-190 6-283 138-283 336V0H185c-3-360 6-732-6-1082h170c4 54 7 126 8 185h3c63-121 164-204 346-205" id="S"/><path fill="#3a414a" d="M1048-32c-2 300-135 456-433 456-222-1-358-88-400-267l184-25c22 99 100 157 222 156 184-2 248-125 248-315 0-64 3-133-2-194C807-100 706-13 524-12c-306 0-381-228-381-537 0-318 85-550 400-550 164 0 271 83 325 202h3c1-60 3-134 12-185h171c-13 339-4 702-6 1050zM585-145c210-8 284-178 284-406 0-192-52-331-177-392-33-16-69-22-104-22-223 2-259 184-259 414 0 229 31 415 256 406" id="T"/><g id="c"><use transform="matrix(0.0065104166666666635,0,0,0.0065104166666666635,0,0)" xlink:href="#M"/><use transform="matrix(0.0065104166666666635,0,0,0.0065104166666666635,8.001302083333329,0)" xlink:href="#N"/><use transform="matrix(0.0065104166666666635,0,0,0.0065104166666666635,16.002604166666657,0)" xlink:href="#O"/><use transform="matrix(0.0065104166666666635,0,0,0.0065104166666666635,24.003906249999986,0)" xlink:href="#P"/><use transform="matrix(0.0065104166666666635,0,0,0.0065104166666666635,32.005208333333314,0)" xlink:href="#Q"/><use transform="matrix(0.0065104166666666635,0,0,0.0065104166666666635,40.00651041666664,0)" xlink:href="#R"/><use transform="matrix(0.0065104166666666635,0,0,0.0065104166666666635,48.00781249999997,0)" xlink:href="#S"/><use transform="matrix(0.0065104166666666635,0,0,0.0065104166666666635,56.00911458333331,0)" xlink:href="#T"/></g><path fill="#3a414a" d="M1121-976c0 225-142 341-344 379L1177 0H957L591-575H353V0H162v-1349h482c281 3 477 100 477 373zM633-726c181-1 296-73 296-247 0-149-101-223-304-223H353v470h280" id="U"/><path fill="#3a414a" d="M914 0L548-499l-132 98V0H236v-1484h180v927l475-525h211L663-617 1125 0H914" id="V"/><g id="d"><use transform="matrix(0.010850694444444442,0,0,0.010850694444444442,0,0)" xlink:href="#U"/><use transform="matrix(0.010850694444444442,0,0,0.010850694444444442,13.33550347222222,0)" xlink:href="#O"/><use transform="matrix(0.010850694444444442,0,0,0.010850694444444442,26.67100694444444,0)" xlink:href="#S"/><use transform="matrix(0.010850694444444442,0,0,0.010850694444444442,40.00651041666666,0)" xlink:href="#V"/></g><path fill="#3a414a" d="M148-1120c216-7 379-89 463-229h166v1204h353V0H157v-145h439v-1021c-79 124-254 184-448 194v-148" id="W"/><use transform="matrix(0.010850694444444442,0,0,0.010850694444444442,0,0)" xlink:href="#W" id="e"/><path fill="#3a414a" d="M611-1370c266 0 451 106 451 368 0 147-77 243-154 327-132 144-316 255-451 395-42 44-75 87-96 134h723V0H144v-117c124-264 387-411 582-603 73-72 151-147 151-271 0-161-104-231-266-231-163 0-249 90-268 238l-184-17c35-233 185-369 452-369" id="X"/><use transform="matrix(0.010850694444444442,0,0,0.010850694444444442,0,0)" xlink:href="#X" id="f"/><path fill="#3a414a" d="M285-1169c8 382 2 780 4 1169H129v-1349h237c86 239 188 461 253 720 69-258 169-481 255-720h225V0H937c2-390-5-788 6-1169-75 255-170 488-259 729H547c-90-240-185-475-262-729" id="Y"/><path fill="#3a414a" d="M682 16c-209 0-323-80-324-285v-671H190v-142h170l58-282h120v282h432v142H538v652c2 114 60 155 182 155 106 0 209-16 297-34v137C921-4 806 16 682 16" id="Z"/><path fill="#3a414a" d="M904-1102c199 0 220 177 220 381V0H956v-686c-3-114 0-215-60-264-70-33-125-4-158 71-26 56-39 140-39 252V0H531v-686c-3-114-1-215-61-264-78-41-136 24-157 84-24 69-39 159-39 259V0H105c-3-360 6-732-6-1082h149c6 50 3 123 8 175 36-100 83-195 216-195 135 0 166 79 196 196 42-105 93-196 236-196" id="aa"/><path fill="#3a414a" d="M528 20c-247 0-343-132-343-381v-721h180v686c-4 177 45 284 224 277 194-8 279-136 279-336v-627h181c3 360-6 732 6 1082H885c-4-54-7-126-8-185h-3C809-64 714 20 528 20" id="ab"/><path fill="#3a414a" d="M736-142h380V0H134v-142h422v-1200H267v-142h469v1342" id="ac"/><g id="g"><use transform="matrix(0.010850694444444442,0,0,0.010850694444444442,0,0)" xlink:href="#Y"/><use transform="matrix(0.010850694444444442,0,0,0.010850694444444442,13.33550347222222,0)" xlink:href="#O"/><use transform="matrix(0.010850694444444442,0,0,0.010850694444444442,26.67100694444444,0)" xlink:href="#Z"/><use transform="matrix(0.010850694444444442,0,0,0.010850694444444442,40.00651041666666,0)" xlink:href="#aa"/><use transform="matrix(0.010850694444444442,0,0,0.010850694444444442,53.34201388888888,0)" xlink:href="#ab"/><use transform="matrix(0.010850694444444442,0,0,0.010850694444444442,66.6775173611111,0)" xlink:href="#ac"/></g><path fill-opacity="0" d="M614-836l333-513h205L717-705 1193 0H988L614-573 241 0H36l476-705-435-644h205" id="ad"/><use transform="matrix(0.011935763888888888,0,0,0.011935763888888888,0,0)" xlink:href="#ad" id="h"/><path fill-opacity="0" d="M708-584V0H520v-584L36-1349h205l374 611 372-611h205" id="ae"/><g id="i"><use transform="matrix(0.011935763888888888,0,0,0.011935763888888888,0,0)" xlink:href="#ae"/><use transform="matrix(0.011935763888888888,0,0,0.011935763888888888,14.669053819444443,0)" xlink:href="#J"/><use transform="matrix(0.011935763888888888,0,0,0.011935763888888888,29.338107638888886,0)" xlink:href="#K"/></g><path fill-opacity="0" d="M687-608v428H540v-428H116v-146h424v-428h147v428h424v146H687" id="af"/><use transform="matrix(0.011935763888888888,0,0,0.011935763888888888,0,0)" xlink:href="#af" id="j"/><g id="k"><use transform="matrix(0.011935763888888888,0,0,0.011935763888888888,0,0)" xlink:href="#ae"/><use transform="matrix(0.011935763888888888,0,0,0.011935763888888888,14.669053819444443,0)" xlink:href="#J"/><use transform="matrix(0.011935763888888888,0,0,0.011935763888888888,29.338107638888886,0)" xlink:href="#L"/></g><path fill-opacity="0" d="M168 279c222 39 310-114 368-290L66-1082h192c120 299 249 590 362 896 115-301 235-597 351-896h190L705 0c-65 164-130 320-275 396-67 36-177 35-262 18V279" id="ag"/><g id="l"><use transform="matrix(0.011935763888888888,0,0,0.011935763888888888,0,0)" xlink:href="#ag"/><use transform="matrix(0.011935763888888888,0,0,0.011935763888888888,14.669053819444443,0)" xlink:href="#J"/><use transform="matrix(0.011935763888888888,0,0,0.011935763888888888,29.338107638888886,0)" xlink:href="#K"/></g><path fill="#3a414a" d="M385-1193v494h676v158H385V0H194v-1349h891v156H385" id="ah"/><path fill="#3a414a" d="M617-1102c355 0 481 238 477 599H322c5 222 84 388 301 388 144 0 244-59 284-166l158 45C1002-72 854 20 623 20c-342 0-490-220-490-568 0-346 151-554 484-554zm291 461c-18-192-90-328-289-328-194 0-287 128-295 328h584" id="ai"/><path fill="#3a414a" d="M615-1102c343 0 484 203 482 560-1 347-147 562-488 562-336 0-475-219-479-562-4-349 156-560 485-560zm-8 989c240 0 301-180 301-429 0-245-55-427-290-427-236 0-299 181-299 427 0 243 61 429 288 429" id="aj"/><path fill="#3a414a" d="M1018 0H814c-67-224-138-444-200-673C552-442 476-224 407 0H204L21-1082h178c43 310 105 601 126 933 54-225 128-425 193-638h193c63 212 134 415 185 638 22-336 90-622 136-933h176" id="ak"/><g id="m"><use transform="matrix(0.010850694444444435,0,0,0.010850694444444435,0,0)" xlink:href="#ah"/><use transform="matrix(0.010850694444444435,0,0,0.010850694444444435,13.33550347222221,0)" xlink:href="#ai"/><use transform="matrix(0.010850694444444435,0,0,0.010850694444444435,26.67100694444442,0)" xlink:href="#ai"/><use transform="matrix(0.010850694444444435,0,0,0.010850694444444435,40.00651041666663,0)" xlink:href="#Q"/><use transform="matrix(0.010850694444444435,0,0,0.010850694444444435,53.34201388888884,0)" xlink:href="#ah"/><use transform="matrix(0.010850694444444435,0,0,0.010850694444444435,66.67751736111106,0)" xlink:href="#aj"/><use transform="matrix(0.010850694444444435,0,0,0.010850694444444435,80.01302083333327,0)" xlink:href="#P"/><use transform="matrix(0.010850694444444435,0,0,0.010850694444444435,93.34852430555547,0)" xlink:href="#ak"/><use transform="matrix(0.010850694444444435,0,0,0.010850694444444435,106.68402777777771,0)" xlink:href="#O"/><use transform="matrix(0.010850694444444435,0,0,0.010850694444444435,120.01953124999991,0)" xlink:href="#P"/><use transform="matrix(0.010850694444444435,0,0,0.010850694444444435,133.35503472222211,0)" xlink:href="#Q"/></g><path fill="#3a414a" d="M237 0v-1349h191v1193h672V0H237" id="al"/><path fill="#3a414a" d="M168 279c222 39 310-114 368-290L66-1082h192c120 299 249 590 362 896 115-301 235-597 351-896h190L705 0c-65 164-130 320-275 396-67 36-177 35-262 18V279" id="am"/><g id="n"><use transform="matrix(0.010850694444444435,0,0,0.010850694444444435,0,0)" xlink:href="#al"/><use transform="matrix(0.010850694444444435,0,0,0.010850694444444435,13.33550347222221,0)" xlink:href="#O"/><use transform="matrix(0.010850694444444435,0,0,0.010850694444444435,26.67100694444442,0)" xlink:href="#am"/><use transform="matrix(0.010850694444444435,0,0,0.010850694444444435,40.00651041666663,0)" xlink:href="#ai"/><use transform="matrix(0.010850694444444435,0,0,0.010850694444444435,53.34201388888884,0)" xlink:href="#P"/></g><g id="o"><use transform="matrix(0.011935763888888888,0,0,0.011935763888888888,0,0)" xlink:href="#ad"/><use transform="matrix(0.011935763888888888,0,0,0.011935763888888888,14.669053819444443,0)" xlink:href="#J"/><use transform="matrix(0.011935763888888888,0,0,0.011935763888888888,29.338107638888886,0)" xlink:href="#L"/></g><path fill-opacity="0" d="M614-1226c-167 1-283 53-283 213 0 183 186 193 334 234 230 63 463 120 463 409 0 286-219 387-518 390C309 23 131-98 79-338l185-37c34 165 149 248 351 246 184-2 324-58 324-238 0-203-207-221-372-266-210-57-422-111-422-377 0-267 201-356 470-360 279-5 430 101 480 324l-188 33c-28-141-121-215-293-213" id="an"/><g id="p"><use transform="matrix(0.011935763888888888,0,0,0.011935763888888888,0,0)" xlink:href="#an"/><use transform="matrix(0.011935763888888888,0,0,0.011935763888888888,14.669053819444443,0)" xlink:href="#J"/><use transform="matrix(0.011935763888888888,0,0,0.011935763888888888,29.338107638888886,0)" xlink:href="#K"/></g><g id="q"><use transform="matrix(0.011935763888888888,0,0,0.011935763888888888,0,0)" xlink:href="#ae"/><use transform="matrix(0.011935763888888888,0,0,0.011935763888888888,14.669053819444443,0)" xlink:href="#J"/><use transform="matrix(0.011935763888888888,0,0,0.011935763888888888,29.338107638888886,0)" xlink:href="#K"/></g><g id="r"><use transform="matrix(0.011935763888888888,0,0,0.011935763888888888,0,0)" xlink:href="#ae"/><use transform="matrix(0.011935763888888888,0,0,0.011935763888888888,14.669053819444443,0)" xlink:href="#J"/><use transform="matrix(0.011935763888888888,0,0,0.011935763888888888,29.338107638888886,0)" xlink:href="#L"/></g><path fill="#3a414a" d="M1034 0L896-382H333L196 0H0l510-1349h217L1228 0h-194zM847-531c-77-225-157-447-231-674-69 231-154 451-232 674h463" id="ao"/><path fill="#3a414a" d="M631 20c-350 0-501-215-501-562 0-355 162-560 502-560 250 0 399 118 446 323l-192 14c-23-124-109-196-262-196-242 0-305 171-305 415 1 245 61 427 304 427 151 0 248-77 267-215l190 12C1039-107 883 20 631 20" id="ap"/><g id="s"><use transform="matrix(0.010850694444444442,0,0,0.010850694444444442,0,0)" xlink:href="#ao"/><use transform="matrix(0.010850694444444442,0,0,0.010850694444444442,13.33550347222222,0)" xlink:href="#ac"/><use transform="matrix(0.010850694444444442,0,0,0.010850694444444442,26.67100694444444,0)" xlink:href="#ac"/><use transform="matrix(0.010850694444444442,0,0,0.010850694444444442,40.00651041666666,0)" xlink:href="#U"/><use transform="matrix(0.010850694444444442,0,0,0.010850694444444442,53.34201388888888,0)" xlink:href="#ai"/><use transform="matrix(0.010850694444444442,0,0,0.010850694444444442,66.6775173611111,0)" xlink:href="#Q"/><use transform="matrix(0.010850694444444442,0,0,0.010850694444444442,80.01302083333331,0)" xlink:href="#ab"/><use transform="matrix(0.010850694444444442,0,0,0.010850694444444442,93.34852430555554,0)" xlink:href="#ap"/><use transform="matrix(0.010850694444444442,0,0,0.010850694444444442,106.68402777777774,0)" xlink:href="#ai"/></g><g id="t"><use transform="matrix(0.011935763888888888,0,0,0.011935763888888888,0,0)" xlink:href="#I"/><use transform="matrix(0.011935763888888888,0,0,0.011935763888888888,14.669053819444443,0)" xlink:href="#J"/><use transform="matrix(0.011935763888888888,0,0,0.011935763888888888,29.338107638888886,0)" xlink:href="#L"/></g><path fill="#3a414a" d="M102-681c0-398 126-689 513-689 165 0 291 58 379 174s132 287 132 515c-1 318-88 554-298 657-123 61-317 58-438-3-206-104-288-341-288-654zm749 406c94-160 97-656-5-807-57-85-130-132-231-132-104 0-178 47-234 132-101 153-99 655 1 809 57 89 130 138 232 138 109 0 184-49 237-140" id="aq"/><path fill="#3a414a" d="M698-1104c312 3 392 244 392 558 0 315-82 566-392 566-169 0-277-65-331-184h-5c8 188 2 394 4 589H185V-858c0-76-1-156-6-224h175c6 52 9 120 10 178h4c58-122 150-202 330-200zm-49 991c225 0 255-203 255-433 0-225-32-419-253-419-236 0-285 192-285 441 0 237 53 411 283 411" id="ar"/><path fill="#3a414a" d="M496 0v-299h235V0H496zm0-783v-299h235v299H496" id="as"/><g id="u"><use transform="matrix(0.010850694444444442,0,0,0.010850694444444442,0,0)" xlink:href="#aq"/><use transform="matrix(0.010850694444444442,0,0,0.010850694444444442,13.33550347222222,0)" xlink:href="#ar"/><use transform="matrix(0.010850694444444442,0,0,0.010850694444444442,26.67100694444444,0)" xlink:href="#as"/></g><g id="v"><use transform="matrix(0.009765625,0,0,0.009765625,0,0)" xlink:href="#ad"/><use transform="matrix(0.009765625,0,0,0.009765625,12.001953125,0)" xlink:href="#J"/><use transform="matrix(0.009765625,0,0,0.009765625,24.00390625,0)" xlink:href="#K"/></g><path fill-opacity="0" d="M932 0L611-444 288 0H94l415-556-397-526h199l300 421 298-421h201L713-558 1133 0H932" id="at"/><g id="w"><use transform="matrix(0.009765625,0,0,0.009765625,0,0)" xlink:href="#at"/><use transform="matrix(0.009765625,0,0,0.009765625,12.001953125,0)" xlink:href="#J"/><use transform="matrix(0.009765625,0,0,0.009765625,24.00390625,0)" xlink:href="#L"/></g><use transform="matrix(0.009765625,0,0,0.009765625,0,0)" xlink:href="#at" id="x"/><path fill="#3a414a" d="M604-135c236 0 291-142 291-376v-838h190v859c5 340-142 510-480 510-326 0-463-164-463-492v-877h191v851c-3 222 46 363 271 363" id="au"/><path fill="#3a414a" d="M873-819c-18-114-119-146-250-146-163 0-245 50-245 151 0 151 170 148 294 185 182 54 388 94 388 320 0 240-189 325-439 329-245 4-410-69-454-268l159-31c24 133 136 168 295 165 144-2 270-31 270-171 0-164-195-160-331-202-167-52-350-87-350-299 0-218 173-315 413-313 220 2 373 77 412 260" id="av"/><g id="y"><use transform="matrix(0.009765625,0,0,0.009765625,0,0)" xlink:href="#au"/><use transform="matrix(0.009765625,0,0,0.009765625,12.001953125,0)" xlink:href="#S"/><use transform="matrix(0.009765625,0,0,0.009765625,24.00390625,0)" xlink:href="#av"/><use transform="matrix(0.009765625,0,0,0.009765625,36.005859375,0)" xlink:href="#N"/><use transform="matrix(0.009765625,0,0,0.009765625,48.0078125,0)" xlink:href="#O"/><use transform="matrix(0.009765625,0,0,0.009765625,60.009765625,0)" xlink:href="#P"/><use transform="matrix(0.009765625,0,0,0.009765625,72.01171875,0)" xlink:href="#Q"/><use transform="matrix(0.009765625,0,0,0.009765625,84.013671875,0)" xlink:href="#ai"/><use transform="matrix(0.009765625,0,0,0.009765625,96.015625,0)" xlink:href="#Q"/></g><g id="z"><use transform="matrix(0.009765625,0,0,0.009765625,0,0)" xlink:href="#ak"/><use transform="matrix(0.009765625,0,0,0.009765625,12.001953125,0)" xlink:href="#ai"/><use transform="matrix(0.009765625,0,0,0.009765625,24.00390625,0)" xlink:href="#R"/><use transform="matrix(0.009765625,0,0,0.009765625,36.005859375,0)" xlink:href="#T"/><use transform="matrix(0.009765625,0,0,0.009765625,48.0078125,0)" xlink:href="#N"/><use transform="matrix(0.009765625,0,0,0.009765625,60.009765625,0)" xlink:href="#Z"/></g><g id="A"><use transform="matrix(0.009765625,0,0,0.009765625,0,0)" xlink:href="#M"/><use transform="matrix(0.009765625,0,0,0.009765625,12.001953125,0)" xlink:href="#N"/><use transform="matrix(0.009765625,0,0,0.009765625,24.00390625,0)" xlink:href="#O"/><use transform="matrix(0.009765625,0,0,0.009765625,36.005859375,0)" xlink:href="#P"/><use transform="matrix(0.009765625,0,0,0.009765625,48.0078125,0)" xlink:href="#Q"/><use transform="matrix(0.009765625,0,0,0.009765625,60.009765625,0)" xlink:href="#ai"/><use transform="matrix(0.009765625,0,0,0.009765625,72.01171875,0)" xlink:href="#Q"/></g><g id="B"><use transform="matrix(0.009765625,0,0,0.009765625,0,0)" xlink:href="#Z"/><use transform="matrix(0.009765625,0,0,0.009765625,12.001953125,0)" xlink:href="#ai"/><use transform="matrix(0.009765625,0,0,0.009765625,24.00390625,0)" xlink:href="#S"/><use transform="matrix(0.009765625,0,0,0.009765625,36.005859375,0)" xlink:href="#av"/><use transform="matrix(0.009765625,0,0,0.009765625,48.0078125,0)" xlink:href="#aj"/><use transform="matrix(0.009765625,0,0,0.009765625,60.009765625,0)" xlink:href="#P"/></g><path fill="#3a414a" d="M891-1484c-201 251-362 514-362 954 0 441 161 704 362 955H701C500 176 342-90 342-532c0-440 159-704 359-952h190" id="aw"/><g id="C"><use transform="matrix(0.009765625,0,0,0.009765625,0,0)" xlink:href="#aw"/><use transform="matrix(0.009765625,0,0,0.009765625,12.001953125,0)" xlink:href="#P"/><use transform="matrix(0.009765625,0,0,0.009765625,24.00390625,0)" xlink:href="#O"/><use transform="matrix(0.009765625,0,0,0.009765625,36.005859375,0)" xlink:href="#S"/><use transform="matrix(0.009765625,0,0,0.009765625,48.0078125,0)" xlink:href="#V"/></g><path fill="#3a414a" d="M1065-1013c47 164 49 500-1 665C999-130 875 20 611 20c-377 0-484-300-487-695-2-245 41-425 141-551 77-98 191-144 352-144 261 0 386 140 448 357zM741-155c199-92 203-504 159-785-26-168-96-284-283-284-281 0-308 256-311 549-2 181 18 324 80 428 46 77 115 118 227 120 47 0 90-10 128-28" id="ax"/><path fill="#3a414a" d="M528-1484c201 248 357 511 357 952 0 442-156 709-357 957H336C537 174 700-89 700-530c0-440-163-703-364-954h192" id="ay"/><g id="D"><use transform="matrix(0.009765625,0,0,0.009765625,0,0)" xlink:href="#ax"/><use transform="matrix(0.009765625,0,0,0.009765625,12.001953125,0)" xlink:href="#ay"/></g><g id="E"><use transform="matrix(0.009765625,0,0,0.009765625,0,0)" xlink:href="#W"/><use transform="matrix(0.009765625,0,0,0.009765625,12.001953125,0)" xlink:href="#ay"/></g><g id="F"><use transform="matrix(0.009765625,0,0,0.009765625,0,0)" xlink:href="#U"/><use transform="matrix(0.009765625,0,0,0.009765625,12.001953125,0)" xlink:href="#ai"/><use transform="matrix(0.009765625,0,0,0.009765625,24.00390625,0)" xlink:href="#ar"/><use transform="matrix(0.009765625,0,0,0.009765625,36.005859375,0)" xlink:href="#ac"/><use transform="matrix(0.009765625,0,0,0.009765625,48.0078125,0)" xlink:href="#R"/><use transform="matrix(0.009765625,0,0,0.009765625,60.009765625,0)" xlink:href="#ap"/><use transform="matrix(0.009765625,0,0,0.009765625,72.01171875,0)" xlink:href="#O"/><use transform="matrix(0.009765625,0,0,0.009765625,84.013671875,0)" xlink:href="#Z"/><use transform="matrix(0.009765625,0,0,0.009765625,96.015625,0)" xlink:href="#ai"/><use transform="matrix(0.009765625,0,0,0.009765625,108.017578125,0)" xlink:href="#Q"/></g><g id="G"><use transform="matrix(0.009765625,0,0,0.009765625,0,0)" xlink:href="#Z"/><use transform="matrix(0.009765625,0,0,0.009765625,12.001953125,0)" xlink:href="#ai"/><use transform="matrix(0.009765625,0,0,0.009765625,24.00390625,0)" xlink:href="#S"/><use transform="matrix(0.009765625,0,0,0.009765625,36.005859375,0)" xlink:href="#av"/><use transform="matrix(0.009765625,0,0,0.009765625,48.0078125,0)" xlink:href="#aj"/><use transform="matrix(0.009765625,0,0,0.009765625,60.009765625,0)" xlink:href="#P"/></g><path fill="#3a414a" d="M1003 0L516-638 353-469V0H162v-1349h191v673l572-673h225L646-777 1227 0h-224" id="az"/><g id="H"><use transform="matrix(0.009765625,0,0,0.009765625,0,0)" xlink:href="#az"/><use transform="matrix(0.009765625,0,0,0.009765625,12.001953125,0)" xlink:href="#ai"/><use transform="matrix(0.009765625,0,0,0.009765625,24.00390625,0)" xlink:href="#am"/><use transform="matrix(0.009765625,0,0,0.009765625,36.005859375,0)" xlink:href="#as"/></g></defs></g></svg>