<svg xmlns="http://www.w3.org/2000/svg" xmlns:xlink="http://www.w3.org/1999/xlink" xmlns:lucid="lucid" width="1300" height="1050"><g transform="translate(0 0)" lucid:page-tab-id="AFx1yr4CCizM"><path d="M10 378a6 6 0 0 1 6-6h100.94a6 6 0 0 1 6 6v18.38a6 6 0 0 1-6 6H16a6 6 0 0 1-6-6z" stroke="#000" stroke-opacity="0" fill="#fff" fill-opacity="0"/><use xlink:href="#a" transform="matrix(1,0,0,1,15,376.99999999999966) translate(0 19.812934027777775)"/><use xlink:href="#b" transform="matrix(1,0,0,1,15,376.99999999999966) translate(66.6775173611111 19.812934027777775)"/><path d="M10.5 371a.5.5 0 0 1 .5-.5h938a.5.5 0 0 1 .5.5.5.5 0 0 1-.5.5H11a.5.5 0 0 1-.5-.5z" fill="none"/><path d="M22.92 370.5h7.95m7.95 0h7.95m7.95 0h7.95m7.95 0h7.95m7.95 0h7.95m7.95 0h7.94m7.95 0h7.96m7.95 0h7.96m7.95 0h7.96m7.95 0h7.96m7.95 0h7.96m7.94 0h7.95m7.95 0h7.95m7.95 0h7.95m7.95 0h7.95m7.95 0h7.95m7.95 0h7.95m7.94 0h7.94m7.95 0h7.94m7.95 0h7.94m7.95 0h7.94m7.95 0h7.94m7.95 0h7.94m7.94 0h7.95m7.95 0h7.95m7.95 0h7.95m7.95 0h7.95m7.95 0h7.95m7.95 0h7.94m7.96 0h7.94m7.95 0h7.95m7.95 0h7.95m7.95 0h7.95m7.95 0h7.95m7.95 0h7.94m7.96 0h7.95m7.96 0h7.95m7.96 0h7.95m7.96 0H635m7.96 0h7.95m7.96 0h7.94m7.95 0h7.95m7.95 0h7.95m7.95 0h7.95m7.95 0h7.95m7.95 0h7.95m7.95 0h7.95m7.94 0h7.95m7.94 0H794m7.94 0h7.95m7.94 0h7.95m7.94 0h7.95m7.94 0h7.95m7.93 0h7.95m7.95 0h7.95m7.95 0h7.95m7.95 0h7.95m7.95 0h7.95m7.94 0h4.06l.07.02.08.03.06.05.05.05.05.06.05.07.02.08.02.07v.16l-.02.07-.03.08-.05.06-.05.05-.06.05-.07.05-.08.03h-.07l-.08.02h-3.98m-7.94 0h-7.95m-7.95 0h-7.95m-7.95 0h-7.95m-7.95 0h-7.95m-7.95 0h-7.95m-7.94 0h-7.96m-7.95 0h-7.96m-7.95 0h-7.96m-7.95 0h-7.96m-7.95 0h-7.96m-7.95 0h-7.96m-7.94 0h-7.95m-7.95 0h-7.95m-7.95 0h-7.95m-7.95 0h-7.95m-7.95 0h-7.95m-7.95 0h-7.95m-7.95 0h-7.94m-7.95 0h-7.94m-7.95 0h-7.94m-7.95 0h-7.94m-7.95 0h-7.94m-7.95 0h-7.94m-7.95 0h-7.93m-7.95 0h-7.95m-7.95 0h-7.95m-7.95 0h-7.95m-7.95 0h-7.95m-7.95 0h-7.94m-7.96 0h-7.94m-7.95 0h-7.95m-7.95 0h-7.95m-7.95 0h-7.95m-7.95 0h-7.95m-7.95 0h-7.94m-7.96 0h-7.95m-7.96 0h-7.95m-7.96 0h-7.95m-7.96 0H325m-7.96 0h-7.95m-7.96 0h-7.94m-7.95 0h-7.95m-7.95 0h-7.95m-7.95 0h-7.95m-7.95 0h-7.95m-7.95 0h-7.95m-7.95 0h-7.94m-7.94 0h-7.95m-7.94 0H166m-7.94 0h-7.95m-7.94 0h-7.95m-7.94 0h-7.95m-7.94 0h-7.94m-7.95 0h-7.95m-7.95 0h-7.95m-7.95 0h-7.95m-7.95 0h-7.95m-7.95 0h-7.95m-7.95 0h-4.05l-.07-.02-.08-.03-.06-.05-.05-.05-.05-.06-.04-.07-.04-.08v-.07l-.02-.08v-.08l.02-.07.03-.08.04-.06.05-.05.06-.05.07-.05.08-.03h.07l.08-.02h3.97" stroke="#3a414a" fill="none"/><path d="M185.3 1006.8a6 6 0 0 1 6-6h100.94a6 6 0 0 1 6 6v18.4a6 6 0 0 1-6 6H191.3a6 6 0 0 1-6-6z" stroke="#000" stroke-opacity="0" fill="#fff" fill-opacity="0"/><use xlink:href="#c" transform="matrix(1,0,0,1,190.29411764705887,1005.8101265822785) translate(11.493489583333343 19.812934027777775)"/><path d="M10 16a6 6 0 0 1 6-6h928a6 6 0 0 1 6 6v38a6 6 0 0 1-6 6H16a6 6 0 0 1-6-6z" stroke="#000" stroke-opacity="0" fill="#dfe3e8"/><use xlink:href="#d" transform="matrix(1,0,0,1,15,15) translate(364.9837239583334 26.00043402777776)"/><use xlink:href="#e" transform="matrix(1,0,0,1,15,15) translate(498.33875868055554 26.00043402777776)"/><path d="M20.5 681.96a.5.5 0 0 1 .5-.5h938a.5.5 0 0 1 .5.5.5.5 0 0 1-.5.5H21a.5.5 0 0 1-.5-.5z" fill="none"/><path d="M32.92 681.46h7.95m7.95 0h7.95m7.95 0h7.95m7.95 0h7.95m7.95 0h7.95m7.95 0h7.94m7.95 0h7.96m7.95 0h7.96m7.95 0h7.96m7.95 0h7.96m7.95 0h7.96m7.94 0h7.95m7.95 0h7.95m7.95 0h7.95m7.95 0h7.95m7.95 0h7.95m7.95 0h7.95m7.94 0h7.94m7.95 0h7.94m7.95 0h7.94m7.95 0h7.94m7.95 0h7.94m7.95 0h7.94m7.94 0h7.95m7.95 0h7.95m7.95 0h7.95m7.95 0h7.95m7.95 0h7.95m7.95 0h7.94m7.96 0h7.94m7.95 0h7.95m7.95 0h7.95m7.95 0h7.95m7.95 0h7.95m7.95 0h7.94m7.96 0h7.95m7.96 0h7.95m7.96 0h7.95m7.96 0H645m7.96 0h7.95m7.96 0h7.94m7.95 0h7.95m7.95 0h7.95m7.95 0h7.95m7.95 0h7.95m7.95 0h7.95m7.95 0h7.95m7.94 0h7.95m7.94 0H804m7.94 0h7.95m7.94 0h7.95m7.94 0h7.95m7.94 0h7.95m7.93 0h7.95m7.95 0h7.95m7.95 0h7.95m7.95 0h7.95m7.95 0h7.95m7.94 0h4.06l.07.02.08.03.06.05.05.05.05.06.05.07.02.07.02.08V682.03l-.02.08-.03.08-.05.07-.05.06-.06.06-.07.04-.08.03-.07.02h-4.06m-7.94 0h-7.95m-7.95 0h-7.95m-7.95 0h-7.95m-7.95 0h-7.95m-7.95 0h-7.95m-7.94 0h-7.96m-7.95 0h-7.96m-7.95 0h-7.96m-7.95 0h-7.96m-7.95 0h-7.96m-7.95 0h-7.96m-7.94 0h-7.95m-7.95 0h-7.95m-7.95 0h-7.95m-7.95 0h-7.95m-7.95 0h-7.95m-7.95 0h-7.95m-7.95 0h-7.94m-7.95 0h-7.94m-7.95 0h-7.94m-7.95 0h-7.94m-7.95 0h-7.94m-7.95 0h-7.94m-7.95 0h-7.93m-7.95 0h-7.95m-7.95 0h-7.95m-7.95 0h-7.95m-7.95 0h-7.95m-7.95 0h-7.94m-7.96 0h-7.94m-7.95 0h-7.95m-7.95 0h-7.95m-7.95 0h-7.95m-7.95 0h-7.95m-7.95 0h-7.94m-7.96 0h-7.95m-7.96 0h-7.95m-7.96 0h-7.95m-7.96 0H335m-7.96 0h-7.95m-7.96 0h-7.94m-7.95 0h-7.95m-7.95 0h-7.95m-7.95 0h-7.95m-7.95 0h-7.95m-7.95 0h-7.95m-7.95 0h-7.94m-7.94 0h-7.95m-7.94 0H176m-7.94 0h-7.95m-7.94 0h-7.95m-7.94 0h-7.95m-7.94 0h-7.94m-7.95 0h-7.95m-7.95 0h-7.95m-7.95 0h-7.95m-7.95 0h-7.95m-7.95 0h-7.95m-7.95 0h-4.05l-.07-.02-.08-.03-.06-.04-.05-.05-.05-.05-.05-.07-.03-.07v-.07l-.02-.07v-.08l.02-.08.03-.07.04-.07.05-.06.06-.05.07-.04.07-.02.08-.02h4.06" stroke="#3a414a" fill="none"/><path d="M690 1006a6 6 0 0 1 6-6h100.94a6 6 0 0 1 6 6v18.38a6 6 0 0 1-6 6H696a6 6 0 0 1-6-6z" stroke="#000" stroke-opacity="0" fill="#fff" fill-opacity="0"/><use xlink:href="#c" transform="matrix(1,0,0,1,694.9999999999998,1004.9999999999997) translate(11.493489583333343 19.812934027777775)"/><path d="M837.06 1006a6 6 0 0 1 6-6H944a6 6 0 0 1 6 6v18.38a6 6 0 0 1-6 6H843.06a6 6 0 0 1-6-6z" stroke="#000" stroke-opacity="0" fill="#fff" fill-opacity="0"/><use xlink:href="#f" transform="matrix(1,0,0,1,842.0588235294117,1004.9999999999997) translate(-8.509765624999979 18.500434027777775)"/><path d="M10 1006a6 6 0 0 1 6-6h36.8a6 6 0 0 1 6 6v19.16a6 6 0 0 1-6 6H16a6 6 0 0 1-6-6z" stroke="#000" stroke-opacity="0" fill="#fff" fill-opacity="0"/><use xlink:href="#g" transform="matrix(1,0,0,1,15.000000000000028,1004.9999999999998) translate(0 20.350477430555554)"/><path d="M200 96a6 6 0 0 1 6-6h28a6 6 0 0 1 6 6v68a6 6 0 0 1-6 6h-28a6 6 0 0 1-6-6z" stroke="#3a414a" fill="#ffdda6"/><use xlink:href="#h" transform="matrix(1,0,0,1,205,95.00000000000001) translate(-7.003580729166664 41.50499131944444)"/><path d="M239.46 96a6 6 0 0 1 6-6h28a6 6 0 0 1 6 6v68a6 6 0 0 1-6 6h-28a6 6 0 0 1-6-6z" stroke="#3a414a" fill="#cfe4ff"/><use xlink:href="#i" transform="matrix(1,0,0,1,244.45849133364183,94.99999999999999) translate(0.8309461805555571 42.53797743055556)"/><path d="M110 125.62a6 6 0 0 1 6-6h46a5.06 5.06 0 0 0 5.07-5.06 1.94 1.94 0 0 1 3.38-1.3l10.83 12.03a6.67 6.67 0 0 1 0 8.9l-10.83 12.04a1.94 1.94 0 0 1-3.38-1.3 5.06 5.06 0 0 0-5.07-5.07h-46a6 6 0 0 1-6-6z" stroke="#3a414a" fill="#fff"/><use xlink:href="#j" transform="matrix(1,0,0,1,114.99999999999999,114.49367088607642) translate(0.9947916666666856 19.048177083333332)"/><path d="M209.46 124.2h25.72v23.32h-25.72z" fill="#fff" fill-opacity="0"/><path d="M227.04 128.97l-.06.25c-1.06.05-1.74.7-2.14 1.23l-7 9.2h-.46v-7.06h-.18l-4.74 7.05H212v-9.1c0-.86-.53-1.33-1.42-1.33h-.16l.06-.25h4.6l-.06.25h-.12c-.62 0-1.2 0-1.2 1.14v6.02h.07l3.6-5.3v-.98c0-.5-.3-.88-1.3-.88h-.13l.07-.25h4.56l-.07.25h-.3c-.98 0-1.13.6-1.13 1.15v6.3h.1l4.44-5.9c.28-.35.65-.84.65-1.15 0-.25-.2-.4-.87-.4h-.27l.08-.25h3.86M232.38 133.9h-3.1v-.18c.82-.05 1.06-.28 1.06-.9v-5.08c0-.38-.1-.55-.34-.55-.1 0-.3.05-.5.13l-.3.1v-.15l2-1.03.1.04v6.73c0 .48.24.7 1.08.7v.16M225.02 145.6l1.85-1.2c-1.28-.2-2.22-1.1-2.22-2.6 0-2.3 2.12-5.02 5-5.02 1.64 0 2.7 1.04 2.7 2.8 0 2.3-2.13 4.85-4.9 4.85l-.72.48.04.07c.18-.03.34-.05.5-.05.72 0 1.77.4 2.75.4.44 0 .98-.16 1.54-.76l.15.13c-.66.8-1.45 1.33-2.78 1.33-.6 0-1.2-.1-1.6-.18-.57-.12-1.18-.3-1.52-.3-.1 0-.35.05-.65.2m5.85-6.7c0-1.5-.74-1.85-1.47-1.85-2.5 0-3.52 3.57-3.52 5.13 0 1.1.58 1.68 1.5 1.68 2.44 0 3.5-3.2 3.5-4.96" fill="#303f49"/><path d="M249.46 124.2h25.72v23.32h-25.72z" fill="#fff" fill-opacity="0"/><path d="M267.04 128.97l-.06.25c-1.06.05-1.74.7-2.14 1.23l-7 9.2h-.46v-7.06h-.18l-4.74 7.05H252v-9.1c0-.86-.53-1.33-1.42-1.33h-.16l.06-.25h4.6l-.06.25h-.12c-.62 0-1.2 0-1.2 1.14v6.02h.07l3.6-5.3v-.98c0-.5-.3-.88-1.3-.88h-.13l.07-.25h4.56l-.07.25h-.3c-.98 0-1.13.6-1.13 1.15v6.3h.1l4.44-5.9c.28-.35.65-.84.65-1.15 0-.25-.2-.4-.87-.4h-.27l.08-.25h3.86M273.3 132.34l-.62 1.55h-4.42v-.15l2-2.13c1.07-1.12 1.48-1.98 1.48-2.94 0-1.03-.6-1.6-1.57-1.6-.8 0-1.2.37-1.66 1.48l-.23-.06c.24-1.32.96-2.25 2.35-2.25 1.28 0 2.1.87 2.1 2 0 .88-.45 1.73-1.45 2.8l-1.87 1.98h2.65c.47 0 .7-.13 1.08-.76M265.02 145.6l1.86-1.2c-1.3-.2-2.23-1.1-2.23-2.6 0-2.3 2.12-5.02 5-5.02 1.64 0 2.7 1.04 2.7 2.8 0 2.3-2.13 4.85-4.9 4.85l-.72.48.04.07c.18-.03.34-.05.5-.05.72 0 1.77.4 2.75.4.44 0 .98-.16 1.54-.76l.15.13c-.66.8-1.45 1.33-2.78 1.33-.6 0-1.2-.1-1.6-.18-.57-.12-1.18-.3-1.52-.3-.1 0-.35.05-.65.2m5.85-6.7c0-1.5-.74-1.85-1.47-1.85-2.5 0-3.52 3.57-3.52 5.13 0 1.1.58 1.68 1.5 1.68 2.44 0 3.5-3.2 3.5-4.96" fill="#303f49"/><path d="M10 96a6 6 0 0 1 6-6h68a6 6 0 0 1 6 6v68a6 6 0 0 1-6 6H16a6 6 0 0 1-6-6z" stroke="#3a414a" fill="#fff"/><path d="M37.35 123.94H62.4v18.27H37.36z" fill="#fff"/><path d="M54.94 125.68l-.07.26c-1.05.04-1.74.7-2.14 1.23l-7 9.2h-.46v-7.06h-.17l-4.75 7.06h-.46v-9.08c0-.88-.54-1.34-1.43-1.34h-.16l.07-.26h4.6l-.06.26h-.1c-.63 0-1.22 0-1.22 1.13v6.02h.08l3.6-5.3v-1c0-.48-.3-.86-1.3-.86h-.12l.06-.26h4.55l-.06.26h-.3c-1 0-1.13.6-1.13 1.15v6.3h.1l4.43-5.92c.27-.35.64-.84.64-1.15 0-.25-.2-.4-.86-.4H51l.07-.25h3.87M52.92 139.8l1.85-1.2c-1.3-.2-2.23-1.1-2.23-2.6 0-2.3 2.13-5.03 5-5.03 1.64 0 2.7 1.04 2.7 2.8 0 2.3-2.13 4.85-4.9 4.85l-.72.48.05.06c.18-.03.34-.05.48-.05.74 0 1.8.4 2.77.4.44 0 .97-.15 1.53-.75l.15.13c-.66.82-1.45 1.34-2.8 1.34-.6 0-1.17-.1-1.6-.18-.55-.13-1.17-.3-1.5-.3-.1 0-.35.05-.66.2m5.85-6.7c0-1.5-.74-1.85-1.48-1.85-2.5 0-3.52 3.56-3.52 5.12 0 1.1.58 1.68 1.48 1.68 2.45 0 3.5-3.2 3.5-4.97" fill="#303f49"/><path d="M200 186a6 6 0 0 1 6-6h28a6 6 0 0 1 6 6v68a6 6 0 0 1-6 6h-28a6 6 0 0 1-6-6z" stroke="#3a414a" fill="#ffdda6"/><use xlink:href="#h" transform="matrix(1,0,0,1,205.00000000000006,185) translate(-7.003580729166664 41.50499131944444)"/><path d="M239.46 186a6 6 0 0 1 6-6h28a6 6 0 0 1 6 6v68a6 6 0 0 1-6 6h-28a6 6 0 0 1-6-6z" stroke="#3a414a" fill="#cfe4ff"/><use xlink:href="#i" transform="matrix(1,0,0,1,244.45849133364183,184.99999999999994) translate(0.8309461805555571 42.53797743055556)"/><path d="M110 215.62a6 6 0 0 1 6-6h46a5.06 5.06 0 0 0 5.07-5.06 1.94 1.94 0 0 1 3.38-1.3l10.83 12.03a6.67 6.67 0 0 1 0 8.9l-10.83 12.04a1.94 1.94 0 0 1-3.38-1.3 5.06 5.06 0 0 0-5.07-5.07h-46a6 6 0 0 1-6-6z" stroke="#3a414a" fill="#fff"/><use xlink:href="#j" transform="matrix(1,0,0,1,115.00000000000004,204.49367088607642) translate(0.9947916666666856 19.048177083333332)"/><path d="M209.46 214.2h25.72v21.3h-25.72z" fill="#fff" fill-opacity="0"/><path d="M227.04 218.97l-.06.25c-1.06.05-1.74.7-2.14 1.23l-7 9.2h-.46v-7.06h-.18l-4.74 7.05H212v-9.1c0-.86-.53-1.33-1.42-1.33h-.16l.06-.25h4.6l-.06.25h-.12c-.62 0-1.2 0-1.2 1.14v6.02h.07l3.6-5.3v-.98c0-.5-.3-.88-1.3-.88h-.13l.07-.25h4.56l-.07.25h-.3c-.98 0-1.13.6-1.13 1.15v6.3h.1l4.44-5.9c.28-.35.65-.84.65-1.15 0-.25-.2-.4-.87-.4h-.27l.08-.25h3.86M232.38 223.9h-3.1v-.18c.82-.05 1.06-.28 1.06-.9v-5.08c0-.38-.1-.55-.34-.55-.1 0-.3.05-.5.13l-.3.1v-.15l2-1.03.1.04v6.73c0 .48.24.7 1.08.7v.16M233.14 226.8l-.04.18c-.58 0-.88.22-1.36.6l-3.06 2.38 2.1 3.14c.34.48.7.9 1.45.9l-.05.17h-3.24l.05-.18h.1c.33 0 .54-.07.54-.38 0-.18-.1-.25-.18-.4l-1.76-2.67h-.05l-.7 2.74-.03.24c0 .27.22.45.88.45h.2l-.05.17h-3.44l.06-.18h.2c.68 0 .87-.4.95-.7l1.33-5.34c.08-.3.12-.3.12-.55 0-.24-.2-.42-.86-.42h-.22l.05-.18h3.52l-.04.18h-.12c-.84 0-1 .3-1.1.7l-.6 2.36h.07l3.18-2.5c.1-.1.2-.18.2-.32 0-.16-.1-.24-.57-.24l.04-.18h2.44" fill="#303f49"/><path d="M249.46 214.2h25.72v23.32h-25.72z" fill="#fff" fill-opacity="0"/><path d="M267.04 218.97l-.06.25c-1.06.05-1.74.7-2.14 1.23l-7 9.2h-.46v-7.06h-.18l-4.74 7.05H252v-9.1c0-.86-.53-1.33-1.42-1.33h-.16l.06-.25h4.6l-.06.25h-.12c-.62 0-1.2 0-1.2 1.14v6.02h.07l3.6-5.3v-.98c0-.5-.3-.88-1.3-.88h-.13l.07-.25h4.56l-.07.25h-.3c-.98 0-1.13.6-1.13 1.15v6.3h.1l4.44-5.9c.28-.35.65-.84.65-1.15 0-.25-.2-.4-.87-.4h-.27l.08-.25h3.86M273.3 222.34l-.62 1.55h-4.42v-.15l2-2.13c1.07-1.12 1.48-1.98 1.48-2.94 0-1.03-.6-1.6-1.57-1.6-.8 0-1.2.37-1.66 1.48l-.23-.06c.24-1.32.96-2.25 2.35-2.25 1.28 0 2.1.87 2.1 2 0 .88-.45 1.73-1.45 2.8l-1.87 1.98h2.65c.47 0 .7-.13 1.08-.76M265.02 235.6l1.86-1.2c-1.3-.2-2.23-1.1-2.23-2.6 0-2.3 2.12-5.02 5-5.02 1.64 0 2.7 1.04 2.7 2.8 0 2.3-2.13 4.85-4.9 4.85l-.72.48.04.07c.18-.03.34-.05.5-.05.72 0 1.77.4 2.75.4.44 0 .98-.16 1.54-.76l.15.13c-.66.8-1.45 1.33-2.78 1.33-.6 0-1.2-.1-1.6-.18-.57-.12-1.18-.3-1.52-.3-.1 0-.35.05-.65.2m5.85-6.7c0-1.5-.74-1.85-1.47-1.85-2.5 0-3.52 3.57-3.52 5.13 0 1.1.58 1.68 1.5 1.68 2.44 0 3.5-3.2 3.5-4.96" fill="#303f49"/><path d="M10 186a6 6 0 0 1 6-6h68a6 6 0 0 1 6 6v68a6 6 0 0 1-6 6H16a6 6 0 0 1-6-6z" stroke="#3a414a" fill="#fff"/><path d="M37.35 213.94h25.3v16.25h-25.3z" fill="#fff"/><path d="M54.94 215.68l-.07.26c-1.05.04-1.74.7-2.14 1.23l-7 9.2h-.46v-7.06h-.17l-4.75 7.06h-.46v-9.08c0-.88-.54-1.34-1.43-1.34h-.16l.07-.26h4.6l-.06.26h-.1c-.63 0-1.22 0-1.22 1.13v6.02h.08l3.6-5.3v-1c0-.48-.3-.86-1.3-.86h-.12l.06-.26h4.55l-.06.26h-.3c-1 0-1.13.6-1.13 1.15v6.3h.1l4.43-5.9c.27-.37.64-.86.64-1.16 0-.26-.2-.4-.86-.4H51l.07-.26h3.87M61.03 221.13l-.04.18c-.6 0-.9.24-1.37.6l-3.05 2.4 2.1 3.13c.33.5.7.9 1.44.9l-.04.17h-3.24l.04-.18H57c.32 0 .53-.05.53-.37 0-.18-.1-.25-.18-.4l-1.76-2.67h-.05l-.7 2.74c-.02.1-.04.17-.04.25 0 .27.23.45.9.45h.2l-.06.18H52.4l.05-.18h.2c.7 0 .88-.4.96-.7l1.33-5.33c.08-.3.1-.32.1-.56 0-.25-.17-.43-.85-.43h-.2l.04-.17h3.53l-.05.18h-.12c-.85 0-1 .32-1.1.7l-.6 2.37h.06l3.18-2.5c.12-.08.2-.17.2-.32 0-.16-.1-.24-.57-.24l.05-.17h2.43" fill="#303f49"/><path d="M200 276a6 6 0 0 1 6-6h28a6 6 0 0 1 6 6v68a6 6 0 0 1-6 6h-28a6 6 0 0 1-6-6z" stroke="#3a414a" fill="#ffdda6"/><use xlink:href="#h" transform="matrix(1,0,0,1,205.00000000000006,275) translate(-7.003580729166664 41.50499131944444)"/><path d="M239.46 276a6 6 0 0 1 6-6h28a6 6 0 0 1 6 6v68a6 6 0 0 1-6 6h-28a6 6 0 0 1-6-6z" stroke="#3a414a" fill="#cfe4ff"/><use xlink:href="#i" transform="matrix(1,0,0,1,244.45849133364194,275) translate(0.8309461805555571 42.53797743055556)"/><path d="M110 305.62a6 6 0 0 1 6-6h46a5.06 5.06 0 0 0 5.07-5.06 1.94 1.94 0 0 1 3.38-1.3l10.83 12.03a6.67 6.67 0 0 1 0 8.9l-10.83 12.04a1.94 1.94 0 0 1-3.38-1.3 5.06 5.06 0 0 0-5.07-5.07h-46a6 6 0 0 1-6-6z" stroke="#3a414a" fill="#fff"/><use xlink:href="#j" transform="matrix(1,0,0,1,115.00000000000004,294.4936708860764) translate(0.9947916666666856 19.048177083333332)"/><path d="M209.46 304.2h25.72v21.3h-25.72z" fill="#fff" fill-opacity="0"/><path d="M227.04 308.97l-.06.25c-1.06.05-1.74.7-2.14 1.23l-7 9.2h-.46v-7.06h-.18l-4.74 7.05H212v-9.08c0-.88-.53-1.35-1.42-1.35h-.16l.06-.25h4.6l-.06.25h-.12c-.62 0-1.2 0-1.2 1.14v6.02h.07l3.6-5.3v-.98c0-.5-.3-.88-1.3-.88h-.13l.07-.25h4.56l-.07.25h-.3c-.98 0-1.13.6-1.13 1.15v6.3h.1l4.44-5.9c.28-.35.65-.84.65-1.15 0-.25-.2-.4-.87-.4h-.27l.08-.25h3.86M232.38 313.9h-3.1v-.18c.82-.05 1.06-.3 1.06-.9v-5.08c0-.38-.1-.55-.34-.55-.1 0-.3.05-.5.13l-.3.1v-.15l2-1.03.1.04v6.73c0 .48.24.7 1.08.7v.16M232.67 316.8l-.05.18c-.73.04-1.2.48-1.5.87l-4.97 6.5h-.27v-6.45c0-.65-.43-.92-1.12-.92l.05-.18h3.33l-.05.18h-.2c-.75 0-.8.42-.8.8v4.4h.04l3.16-4.12c.22-.27.43-.6.43-.83 0-.17-.14-.25-.57-.25h-.23l.05-.18h2.72" fill="#303f49"/><path d="M249.46 304.2h25.72v21.3h-25.72z" fill="#fff" fill-opacity="0"/><path d="M267.04 308.97l-.06.25c-1.06.05-1.74.7-2.14 1.23l-7 9.2h-.46v-7.06h-.18l-4.74 7.05H252v-9.08c0-.88-.53-1.35-1.42-1.35h-.16l.06-.25h4.6l-.06.25h-.12c-.62 0-1.2 0-1.2 1.14v6.02h.07l3.6-5.3v-.98c0-.5-.3-.88-1.3-.88h-.13l.07-.25h4.56l-.07.25h-.3c-.98 0-1.13.6-1.13 1.15v6.3h.1l4.44-5.9c.28-.35.65-.84.65-1.15 0-.25-.2-.4-.87-.4h-.27l.08-.25h3.86M273.3 312.34l-.62 1.55h-4.42v-.15l2-2.13c1.07-1.12 1.48-1.98 1.48-2.94 0-1.03-.6-1.6-1.57-1.6-.8 0-1.2.37-1.66 1.48l-.23-.06c.24-1.32.96-2.25 2.35-2.25 1.28 0 2.1.87 2.1 2 0 .88-.45 1.73-1.45 2.8l-1.87 1.98h2.65c.47 0 .7-.13 1.08-.76M272.67 316.8l-.05.18c-.73.04-1.2.48-1.5.87l-4.97 6.5h-.27v-6.45c0-.65-.43-.92-1.12-.92l.05-.18h3.33l-.05.18h-.2c-.75 0-.8.42-.8.8v4.4h.04l3.17-4.12c.2-.27.4-.6.4-.83 0-.17-.14-.25-.57-.25h-.23l.05-.18h2.72" fill="#303f49"/><path d="M10 276a6 6 0 0 1 6-6h68a6 6 0 0 1 6 6v68a6 6 0 0 1-6 6H16a6 6 0 0 1-6-6z" stroke="#3a414a" fill="#fff"/><path d="M37.35 303.94h24.82v16.25H37.35z" fill="#fff"/><path d="M54.94 305.68l-.07.26c-1.05.04-1.74.7-2.14 1.23l-7 9.2h-.46v-7.06h-.17l-4.75 7.06h-.46v-9.08c0-.88-.54-1.34-1.43-1.34h-.16l.07-.26h4.6l-.06.26h-.1c-.63 0-1.22 0-1.22 1.13v6.02h.08l3.6-5.3v-1c0-.48-.3-.86-1.3-.86h-.12l.06-.26h4.55l-.06.26h-.3c-1 0-1.13.6-1.13 1.15v6.3h.1l4.43-5.9c.27-.37.64-.86.64-1.17 0-.25-.2-.4-.86-.4H51l.07-.25h3.87M60.56 311.13l-.04.18c-.74.06-1.2.5-1.5.88l-4.97 6.5h-.27v-6.44c0-.66-.43-.93-1.12-.93l.04-.17h3.32l-.04.18h-.22c-.73 0-.8.43-.8.8v4.42h.06l3.16-4.12c.2-.27.43-.6.43-.84 0-.17-.15-.25-.58-.25h-.23l.04-.17h2.72" fill="#303f49"/><path d="M624.7 305.62a6 6 0 0 1 6-6h46a5.06 5.06 0 0 0 5.07-5.06 1.94 1.94 0 0 1 3.4-1.3l10.82 12.03a6.67 6.67 0 0 1 0 8.9l-10.84 12.04a1.94 1.94 0 0 1-3.4-1.3 5.06 5.06 0 0 0-5.05-5.07h-46a6 6 0 0 1-6-6z" stroke="#3a414a" fill="#fff"/><use xlink:href="#j" transform="matrix(1,0,0,1,629.7058823529412,294.4936708860764) translate(0.9947916666666856 19.048177083333332)"/><path d="M520 276a6 6 0 0 1 6-6h68a6 6 0 0 1 6 6v68a6 6 0 0 1-6 6h-68a6 6 0 0 1-6-6z" stroke="#3a414a" fill="#fff"/><path d="M547.75 304.2h24.5v16.24h-24.5z" fill="#fff"/><path d="M565.33 305.93l-.06.26c-1.06.04-1.75.7-2.14 1.22l-7 9.2h-.46v-7.06h-.18l-4.75 7.06h-.46v-9.1c0-.87-.54-1.33-1.43-1.33h-.16l.07-.27h4.6l-.07.26h-.1c-.63 0-1.22 0-1.22 1.12v6.02h.08l3.6-5.3v-.97c0-.5-.3-.88-1.3-.88h-.13l.06-.27h4.55l-.07.26h-.28c-1 0-1.14.58-1.14 1.14v6.3h.1l4.44-5.9c.27-.35.63-.85.63-1.15 0-.27-.2-.4-.86-.4h-.27l.07-.27h3.86M570.4 314c0 2.25-1.75 4.88-4.6 4.88-1.7 0-2.86-1.08-2.86-2.63 0-2.3 1.78-5.05 4.66-5.05 1.9 0 2.8 1.4 2.8 2.8m-1.3-.25c0-1.2-.45-2.13-1.6-2.13-2.6 0-3.2 3.53-3.2 5.14 0 1.1.7 1.7 1.6 1.7 2.38 0 3.2-3.1 3.2-4.7" fill="#303f49"/><path d="M720 276a6 6 0 0 1 6-6h68a6 6 0 0 1 6 6v28a6 6 0 0 1-6 6h-68a6 6 0 0 1-6-6z" stroke="#3a414a" fill="#ffdda6"/><use xlink:href="#h" transform="matrix(1,0,0,1,725,275) translate(12.996419270833336 22.225477430555554)"/><path d="M747.14 278.85h25.72v22.3h-25.72z" fill="#fff" fill-opacity="0"/><path d="M764.72 283.62l-.07.25c-1.05.05-1.74.7-2.13 1.23l-7 9.2h-.46v-7.06h-.18l-4.74 7.06h-.46v-9.1c0-.86-.53-1.33-1.42-1.33h-.16l.06-.25h4.6l-.07.25h-.12c-.62 0-1.2 0-1.2 1.14v6.03h.07l3.6-5.3v-.98c0-.5-.3-.88-1.3-.88h-.13l.06-.25h4.56l-.07.25h-.3c-.98 0-1.12.6-1.12 1.15v6.3h.1l4.44-5.9c.26-.35.62-.85.62-1.15 0-.25-.2-.4-.86-.4h-.27l.05-.25h3.87M770.06 288.54h-3.1v-.17c.82-.05 1.06-.3 1.06-.9v-5.08c0-.4-.1-.56-.34-.56-.1 0-.3.06-.5.14l-.3.1v-.15l2-1.03.1.04v6.74c0 .48.24.7 1.08.7v.16M769.8 294.25c0 2.24-1.76 4.87-4.6 4.87-1.7 0-2.87-1.08-2.87-2.63 0-2.3 1.78-5.06 4.66-5.06 1.88 0 2.8 1.4 2.8 2.8m-1.3-.25c0-1.2-.46-2.14-1.6-2.14-2.62 0-3.2 3.53-3.2 5.14 0 1.1.7 1.7 1.58 1.7 2.4 0 3.2-3.1 3.2-4.7" fill="#303f49"/><path d="M720 316a6 6 0 0 1 6-6h68a6 6 0 0 1 6 6v28a6 6 0 0 1-6 6h-68a6 6 0 0 1-6-6z" stroke="#3a414a" fill="#cfe4ff"/><use xlink:href="#k" transform="matrix(1,0,0,1,725,315) translate(12.996419270833336 22.225477430555554)"/><path d="M747.14 320.2h25.72v22.3h-25.72z" fill="#fff" fill-opacity="0"/><path d="M764.72 324.96l-.07.25c-1.05.06-1.74.72-2.13 1.24l-7 9.2h-.46v-7.06h-.18l-4.74 7.06h-.46v-9.1c0-.86-.53-1.33-1.42-1.33h-.16l.06-.24h4.6l-.07.25h-.12c-.62 0-1.2 0-1.2 1.15v6.02h.07l3.6-5.3v-.98c0-.5-.3-.9-1.3-.9h-.13l.06-.24h4.56l-.07.25h-.3c-.98 0-1.12.6-1.12 1.16v6.3h.1l4.44-5.9c.26-.35.62-.84.62-1.15 0-.24-.2-.4-.86-.4h-.27l.05-.24h3.87M770.97 328.33l-.62 1.55h-4.4v-.14l2-2.13c1.06-1.1 1.47-1.97 1.47-2.93 0-1.03-.6-1.6-1.57-1.6-.8 0-1.2.37-1.66 1.48l-.25-.06c.24-1.33.96-2.26 2.35-2.26 1.28 0 2.1.87 2.1 2 0 .88-.45 1.73-1.46 2.8l-1.86 1.98h2.64c.48 0 .7-.13 1.1-.76M769.8 335.6c0 2.23-1.76 4.86-4.6 4.86-1.7 0-2.87-1.08-2.87-2.63 0-2.3 1.78-5.05 4.66-5.05 1.88 0 2.8 1.4 2.8 2.8m-1.3-.25c0-1.2-.46-2.13-1.6-2.13-2.62 0-3.2 3.53-3.2 5.14 0 1.1.7 1.7 1.58 1.7 2.4 0 3.2-3.1 3.2-4.7" fill="#303f49"/><path d="M110 486a6 6 0 0 1 6-6h68a6 6 0 0 1 6 6v28a6 6 0 0 1-6 6h-68a6 6 0 0 1-6-6z" stroke="#3a414a" fill="#e3fae3"/><use xlink:href="#l" transform="matrix(1,0,0,1,115,485) translate(27.66547309027778 22.287977430555554)"/><path d="M200 486a6 6 0 0 1 6-6h28a6 6 0 0 1 6 6v28a6 6 0 0 1-6 6h-28a6 6 0 0 1-6-6z" stroke="#3a414a" fill="#ffdda6"/><use xlink:href="#m" transform="matrix(1,0,0,1,205,485) translate(-7.003580729166664 21.504991319444443)"/><path d="M143.53 492.9h12.94v14.2h-12.94z" fill="#fff" fill-opacity="0"/><path d="M156.46 494.63l-.06.25h-.06c-1.1 0-1.57.5-2.16 1.2l-3 3.4 1.55 4.23c.2.56.46 1.1 1.26 1.1h.2l-.05.26h-4.5l.07-.26h.18c.6 0 1.07-.06 1.07-.65 0-.13-.02-.26-.06-.42l-1.1-3.1-2.9 3.2c-.13.17-.18.32-.18.46 0 .3.3.5.9.5h.35l-.07.26h-3.97l.06-.26c.85-.1 1.64-.6 2.23-1.23l3.32-3.67-1.36-3.7c-.18-.5-.46-1.32-1.64-1.32h-.14l.06-.25H151l-.06.25h-.3c-.48 0-.84.07-.84.56 0 .13.04.27.1.45l.96 2.85 2.62-2.94c.14-.17.24-.36.24-.53-.02-.26-.2-.4-.72-.4h-.15l.07-.24h3.54" fill="#303f49"/><path d="M212.64 492.9h19.73v19.26h-19.73z" fill="#fff" fill-opacity="0"/><path d="M213.97 509.93l2.62-1.7c-1.84-.28-3.16-1.58-3.16-3.7 0-3.24 3-7.1 7.06-7.1 2.33 0 3.8 1.48 3.8 3.95 0 3.26-3 6.87-6.9 6.87l-1.02.7.06.07c.26-.05.48-.07.7-.07 1.03 0 2.5.55 3.9.55.62 0 1.38-.2 2.17-1.06l.22.18c-.94 1.16-2.06 1.9-3.94 1.9-.85 0-1.68-.13-2.27-.26-.8-.17-1.65-.43-2.13-.43-.13 0-.5.08-.93.3m8.28-9.5c0-2.1-1.04-2.6-2.08-2.6-3.55 0-4.98 5.05-4.98 7.25 0 1.55.8 2.38 2.1 2.38 3.45 0 4.95-4.52 4.95-7.03M229.56 502.3h-3.1v-.16c.82-.04 1.06-.28 1.06-.9v-5.07c0-.4-.1-.56-.34-.56-.1 0-.3.07-.5.15l-.3.1v-.15l2-1.02.1.03v6.75c0 .5.24.7 1.08.7v.16" fill="#303f49"/><path d="M110 626a6 6 0 0 1 6-6h68a6 6 0 0 1 6 6v28a6 6 0 0 1-6 6h-68a6 6 0 0 1-6-6z" stroke="#3a414a" fill="#e3fae3"/><use xlink:href="#l" transform="matrix(1,0,0,1,115.00000000000006,625) translate(27.66547309027778 22.287977430555554)"/><path d="M200 626a6 6 0 0 1 6-6h28a6 6 0 0 1 6 6v28a6 6 0 0 1-6 6h-28a6 6 0 0 1-6-6z" stroke="#3a414a" fill="#ffdda6"/><use xlink:href="#m" transform="matrix(1,0,0,1,205.00000000000006,625) translate(-7.003580729166664 21.504991319444443)"/><path d="M143.53 632.9h12.94v14.2h-12.94z" fill="#fff" fill-opacity="0"/><path d="M156.46 634.63l-.06.25h-.06c-1.1 0-1.57.5-2.16 1.2l-3 3.4 1.55 4.23c.2.56.46 1.1 1.26 1.1h.2l-.05.26h-4.5l.07-.26h.18c.6 0 1.07-.06 1.07-.65 0-.13-.02-.26-.06-.42l-1.1-3.1-2.9 3.2c-.13.17-.18.32-.18.46 0 .3.3.5.9.5h.35l-.07.26h-3.97l.06-.26c.85-.1 1.64-.6 2.23-1.23l3.32-3.67-1.36-3.7c-.18-.5-.46-1.32-1.64-1.32h-.14l.06-.25H151l-.06.25h-.3c-.48 0-.84.07-.84.56 0 .13.04.27.1.45l.96 2.85 2.62-2.94c.14-.17.24-.36.24-.53-.02-.26-.2-.4-.72-.4h-.15l.07-.24h3.54" fill="#303f49"/><path d="M212.64 632.9h20.26v17.24h-20.26z" fill="#fff" fill-opacity="0"/><path d="M225.45 637.66l-.06.26c-.83 0-1.26.32-1.93.84l-4.33 3.37 3 4.44c.45.7.98 1.26 2.02 1.26l-.07.26h-4.6l.07-.26h.18c.44 0 .75-.1.75-.53 0-.25-.13-.34-.26-.55l-2.5-3.8h-.05l-1 3.9c-.03.12-.05.23-.05.35 0 .38.3.63 1.25.63h.27l-.07.26h-4.85l.06-.26h.3c.96 0 1.23-.56 1.34-1l1.87-7.53c.12-.42.17-.44.17-.78 0-.35-.26-.6-1.22-.6h-.28l.06-.26h4.98l-.05.26h-.17c-1.2 0-1.4.43-1.55 1l-.85 3.33h.08l4.5-3.53c.16-.13.3-.26.3-.47-.03-.22-.15-.33-.82-.33l.06-.26h3.45M230.1 642.3h-3.13v-.16c.84-.04 1.07-.28 1.07-.9v-5.07c0-.4-.1-.56-.33-.56-.1 0-.3.07-.5.15l-.3.1v-.15l2-1.02.12.03v6.75c0 .5.22.7 1.07.7v.16" fill="#303f49"/><path d="M430 488a6 6 0 0 1 6-6h68a6 6 0 0 1 6 6v28a6 6 0 0 1-6 6h-68a6 6 0 0 1-6-6z" stroke="#3a414a" fill="#e3fae3"/><use xlink:href="#l" transform="matrix(1,0,0,1,435,487) translate(27.66547309027778 22.287977430555554)"/><path d="M520 488a6 6 0 0 1 6-6h28a6 6 0 0 1 6 6v28a6 6 0 0 1-6 6h-28a6 6 0 0 1-6-6z" stroke="#3a414a" fill="#ffdda6"/><use xlink:href="#m" transform="matrix(1,0,0,1,525,487) translate(-7.003580729166664 21.504991319444443)"/><path d="M463.53 494.9h12.94v14.2h-12.94z" fill="#fff" fill-opacity="0"/><path d="M476.46 496.63l-.06.25h-.06c-1.1 0-1.57.5-2.16 1.2l-3 3.4 1.55 4.23c.2.56.46 1.1 1.26 1.1h.2l-.05.26h-4.5l.08-.26h.17c.6 0 1.07-.06 1.07-.65 0-.13-.02-.26-.06-.42l-1.1-3.1-2.9 3.2c-.13.17-.18.32-.18.46 0 .3.3.5.9.5h.35l-.07.26h-3.97l.06-.26c.85-.1 1.64-.6 2.23-1.23l3.32-3.67-1.36-3.7c-.18-.5-.46-1.32-1.64-1.32h-.14l.06-.25H471l-.06.25h-.3c-.48 0-.84.07-.84.56 0 .13.04.27.1.45l.96 2.85 2.62-2.94c.14-.17.24-.36.24-.53-.02-.26-.2-.4-.72-.4h-.14l.06-.24h3.54" fill="#303f49"/><path d="M532.64 492.9h20.28v17.24h-20.28z" fill="#fff" fill-opacity="0"/><path d="M544.78 497.66l-.07.26c-1.02.06-1.68.68-2.1 1.23l-7.04 9.2h-.38v-9.12c0-.93-.6-1.3-1.58-1.3l.06-.27h4.7l-.07.26h-.3c-1.05 0-1.13.6-1.13 1.12v6.24l.07.02 4.47-5.85c.3-.38.62-.85.62-1.18 0-.24-.23-.35-.84-.35h-.3l.05-.26h3.85M550.12 502.3H547v-.16c.84-.04 1.08-.28 1.08-.9v-5.07c0-.4-.1-.56-.34-.56-.1 0-.3.07-.5.15l-.3.1v-.15l2-1.02.1.03v6.75c0 .5.23.7 1.08.7v.16" fill="#303f49"/><path d="M200 396a6 6 0 0 1 6-6h28a6 6 0 0 1 6 6v68a6 6 0 0 1-6 6h-28a6 6 0 0 1-6-6z" stroke="#3a414a" fill="#ffdda6"/><use xlink:href="#h" transform="matrix(1,0,0,1,205,394.99999999999994) translate(-7.003580729166664 41.50499131944444)"/><path d="M209.46 424.2h25.72v23.32h-25.72z" fill="#fff" fill-opacity="0"/><path d="M227.04 428.97l-.06.25c-1.06.05-1.74.7-2.14 1.23l-7 9.2h-.46v-7.06h-.18l-4.74 7.05H212v-9.08c0-.88-.53-1.35-1.42-1.35h-.16l.06-.25h4.6l-.06.25h-.12c-.62 0-1.2 0-1.2 1.14v6.02h.07l3.6-5.3v-.98c0-.5-.3-.88-1.3-.88h-.13l.07-.25h4.56l-.07.25h-.3c-.98 0-1.13.6-1.13 1.15v6.3h.1l4.44-5.9c.28-.35.65-.84.65-1.15 0-.25-.2-.4-.87-.4h-.27l.08-.25h3.86M232.38 433.9h-3.1v-.18c.82-.05 1.06-.3 1.06-.9v-5.08c0-.38-.1-.55-.34-.55-.1 0-.3.05-.5.13l-.3.1v-.15l2-1.03.1.04v6.73c0 .48.24.7 1.08.7v.16M225.02 445.6l1.85-1.2c-1.28-.2-2.22-1.1-2.22-2.6 0-2.3 2.12-5.02 5-5.02 1.64 0 2.7 1.04 2.7 2.8 0 2.3-2.13 4.85-4.9 4.85l-.72.48.04.07c.18-.04.34-.05.5-.05.72 0 1.77.4 2.75.4.44 0 .98-.16 1.54-.76l.15.13c-.66.8-1.45 1.33-2.78 1.33-.6 0-1.2-.1-1.6-.18-.57-.12-1.18-.3-1.52-.3-.1 0-.35.05-.65.2m5.85-6.7c0-1.5-.74-1.85-1.47-1.85-2.5 0-3.52 3.57-3.52 5.13 0 1.1.58 1.68 1.5 1.68 2.44 0 3.5-3.2 3.5-4.96" fill="#303f49"/><path d="M200 536a6 6 0 0 1 6-6h28a6 6 0 0 1 6 6v68a6 6 0 0 1-6 6h-28a6 6 0 0 1-6-6z" stroke="#3a414a" fill="#ffdda6"/><use xlink:href="#h" transform="matrix(1,0,0,1,205.00000000000006,535) translate(-7.003580729166664 41.50499131944444)"/><path d="M209.46 564.2h25.72v21.3h-25.72z" fill="#fff" fill-opacity="0"/><path d="M227.04 568.97l-.06.25c-1.06.05-1.74.7-2.14 1.23l-7 9.2h-.46v-7.06h-.18l-4.74 7.05H212v-9.08c0-.88-.53-1.35-1.42-1.35h-.16l.06-.25h4.6l-.06.25h-.12c-.62 0-1.2 0-1.2 1.14v6.02h.07l3.6-5.3v-.98c0-.5-.3-.88-1.3-.88h-.13l.07-.25h4.56l-.07.25h-.3c-.98 0-1.13.6-1.13 1.15v6.3h.1l4.44-5.9c.28-.35.65-.84.65-1.15 0-.25-.2-.4-.87-.4h-.27l.08-.25h3.86M232.38 573.9h-3.1v-.18c.82-.05 1.06-.3 1.06-.9v-5.08c0-.38-.1-.55-.34-.55-.1 0-.3.05-.5.13l-.3.1v-.15l2-1.03.1.04v6.73c0 .48.24.7 1.08.7v.16M233.14 576.8l-.04.18c-.58 0-.88.22-1.36.6l-3.06 2.38 2.1 3.14c.34.48.7.9 1.45.9l-.05.17h-3.24l.05-.18h.1c.33 0 .54-.07.54-.38 0-.18-.1-.25-.18-.4l-1.76-2.67h-.05l-.7 2.74-.03.24c0 .27.22.45.88.45h.2l-.05.17h-3.44l.06-.18h.2c.68 0 .87-.4.95-.7l1.33-5.34c.08-.3.12-.32.12-.55 0-.24-.2-.42-.86-.42h-.22l.05-.18h3.52l-.04.18h-.12c-.84 0-1 .3-1.1.7l-.6 2.36h.07l3.18-2.5c.1-.1.2-.18.2-.32 0-.16-.1-.24-.57-.24l.04-.18h2.44" fill="#303f49"/><path d="M520 398a6 6 0 0 1 6-6h28a6 6 0 0 1 6 6v68a6 6 0 0 1-6 6h-28a6 6 0 0 1-6-6z" stroke="#3a414a" fill="#ffdda6"/><use xlink:href="#h" transform="matrix(1,0,0,1,525,397) translate(-7.003580729166664 41.50499131944444)"/><path d="M529.46 426.2h25.72v21.3h-25.72z" fill="#fff" fill-opacity="0"/><path d="M547.04 430.97l-.06.25c-1.06.05-1.74.7-2.14 1.23l-7 9.2h-.46v-7.06h-.18l-4.74 7.05H532v-9.08c0-.88-.53-1.35-1.42-1.35h-.16l.06-.25h4.6l-.06.25h-.12c-.62 0-1.2 0-1.2 1.14v6.02h.07l3.6-5.3v-.98c0-.5-.3-.88-1.3-.88h-.13l.07-.25h4.56l-.07.25h-.3c-.98 0-1.13.6-1.13 1.15v6.3h.1l4.44-5.9c.28-.35.65-.84.65-1.15 0-.25-.2-.4-.87-.4h-.27l.08-.25h3.86M552.38 435.9h-3.1v-.18c.82-.05 1.06-.3 1.06-.9v-5.08c0-.38-.1-.55-.34-.55-.1 0-.3.05-.5.13l-.3.1v-.15l2-1.03.1.04v6.73c0 .48.24.7 1.08.7v.16M553.14 438.8l-.04.18c-.58 0-.88.22-1.36.6l-3.06 2.38 2.1 3.14c.34.48.7.9 1.45.9l-.05.17h-3.24l.05-.18h.1c.33 0 .54-.07.54-.38 0-.18-.1-.25-.18-.4l-1.76-2.67h-.05l-.7 2.74-.03.24c0 .27.22.45.88.45h.2l-.05.17h-3.44l.06-.18h.2c.68 0 .87-.4.95-.7l1.33-5.34c.08-.3.12-.3.12-.55 0-.24-.18-.42-.86-.42h-.2l.03-.18h3.52l-.04.18h-.12c-.84 0-1 .3-1.1.7l-.6 2.36h.07l3.18-2.5c.1-.1.2-.18.2-.32 0-.16-.1-.24-.57-.24l.04-.18h2.44" fill="#303f49"/><path d="M402 641c0 14.37-11.64 26-26 26s-26-11.63-26-26c0-14.35 11.64-26 26-26s26 11.65 26 26z" stroke="#3a414a" fill="#fff"/><path d="M241 500h129a6 6 0 0 1 6 6v92.13" stroke="#3a414a" fill="none"/><path d="M241 500.5h-.5v-1h.5z" stroke="#3a414a" stroke-width=".05" fill="#3a414a"/><path d="M376 612.9l-4.63-14.27h9.26z" stroke="#3a414a" fill="#3a414a"/><path d="M351.42 628.85h49.16v22.3h-49.16z" fill="#fff" fill-opacity="0"/><path d="M352.75 648.9l2.62-1.7c-1.82-.27-3.15-1.56-3.15-3.67 0-3.25 3-7.1 7.06-7.1 2.33 0 3.82 1.47 3.82 3.94 0 3.26-3 6.87-6.92 6.87l-1.02.68.06.08c.26-.04.48-.06.7-.06 1.03 0 2.5.54 3.9.54.63 0 1.38-.2 2.18-1.05l.2.18c-.94 1.17-2.06 1.9-3.94 1.9-.85 0-1.68-.12-2.27-.25-.8-.18-1.67-.43-2.15-.43-.13 0-.5.08-.93.3m8.28-9.5c0-2.1-1.04-2.6-2.08-2.6-3.55 0-4.98 5.04-4.98 7.25 0 1.55.8 2.38 2.1 2.38 3.45 0 4.96-4.52 4.96-7.03M368.34 641.3h-3.1v-.17c.82-.05 1.06-.28 1.06-.9v-5.08c0-.38-.1-.55-.34-.55-.1 0-.3.06-.5.14l-.3.1v-.15l2-1.04.1.04v6.74c0 .48.24.7 1.08.7v.16M383.95 636.65l-.06.25c-.83 0-1.26.33-1.93.85l-4.33 3.37 3 4.44c.45.7.98 1.26 2.02 1.26l-.06.26H378l.08-.26h.17c.45 0 .75-.08.75-.53 0-.26-.13-.36-.25-.56l-2.5-3.8h-.06l-1 3.9c-.03.12-.05.23-.05.34 0 .4.3.64 1.25.64h.27l-.06.26h-4.85l.07-.26h.28c.96 0 1.23-.56 1.34-1l1.87-7.53c.13-.44.17-.45.17-.8 0-.34-.25-.6-1.2-.6h-.3l.07-.25h4.98l-.07.25h-.17c-1.2 0-1.4.44-1.55 1l-.85 3.33h.08l4.5-3.53c.17-.12.3-.25.3-.46-.02-.22-.15-.34-.82-.34l.06-.25h3.45M388.6 641.3h-3.12v-.17c.83-.05 1.07-.28 1.07-.9v-5.08c0-.38-.1-.55-.34-.55-.1 0-.3.06-.5.14l-.3.1v-.15l2.02-1.04.1.04v6.74c0 .48.23.7 1.07.7v.16M398.96 630.63l-.52 2.02h-.18c.02-.2.06-.5.06-.8 0-.74-.66-.8-1.12-.8h-1.1l-1.5 6.08c-.03.1-.07.18-.07.28 0 .25.18.43.86.43h.23l-.05.18h-3.7l.03-.17h.22c.88 0 1.1-.32 1.2-.7l1.5-6.08h-1.03c-.95 0-1.74.7-1.94 1.6h-.18l.52-2.02h6.76" fill="#303f49"/><path d="M564 620c8.84 0 16 8.95 16 20s-7.16 20-16 20h-48c-8.84 0-16-8.95-16-20s7.16-20 16-20z" stroke="#3a414a" fill="#fff"/><use xlink:href="#n" transform="matrix(1,0,0,1,505,625) translate(6.99544270833335 18.60026041666666)"/><path d="M241 640l92.12.86" stroke="#3a414a" stroke-linejoin="round" fill="none"/><path d="M241.02 639.5v1h-.52v-1z" stroke="#3a414a" stroke-width=".05" fill="#3a414a"/><path d="M347.88 641l-14.3 4.5.08-9.27z" stroke="#3a414a" fill="#3a414a"/><path d="M403 641h80.15" stroke="#3a414a" stroke-linejoin="round" fill="none"/><path d="M403 641.5h-.55l.05-.47v-.52h.5z" stroke="#3a414a" stroke-width=".05" fill="#3a414a"/><path d="M497.92 641l-14.27 4.65v-9.27z" stroke="#3a414a" fill="#3a414a"/><path d="M566 570.1c0 14.36-11.64 26-26 26s-26-11.64-26-26 11.64-26 26-26 26 11.64 26 26z" stroke="#3a414a" fill="#fff"/><path d="M540 523v4.2" stroke="#3a414a" stroke-linejoin="round" fill="none"/><path d="M540.5 523h-1v-.5h1z" stroke="#3a414a" stroke-width=".05" fill="#3a414a"/><path d="M540 541.98l-4.63-14.27h9.26z" stroke="#3a414a" fill="#3a414a"/><path d="M523.7 561.47H563v17.25h-39.3z" fill="#fff" fill-opacity="0"/><path d="M526.9 566.24h4.34c2.72 0 3.7 1.38 3.7 2.56 0 1.56-1.3 3.18-4.55 3.18-.45 0-.8-.02-1.2-.08-.07 0-.12-.02-.18-.04l-.9 3.56c-.02.13-.04.25-.04.37 0 .38.3.62 1.23.62h.52l-.06.25h-5.45l.07-.25h.28c1.23 0 1.55-.45 1.7-1l2-7.93c.02-.14.05-.28.05-.4 0-.35-.27-.6-1.25-.6h-.3m3.42.38l-1.1 4.38c.27.06.65.13.97.13 1.63 0 2.9-1.13 2.9-2.76 0-.96-.47-1.8-2-1.8-.26 0-.5 0-.77.04M539.92 570.9h-3.12v-.18c.84-.05 1.08-.28 1.08-.9v-5.07c0-.4-.1-.55-.34-.55-.1 0-.3.05-.5.13l-.3.1v-.14l2-1.04.1.03v6.73c0 .5.23.7 1.08.7v.16M554.86 566.24l-.06.26c-1.04.06-1.7.68-2.1 1.23l-7.06 9.2h-.38v-9.12c0-.92-.6-1.3-1.58-1.3l.07-.26h4.7l-.07.26h-.3c-1.05 0-1.13.6-1.13 1.12v6.24l.07.02 4.47-5.85c.3-.38.6-.85.6-1.18 0-.24-.23-.35-.83-.35h-.32l.06-.26h3.86M560.2 570.9h-3.1v-.18c.82-.05 1.06-.28 1.06-.9v-5.07c0-.4-.1-.55-.34-.55-.1 0-.3.05-.5.13l-.3.1v-.14l2-1.04.1.03v6.73c0 .5.24.7 1.08.7v.16" fill="#303f49"/><path d="M690 556a6 6 0 0 1 6-6h28a6 6 0 0 1 6 6v28a6 6 0 0 1-6 6h-28a6 6 0 0 1-6-6z" stroke="#3a414a" fill="#ffdda6"/><use xlink:href="#o" transform="matrix(1,0,0,1,695,555.0000000000001) translate(-7.003580729166664 22.004991319444443)"/><path d="M740 556a6 6 0 0 1 6-6h68a6 6 0 0 1 6 6v28a6 6 0 0 1-6 6h-68a6 6 0 0 1-6-6z" stroke="#3a414a" fill="#ffdda6"/><use xlink:href="#p" transform="matrix(1,0,0,1,744.9990460052818,555.0000000000001) translate(13.496419270833336 22.225477430555554)"/><path d="M821 570h32.12" stroke="#3a414a" stroke-linejoin="round" fill="none"/><path d="M821 570.5h-.5v-1h.5z" stroke="#3a414a" stroke-width=".05" fill="#3a414a"/><path d="M867.88 570l-14.26 4.63v-9.26z" stroke="#3a414a" fill="#3a414a"/><path d="M700 561.88h20.2v17.25H700z" fill="#fff" fill-opacity="0"/><path d="M712.8 566.65l-9.03 9.82h3.48c1.5 0 2.9-.17 3.47-2.23h.25l-.73 2.84h-9.28l9.15-9.84h-3.22c-1.53 0-2.95.1-3.56 1.93h-.27l.77-2.52h9M717.4 571.3h-3.12v-.17c.84-.05 1.08-.28 1.08-.9v-5.07c0-.4-.1-.56-.34-.56-.12 0-.3.06-.5.14l-.3.1v-.15l2-1.04.1.04v6.74c0 .48.23.7 1.08.7v.16" fill="#303f49"/><path d="M740 506a6 6 0 0 1 6-6h68a6 6 0 0 1 6 6v28a6 6 0 0 1-6 6h-68a6 6 0 0 1-6-6z" stroke="#3a414a" fill="#ffdda6"/><use xlink:href="#q" transform="matrix(1,0,0,1,745,505) translate(12.996419270833336 22.225477430555554)"/><path d="M767.14 509.1h25.72v22.32h-25.72z" fill="#fff" fill-opacity="0"/><path d="M784.72 513.88l-.07.26c-1.05.04-1.74.7-2.14 1.23l-6.98 9.2h-.46v-7.06h-.18l-4.74 7.07h-.47v-9.1c0-.87-.52-1.33-1.42-1.33h-.16l.06-.26h4.6l-.07.26h-.12c-.62 0-1.2 0-1.2 1.13v6.02h.07l3.6-5.3v-1c0-.48-.3-.86-1.3-.86h-.13l.06-.26h4.55l-.06.26h-.3c-.98 0-1.12.6-1.12 1.15v6.3h.1l4.43-5.9c.28-.37.64-.86.64-1.16 0-.26-.2-.4-.86-.4h-.27l.05-.26h3.87M790.06 518.8h-3.1v-.17c.82-.04 1.06-.28 1.06-.9v-5.07c0-.4-.1-.55-.34-.55-.1 0-.3.06-.5.14l-.3.1v-.14l2-1.03.1.03v6.74c0 .5.23.7 1.08.7v.16M789.8 524.52c0 2.23-1.76 4.86-4.62 4.86-1.68 0-2.85-1.08-2.85-2.63 0-2.3 1.78-5.04 4.66-5.04 1.88 0 2.8 1.4 2.8 2.82m-1.3-.26c0-1.2-.46-2.14-1.6-2.14-2.62 0-3.2 3.54-3.2 5.14 0 1.1.7 1.7 1.57 1.7 2.4 0 3.22-3.1 3.22-4.7" fill="#303f49"/><path d="M772.1 560.94h15.8v16.24h-15.8z" fill="#fff" fill-opacity="0"/><path d="M783.2 562.68l-.07.25c-.87.07-1.48.5-1.98 1.1l-3.33 4.1-.95 3.73c-.03.14-.04.24-.04.4 0 .35.28.6 1.2.6h.33l-.06.25h-5.24l.06-.25h.27c1.22 0 1.54-.45 1.67-1l.97-3.92-1.42-3.78c-.27-.72-.73-1.22-1.96-1.22l.06-.25h4.78l-.07.25h-.3c-.8 0-.93.24-.93.64 0 .14.08.32.12.43l1.2 3.3h.06l2.78-3.38c.2-.24.25-.37.25-.54 0-.3-.32-.45-1.25-.45l.06-.25h3.8M785.1 575.5h-3.12v-.17c.83-.04 1.07-.28 1.07-.9v-5.07c0-.38-.1-.56-.34-.56-.1 0-.3.06-.5.14l-.3.1v-.14l2.02-1.03.1.03v6.74c0 .5.23.7 1.07.7v.16" fill="#303f49"/><path d="M567 570.1l106.12-.1" stroke="#3a414a" stroke-linejoin="round" fill="none"/><path d="M567 570.6h-.55l.05-.48v-.52h.5z" stroke="#3a414a" stroke-width=".05" fill="#3a414a"/><path d="M687.88 570l-14.26 4.65v-9.27z" stroke="#3a414a" fill="#3a414a"/><path d="M540 619v-6.02" stroke="#3a414a" stroke-linejoin="round" fill="none"/><path d="M540.5 619.5h-1v-.5h1z" stroke="#3a414a" stroke-width=".05" fill="#3a414a"/><path d="M540 598.22l4.63 14.26h-9.26z" stroke="#3a414a" fill="#3a414a"/><path d="M10 688.96a6 6 0 0 1 6-6h100.94a6 6 0 0 1 6 6v18.38a6 6 0 0 1-6 6H16a6 6 0 0 1-6-6z" stroke="#000" stroke-opacity="0" fill="#fff" fill-opacity="0"/><use xlink:href="#a" transform="matrix(1,0,0,1,15.000000000000057,687.9571206744181) translate(0 19.812934027777775)"/><use xlink:href="#r" transform="matrix(1,0,0,1,15.000000000000057,687.9571206744181) translate(66.6775173611111 19.812934027777775)"/><path d="M110 798.96a6 6 0 0 1 6-6h68a6 6 0 0 1 6 6v28a6 6 0 0 1-6 6h-68a6 6 0 0 1-6-6z" stroke="#3a414a" fill="#e3fae3"/><use xlink:href="#s" transform="matrix(1,0,0,1,115.00000000000006,797.9571206744184) translate(27.66547309027778 22.287977430555554)"/><path d="M240 798.96a6 6 0 0 1 6-6h28a6 6 0 0 1 6 6v28a6 6 0 0 1-6 6h-28a6 6 0 0 1-6-6z" stroke="#3a414a" fill="#cfe4ff"/><use xlink:href="#t" transform="matrix(1,0,0,1,244.9999999999999,797.9571206744184) translate(-7.003580729166664 21.504991319444443)"/><path d="M143.53 805.85h12.94v14.22h-12.94z" fill="#fff" fill-opacity="0"/><path d="M156.46 807.6l-.06.24h-.06c-1.1 0-1.57.5-2.16 1.18l-3 3.4 1.55 4.25c.2.55.46 1.1 1.26 1.1h.2l-.05.24h-4.5l.07-.24h.18c.6 0 1.07-.07 1.07-.66 0-.13-.02-.25-.06-.4l-1.1-3.1-2.9 3.2c-.13.16-.18.3-.18.45 0 .3.3.5.9.5h.35l-.07.26h-3.97l.06-.24c.85-.1 1.64-.6 2.23-1.23l3.32-3.67-1.36-3.7c-.18-.5-.46-1.32-1.64-1.32h-.14l.06-.25H151l-.06.24h-.3c-.48 0-.84.06-.84.56 0 .13.04.27.1.45l.96 2.86 2.62-2.93c.14-.18.24-.37.24-.55-.02-.25-.2-.38-.72-.38h-.15l.07-.25h3.54" fill="#303f49"/><path d="M252.64 805.85h19.73v19.27h-19.73z" fill="#fff" fill-opacity="0"/><path d="M253.97 822.88l2.62-1.7c-1.84-.28-3.16-1.57-3.16-3.68 0-3.26 3-7.1 7.06-7.1 2.33 0 3.8 1.47 3.8 3.94 0 3.26-3 6.87-6.9 6.87l-1.02.7.06.07c.26-.04.48-.06.7-.06 1.03 0 2.5.55 3.9.55.62 0 1.38-.2 2.17-1.05l.22.17c-.94 1.17-2.06 1.9-3.94 1.9-.85 0-1.68-.12-2.27-.25-.8-.18-1.65-.43-2.13-.43-.13 0-.5.07-.93.28m8.28-9.5c0-2.1-1.04-2.6-2.08-2.6-3.55 0-4.98 5.05-4.98 7.26 0 1.55.8 2.38 2.1 2.38 3.45 0 4.96-4.52 4.96-7.03M270.46 813.72l-.6 1.55h-4.42v-.14l2-2.13c1.07-1.12 1.48-1.98 1.48-2.94 0-1.03-.6-1.6-1.57-1.6-.8 0-1.2.37-1.66 1.48l-.25-.06c.24-1.32.96-2.25 2.35-2.25 1.28 0 2.1.87 2.1 2 0 .88-.45 1.73-1.46 2.8l-1.86 1.98h2.64c.48 0 .7-.12 1.1-.75" fill="#303f49"/><path d="M110 938.96a6 6 0 0 1 6-6h68a6 6 0 0 1 6 6v28a6 6 0 0 1-6 6h-68a6 6 0 0 1-6-6z" stroke="#3a414a" fill="#e3fae3"/><use xlink:href="#s" transform="matrix(1,0,0,1,115.00000000000011,937.9571206744183) translate(27.66547309027778 22.287977430555554)"/><path d="M240 938.96a6 6 0 0 1 6-6h28a6 6 0 0 1 6 6v28a6 6 0 0 1-6 6h-28a6 6 0 0 1-6-6z" stroke="#3a414a" fill="#cfe4ff"/><use xlink:href="#u" transform="matrix(1,0,0,1,244.9999999999999,937.9571206744183) translate(0.33094618055555713 22.225477430555554)"/><path d="M143.53 945.85h12.94v14.22h-12.94z" fill="#fff" fill-opacity="0"/><path d="M156.46 947.6l-.06.24h-.06c-1.1 0-1.57.5-2.16 1.18l-3 3.4 1.55 4.25c.2.55.46 1.1 1.26 1.1h.2l-.05.24h-4.5l.07-.24h.18c.6 0 1.07-.07 1.07-.66 0-.13-.02-.25-.06-.4l-1.1-3.1-2.9 3.2c-.13.16-.18.3-.18.45 0 .3.3.5.9.5h.35l-.07.26h-3.97l.06-.24c.85-.1 1.64-.6 2.23-1.23l3.32-3.67-1.36-3.7c-.18-.5-.46-1.32-1.64-1.32h-.14l.06-.25H151l-.06.24h-.3c-.48 0-.84.06-.84.56 0 .13.04.27.1.45l.96 2.86 2.62-2.93c.14-.18.24-.37.24-.55-.02-.25-.2-.38-.72-.38h-.15l.07-.25h3.54" fill="#303f49"/><path d="M252.64 945.85h20.26v17.25h-20.26z" fill="#fff" fill-opacity="0"/><path d="M265.45 950.62l-.06.25c-.83 0-1.26.32-1.93.85l-4.33 3.37 3 4.43c.45.7.98 1.26 2 1.26l-.05.25h-4.6l.07-.26h.18c.44 0 .75-.1.75-.53 0-.26-.13-.36-.26-.56l-2.5-3.78h-.05l-1 3.88c-.03.13-.05.24-.05.35 0 .4.3.64 1.25.64h.27l-.07.25h-4.85l.06-.26h.3c.96 0 1.23-.57 1.34-1l1.87-7.54c.12-.43.17-.44.17-.78 0-.35-.26-.6-1.22-.6h-.28l.06-.26h4.98l-.05.25h-.18c-1.2 0-1.4.44-1.54 1l-.85 3.33h.08l4.5-3.53c.16-.13.3-.25.3-.46-.03-.2-.15-.33-.82-.33l.06-.25h3.45M271 953.72l-.62 1.55h-4.4v-.14l2-2.13c1.06-1.12 1.46-1.98 1.46-2.94 0-1.03-.6-1.6-1.56-1.6-.82 0-1.2.37-1.66 1.48l-.24-.06c.24-1.32.96-2.25 2.35-2.25 1.27 0 2.1.87 2.1 2 0 .88-.45 1.73-1.46 2.8l-1.86 1.98h2.65c.47 0 .7-.12 1.08-.75" fill="#303f49"/><path d="M429.5 800.96a6 6 0 0 1 6-6h68a6 6 0 0 1 6 6v28a6 6 0 0 1-6 6h-68a6 6 0 0 1-6-6z" stroke="#3a414a" fill="#e3fae3"/><use xlink:href="#s" transform="matrix(1,0,0,1,434.49600819710736,799.9571206744185) translate(27.66547309027778 22.287977430555554)"/><path d="M519.5 800.96a6 6 0 0 1 6-6h28a6 6 0 0 1 6 6v28a6 6 0 0 1-6 6h-28a6 6 0 0 1-6-6z" stroke="#3a414a" fill="#cfe4ff"/><use xlink:href="#u" transform="matrix(1,0,0,1,524.4960081971074,799.9571206744185) translate(0.33094618055555713 22.225477430555554)"/><path d="M463.02 807.85h12.95v14.22h-12.95z" fill="#fff" fill-opacity="0"/><path d="M475.96 809.6l-.06.24h-.07c-1.1 0-1.56.5-2.15 1.18l-3 3.4 1.54 4.25c.2.55.47 1.1 1.26 1.1h.23l-.06.24h-4.48l.06-.24h.18c.6 0 1.07-.07 1.07-.66 0-.13-.02-.25-.07-.4l-1.1-3.1-2.9 3.2c-.13.16-.18.3-.18.45 0 .3.3.5.9.5h.34l-.06.26h-3.98l.07-.24c.85-.1 1.63-.6 2.22-1.23l3.32-3.67-1.35-3.7c-.2-.5-.46-1.32-1.64-1.32h-.14l.06-.25h4.52l-.07.24h-.3c-.48 0-.83.06-.83.56 0 .13.03.27.1.45l.95 2.86 2.62-2.93c.15-.18.24-.37.24-.55 0-.25-.2-.38-.7-.38h-.15l.06-.25h3.56" fill="#303f49"/><path d="M532.14 805.85h20.28v17.25h-20.28z" fill="#fff" fill-opacity="0"/><path d="M544.27 810.62l-.06.25c-1.03.07-1.68.7-2.1 1.23l-7.04 9.2h-.38v-9.12c0-.92-.6-1.3-1.58-1.3l.06-.26h4.7l-.07.25h-.3c-1.05 0-1.13.6-1.13 1.12v6.24h.06l4.48-5.83c.3-.38.6-.84.6-1.17 0-.24-.2-.36-.82-.36h-.32l.07-.25h3.84M550.52 813.72l-.6 1.55h-4.42v-.14l2-2.13c1.07-1.12 1.47-1.98 1.47-2.94 0-1.03-.6-1.6-1.57-1.6-.8 0-1.2.37-1.66 1.48l-.23-.06c.24-1.32.97-2.25 2.36-2.25 1.27 0 2.08.87 2.08 2 0 .88-.44 1.73-1.44 2.8l-1.86 1.98h2.64c.47 0 .7-.12 1.08-.75" fill="#303f49"/><path d="M240 708.96a6 6 0 0 1 6-6h28a6 6 0 0 1 6 6v68a6 6 0 0 1-6 6h-28a6 6 0 0 1-6-6z" stroke="#3a414a" fill="#cfe4ff"/><use xlink:href="#v" transform="matrix(1,0,0,1,244.9999999999999,707.9571206744185) translate(-7.003580729166664 41.50499131944444)"/><path d="M249.46 737.15h25.72v23.32h-25.72z" fill="#fff" fill-opacity="0"/><path d="M267.04 741.92l-.06.26c-1.06.05-1.74.7-2.14 1.23l-7 9.2h-.46v-7.05h-.18l-4.74 7.06H252v-9.08c0-.88-.53-1.34-1.42-1.34h-.16l.06-.25h4.6l-.06.25h-.12c-.62 0-1.2 0-1.2 1.13v6.04h.07l3.6-5.3v-.98c0-.5-.3-.88-1.3-.88h-.13l.07-.25h4.56l-.07.25h-.3c-.98 0-1.13.6-1.13 1.15v6.3h.1l4.44-5.9c.28-.35.65-.85.65-1.15 0-.26-.2-.4-.87-.4h-.27l.08-.25h3.86M273.3 745.3l-.62 1.54h-4.42v-.13l2-2.13c1.07-1.1 1.48-1.97 1.48-2.93 0-1.03-.6-1.6-1.57-1.6-.8 0-1.2.37-1.66 1.47l-.23-.04c.24-1.32.96-2.25 2.35-2.25 1.28 0 2.1.88 2.1 2 0 .9-.45 1.74-1.45 2.8l-1.87 2h2.65c.47 0 .7-.14 1.08-.77M265.02 758.57l1.86-1.2c-1.3-.2-2.23-1.12-2.23-2.6 0-2.3 2.12-5.03 5-5.03 1.64 0 2.7 1.04 2.7 2.8 0 2.3-2.13 4.84-4.9 4.84l-.72.5.04.05c.18-.04.34-.05.5-.05.72 0 1.77.38 2.75.38.44 0 .98-.14 1.54-.74l.15.12c-.66.83-1.45 1.35-2.78 1.35-.6 0-1.2-.1-1.6-.2-.57-.12-1.18-.3-1.52-.3-.1 0-.35.06-.65.2M271 752c0-1.5-.74-1.84-1.47-1.84-2.5 0-3.52 3.57-3.52 5.12 0 1.1.58 1.7 1.5 1.7 2.44 0 3.5-3.2 3.5-4.98" fill="#303f49"/><path d="M240 848.96a6 6 0 0 1 6-6h28a6 6 0 0 1 6 6v68a6 6 0 0 1-6 6h-28a6 6 0 0 1-6-6z" stroke="#3a414a" fill="#cfe4ff"/><use xlink:href="#u" transform="matrix(1,0,0,1,244.9999999999999,847.9571206744184) translate(0.33094618055555713 42.22547743055556)"/><path d="M249.46 877.15h25.72v21.3h-25.72z" fill="#fff" fill-opacity="0"/><path d="M267.04 881.92l-.06.26c-1.06.05-1.74.7-2.14 1.23l-7 9.2h-.46v-7.05h-.18l-4.74 7.06H252v-9.08c0-.88-.53-1.34-1.42-1.34h-.16l.06-.25h4.6l-.06.25h-.12c-.62 0-1.2 0-1.2 1.13v6.04h.07l3.6-5.3v-.98c0-.5-.3-.88-1.3-.88h-.13l.07-.25h4.56l-.07.25h-.3c-.98 0-1.13.6-1.13 1.15v6.3h.1l4.44-5.9c.28-.35.65-.85.65-1.15 0-.26-.2-.4-.87-.4h-.27l.08-.25h3.86M273.3 885.3l-.62 1.54h-4.42v-.13l2-2.13c1.07-1.1 1.48-1.97 1.48-2.93 0-1.03-.6-1.6-1.57-1.6-.8 0-1.2.37-1.66 1.47l-.23-.04c.24-1.32.96-2.25 2.35-2.25 1.28 0 2.1.88 2.1 2 0 .9-.45 1.74-1.45 2.8l-1.87 2h2.65c.47 0 .7-.14 1.08-.77M273.14 889.75l-.04.2c-.58 0-.9.2-1.36.58l-3.06 2.4 2.1 3.13c.34.48.7.9 1.45.9l-.05.17h-3.24l.05-.18h.1c.33 0 .54-.06.54-.38 0-.18-.1-.24-.18-.4l-1.76-2.67h-.05l-.7 2.75-.03.25c0 .27.2.45.88.45h.2l-.05.18h-3.44l.06-.18h.2c.68 0 .87-.4.95-.7l1.33-5.33c.08-.3.12-.32.12-.55 0-.25-.2-.43-.86-.43h-.22l.05-.2h3.52l-.04.2h-.12c-.84 0-1 .3-1.1.7l-.6 2.36h.07l3.18-2.5c.1-.1.2-.18.2-.33 0-.15-.1-.23-.57-.23l.04-.2h2.44" fill="#303f49"/><path d="M519.5 710.96a6 6 0 0 1 6-6h28a6 6 0 0 1 6 6v68a6 6 0 0 1-6 6h-28a6 6 0 0 1-6-6z" stroke="#3a414a" fill="#cfe4ff"/><use xlink:href="#u" transform="matrix(1,0,0,1,524.4960081971074,709.9571206744184) translate(0.33094618055555713 42.22547743055556)"/><path d="M528.95 739.15h25.73v21.3h-25.73z" fill="#fff" fill-opacity="0"/><path d="M546.54 743.92l-.07.26c-1.05.05-1.74.7-2.14 1.23l-7 9.2h-.46v-7.05h-.17l-4.74 7.06h-.47v-9.08c0-.88-.53-1.34-1.43-1.34h-.16l.08-.25h4.6l-.07.25h-.1c-.62 0-1.2 0-1.2 1.13v6.04h.07l3.6-5.3v-.98c0-.5-.3-.88-1.3-.88h-.13l.06-.25h4.55l-.06.25h-.3c-1 0-1.13.6-1.13 1.15v6.3h.1l4.43-5.9c.27-.35.64-.85.64-1.15 0-.26-.2-.4-.86-.4h-.27l.07-.25h3.87M552.78 747.3l-.6 1.54h-4.42v-.13l2-2.13c1.07-1.1 1.48-1.97 1.48-2.93 0-1.03-.6-1.6-1.57-1.6-.82 0-1.2.37-1.66 1.47l-.23-.04c.24-1.32.96-2.25 2.35-2.25 1.27 0 2.1.88 2.1 2 0 .9-.45 1.74-1.46 2.8l-1.86 2h2.64c.48 0 .7-.14 1.1-.77M552.64 751.75l-.05.2c-.58 0-.9.2-1.36.58l-3.06 2.4 2.1 3.13c.34.48.7.9 1.44.9l-.04.17h-3.24l.04-.18h.13c.32 0 .54-.06.54-.38 0-.18-.1-.24-.18-.4l-1.76-2.67h-.05l-.7 2.75-.03.25c0 .27.2.45.88.45h.2l-.06.18H544l.06-.18h.2c.68 0 .87-.4.95-.7l1.33-5.33c.08-.3.1-.32.1-.55 0-.25-.17-.43-.85-.43h-.2l.05-.2h3.52l-.05.2h-.12c-.85 0-1 .3-1.1.7l-.6 2.36h.06l3.2-2.5c.1-.1.2-.18.2-.33-.02-.15-.1-.23-.6-.23l.06-.2h2.44" fill="#303f49"/><path d="M402 953.97c0 14.36-11.64 26-26 26s-26-11.64-26-26 11.64-26 26-26 26 11.64 26 26z" stroke="#3a414a" fill="#fff"/><path d="M281 812.96h89a6 6 0 0 1 6 6v92.13" stroke="#3a414a" fill="none"/><path d="M281 813.46h-.5v-1h.5z" stroke="#3a414a" stroke-width=".05" fill="#3a414a"/><path d="M376 925.85l-4.63-14.26h9.26z" stroke="#3a414a" fill="#3a414a"/><path d="M351.42 941.8h49.16v22.3h-49.16z" fill="#fff" fill-opacity="0"/><path d="M352.75 961.87l2.62-1.7c-1.82-.28-3.15-1.57-3.15-3.68 0-3.27 3-7.12 7.06-7.12 2.33 0 3.82 1.47 3.82 3.95 0 3.25-3 6.86-6.92 6.86l-1.02.68.06.08c.26-.05.48-.06.7-.06 1.03 0 2.5.54 3.9.54.63 0 1.38-.2 2.18-1.05l.2.16c-.94 1.17-2.06 1.9-3.94 1.9-.85 0-1.68-.13-2.27-.25-.8-.17-1.67-.43-2.15-.43-.13 0-.5.1-.93.3m8.28-9.5c0-2.1-1.04-2.6-2.08-2.6-3.55 0-4.98 5.05-4.98 7.25 0 1.55.8 2.38 2.1 2.38 3.45 0 4.96-4.52 4.96-7.02M369.25 952.7l-.6 1.55h-4.43v-.13l2-2.14c1.07-1.1 1.48-1.97 1.48-2.93 0-1.03-.6-1.6-1.57-1.6-.8 0-1.2.37-1.66 1.47l-.24-.05c.24-1.32.96-2.25 2.35-2.25 1.28 0 2.1.87 2.1 2 0 .88-.45 1.73-1.45 2.8l-1.87 1.98H368c.48 0 .72-.13 1.1-.76M383.95 949.6l-.06.26c-.83 0-1.26.32-1.93.85l-4.33 3.38 3 4.44c.45.68.98 1.26 2.02 1.26l-.06.25H378l.08-.25h.17c.45 0 .75-.08.75-.53 0-.25-.13-.35-.25-.56l-2.5-3.8h-.06l-1 3.9c-.03.12-.05.23-.05.34 0 .38.3.64 1.25.64h.27l-.06.25h-4.85l.07-.25h.28c.96 0 1.23-.56 1.34-1l1.87-7.53c.13-.43.17-.45.17-.78 0-.35-.25-.6-1.2-.6h-.3l.07-.26h4.98l-.07.26h-.17c-1.2 0-1.4.43-1.55 1l-.85 3.33h.08l4.5-3.54c.17-.13.3-.25.3-.46-.02-.23-.15-.34-.82-.34l.06-.25h3.45M389.5 952.7l-.6 1.55h-4.43v-.13l2-2.14c1.07-1.1 1.48-1.97 1.48-2.93 0-1.03-.6-1.6-1.57-1.6-.8 0-1.2.37-1.66 1.47l-.24-.05c.24-1.32.96-2.25 2.35-2.25 1.28 0 2.1.87 2.1 2 0 .88-.45 1.73-1.45 2.8l-1.87 1.98h2.65c.48 0 .7-.13 1.1-.76M398.96 943.6l-.52 2h-.18c.02-.18.06-.48.06-.8 0-.73-.66-.8-1.12-.8h-1.1l-1.5 6.08c-.03.1-.07.18-.07.3 0 .22.18.4.86.4h.23l-.05.18h-3.7l.03-.18h.22c.88 0 1.1-.3 1.2-.7l1.5-6.07h-1.03c-.95 0-1.74.7-1.94 1.6h-.18l.52-2h6.76" fill="#303f49"/><path d="M563.42 932.96c8.83 0 16 8.95 16 20 0 11.04-7.17 20-16 20h-48c-8.84 0-16-8.96-16-20 0-11.05 7.16-20 16-20z" stroke="#3a414a" fill="#fff"/><use xlink:href="#w" transform="matrix(1,0,0,1,504.41735651171405,937.9571206744183) translate(6.99544270833335 18.60026041666666)"/><path d="M281 952.96l52.12.77" stroke="#3a414a" stroke-linejoin="round" fill="none"/><path d="M281.02 952.47v1h-.52v-1z" stroke="#3a414a" stroke-width=".05" fill="#3a414a"/><path d="M347.88 953.95l-14.33 4.42.14-9.27z" stroke="#3a414a" fill="#3a414a"/><path d="M403 953.97h79.57" stroke="#3a414a" stroke-linejoin="round" fill="none"/><path d="M403 954.47h-.55l.05-.48v-.53h.5z" stroke="#3a414a" stroke-width=".05" fill="#3a414a"/><path d="M497.33 953.97l-14.26 4.63v-9.27z" stroke="#3a414a" fill="#3a414a"/><path d="M565.5 883.05c0 14.36-11.64 26-26 26s-26-11.64-26-26 11.64-26 26-26 26 11.64 26 26z" stroke="#3a414a" fill="#fff"/><path d="M539.5 835.96v4.2" stroke="#3a414a" stroke-linejoin="round" fill="none"/><path d="M540 835.97h-1v-.5h1z" stroke="#3a414a" stroke-width=".05" fill="#3a414a"/><path d="M539.5 854.93l-4.64-14.26h9.27z" stroke="#3a414a" fill="#3a414a"/><path d="M523.7 875.94H563v17.25h-39.3z" fill="#fff" fill-opacity="0"/><path d="M526.9 880.7h4.34c2.72 0 3.7 1.4 3.7 2.57 0 1.56-1.3 3.18-4.55 3.18-.45 0-.8-.02-1.2-.1-.07 0-.12 0-.18-.02l-.9 3.56c-.02.12-.04.23-.04.36 0 .38.3.63 1.23.63h.52l-.06.24h-5.45l.07-.25h.28c1.23 0 1.55-.46 1.7-1l2-7.94c.02-.13.05-.27.05-.4 0-.34-.27-.6-1.25-.6h-.3m3.42.4l-1.1 4.37c.27.06.65.12.97.12 1.63 0 2.9-1.1 2.9-2.74 0-.95-.47-1.8-2-1.8-.26 0-.5.02-.77.05M540.82 883.8l-.6 1.56h-4.42v-.14l2-2.13c1.07-1.13 1.48-2 1.48-2.95 0-1.02-.6-1.6-1.57-1.6-.8 0-1.2.37-1.65 1.48l-.24-.06c.25-1.32.97-2.24 2.36-2.24 1.28 0 2.1.87 2.1 1.98 0 .9-.45 1.75-1.46 2.8l-1.86 2h2.64c.48 0 .7-.12 1.1-.75M554.86 880.7l-.06.27c-1.04.06-1.7.68-2.1 1.23l-7.06 9.2h-.38v-9.12c0-.93-.6-1.3-1.58-1.3l.07-.27h4.7l-.07.27h-.3c-1.05 0-1.13.6-1.13 1.12v6.23l.07.02 4.47-5.85c.3-.38.6-.85.6-1.18 0-.24-.23-.35-.83-.35h-.32l.06-.26h3.86M561.1 883.8l-.6 1.56h-4.42v-.14l2-2.13c1.07-1.13 1.48-2 1.48-2.95 0-1.02-.6-1.6-1.57-1.6-.82 0-1.22.37-1.67 1.48l-.24-.06c.23-1.32.95-2.24 2.34-2.24 1.28 0 2.1.87 2.1 1.98 0 .9-.45 1.75-1.45 2.8l-1.88 2h2.64c.48 0 .72-.12 1.1-.75" fill="#303f49"/><path d="M870 868.95a6 6 0 0 1 6-6h68a6 6 0 0 1 6 6v28a6 6 0 0 1-6 6h-68a6 6 0 0 1-6-6z" stroke="#3a414a" fill="#e3fae3"/><use xlink:href="#x" transform="matrix(1,0,0,1,874.9990460052818,867.9522866608623) translate(12.996419270833336 20.350477430555554)"/><use xlink:href="#y" transform="matrix(1,0,0,1,874.9990460052818,867.9522866608623) translate(27.66547309027778 48.04144965277777)"/><use xlink:href="#z" transform="matrix(1,0,0,1,874.9990460052818,867.9522866608623) translate(12.996419270833336 75.732421875)"/><path d="M690 868.95a6 6 0 0 1 6-6h28a6 6 0 0 1 6 6v28a6 6 0 0 1-6 6h-28a6 6 0 0 1-6-6z" stroke="#3a414a" fill="#cfe4ff"/><use xlink:href="#u" transform="matrix(1,0,0,1,695,867.9522866608623) translate(0.33094618055555713 22.287977430555554)"/><path d="M740 868.95a6 6 0 0 1 6-6h68a6 6 0 0 1 6 6v28a6 6 0 0 1-6 6h-68a6 6 0 0 1-6-6z" stroke="#3a414a" fill="#cfe4ff"/><use xlink:href="#u" transform="matrix(1,0,0,1,744.9990460052818,867.9522866608623) translate(20.830946180555557 22.225477430555554)"/><path d="M821 882.95h32.12" stroke="#3a414a" stroke-linejoin="round" fill="none"/><path d="M821 883.45h-.5v-1h.5z" stroke="#3a414a" stroke-width=".05" fill="#3a414a"/><path d="M867.88 882.95l-14.26 4.64v-9.28z" stroke="#3a414a" fill="#3a414a"/><path d="M700 874.83h20.2v17.25H700z" fill="#fff" fill-opacity="0"/><path d="M712.8 879.6l-9.03 9.82h3.48c1.5 0 2.9-.17 3.47-2.23h.25l-.73 2.83h-9.28l9.15-9.84h-3.22c-1.53 0-2.95.1-3.56 1.93h-.27l.77-2.53h9M718.3 882.7l-.6 1.55h-4.42v-.14l2-2.12c1.07-1.12 1.48-1.98 1.48-2.94 0-1.02-.6-1.6-1.57-1.6-.83 0-1.22.37-1.67 1.48l-.24-.06c.23-1.32.95-2.24 2.34-2.24 1.27 0 2.1.87 2.1 2 0 .88-.45 1.72-1.46 2.78l-1.86 2h2.64c.48 0 .7-.13 1.1-.76" fill="#303f49"/><path d="M740 818.95a6 6 0 0 1 6-6h68a6 6 0 0 1 6 6v28a6 6 0 0 1-6 6h-68a6 6 0 0 1-6-6z" stroke="#3a414a" fill="#cfe4ff"/><use xlink:href="#u" transform="matrix(1,0,0,1,745,817.9522866608625) translate(20.330946180555557 22.225477430555554)"/><path d="M767.14 821.94h25.72v22.3h-25.72z" fill="#fff" fill-opacity="0"/><path d="M784.72 826.7l-.07.27c-1.05.05-1.74.7-2.14 1.23l-6.98 9.2h-.46v-7.06h-.18l-4.74 7.06h-.47v-9.1c0-.87-.52-1.33-1.42-1.33h-.16l.06-.26h4.6l-.07.27h-.12c-.62 0-1.2 0-1.2 1.13v6.02h.07l3.6-5.3v-.97c0-.5-.3-.88-1.3-.88h-.13l.06-.26h4.55l-.06.27h-.3c-.98 0-1.12.6-1.12 1.15v6.3h.1l4.43-5.9c.28-.36.64-.85.64-1.15 0-.26-.2-.4-.86-.4h-.27l.05-.26h3.87M790.96 830.08l-.6 1.55h-4.42v-.13l2-2.14c1.07-1.12 1.48-1.97 1.48-2.93 0-1.03-.6-1.6-1.57-1.6-.82 0-1.2.37-1.66 1.47l-.25-.05c.24-1.33.96-2.25 2.35-2.25 1.28 0 2.1.87 2.1 2 0 .88-.45 1.72-1.46 2.8l-1.86 1.97h2.64c.48 0 .7-.12 1.1-.75M789.8 837.35c0 2.23-1.76 4.87-4.62 4.87-1.68 0-2.85-1.1-2.85-2.64 0-2.3 1.78-5.04 4.66-5.04 1.88 0 2.8 1.4 2.8 2.8m-1.3-.25c0-1.22-.46-2.14-1.6-2.14-2.62 0-3.2 3.53-3.2 5.13 0 1.1.7 1.7 1.57 1.7 2.4 0 3.22-3.12 3.22-4.7" fill="#303f49"/><path d="M772.1 873.9h19.12v17.25H772.1z" fill="#fff" fill-opacity="0"/><path d="M783.2 878.66l-.07.26c-.87.06-1.48.5-1.98 1.1l-3.33 4.1-.95 3.73c-.03.14-.04.24-.04.4 0 .35.28.6 1.2.6h.33l-.06.24h-5.24l.06-.26h.27c1.22 0 1.54-.45 1.67-1l.97-3.92-1.42-3.8c-.27-.7-.73-1.2-1.96-1.2l.06-.26h4.78l-.07.26h-.3c-.8 0-.93.24-.93.64 0 .14.08.32.12.43l1.2 3.3h.06l2.78-3.4c.2-.23.25-.36.25-.53 0-.3-.32-.45-1.25-.45l.06-.26h3.8M788.4 883.3h-3.1v-.16c.83-.04 1.07-.28 1.07-.9v-5.07c0-.38-.1-.55-.34-.55-.1 0-.3.05-.5.13l-.3.1v-.14l2-1.02.1.03v6.75c0 .5.24.7 1.08.7v.16" fill="#303f49"/><path d="M881.85 874.9h56.3v17.26h-56.3z" fill="#fff" fill-opacity="0"/><path d="M892.95 879.67l-.06.26c-.9.07-1.5.5-2 1.1l-3.33 4.1-.94 3.73c-.03.14-.05.24-.05.4 0 .35.3.6 1.2.6h.33l-.05.24h-5.24l.08-.25h.27c1.23 0 1.55-.45 1.67-1l.98-3.92-1.42-3.8c-.27-.7-.74-1.2-1.97-1.2l.08-.25h4.77l-.06.25h-.32c-.8 0-.92.24-.92.64 0 .14.08.32.1.43l1.2 3.3h.07l2.78-3.38c.2-.24.27-.37.27-.54 0-.3-.34-.45-1.27-.45l.07-.25h3.78M898.17 884.32h-3.12v-.17c.84-.04 1.07-.28 1.07-.9v-5.07c0-.38-.1-.55-.34-.55-.1 0-.3.05-.5.13l-.3.12v-.16l2-1.03.12.02v6.74c0 .5.22.7 1.07.7v.16M914.67 886.6h-4.17v4.16h-1.05v-4.17h-4.17v-1.06h4.17v-4.17h1.05v4.17h4.17v1.05M930.1 879.67l-.05.26c-.88.07-1.5.5-1.98 1.1l-3.34 4.1-.94 3.73c-.04.14-.06.24-.06.4 0 .35.3.6 1.22.6h.3l-.05.24h-5.23l.07-.25h.27c1.24 0 1.56-.45 1.7-1l.96-3.92-1.42-3.8c-.27-.7-.74-1.2-1.97-1.2l.07-.25h4.77l-.05.25h-.3c-.8 0-.93.24-.93.64 0 .14.08.32.1.43l1.2 3.3h.07l2.77-3.38c.2-.24.26-.37.26-.54 0-.3-.34-.45-1.26-.45l.06-.25h3.78M936.23 882.78l-.6 1.54h-4.42v-.13l2.02-2.15c1.06-1.12 1.46-1.97 1.46-2.93 0-1.03-.6-1.6-1.56-1.6-.82 0-1.2.37-1.66 1.47l-.24-.06c.24-1.32.96-2.25 2.35-2.25 1.27 0 2.1.86 2.1 1.98 0 .9-.45 1.74-1.46 2.8l-1.85 1.98H935c.46 0 .7-.12 1.07-.75" fill="#303f49"/><path d="M566.5 883.05l106.62-.08" stroke="#3a414a" stroke-linejoin="round" fill="none"/><path d="M566.5 883.55h-.55l.05-.48v-.52h.5z" stroke="#3a414a" stroke-width=".05" fill="#3a414a"/><path d="M687.88 882.95l-14.26 4.65v-9.27z" stroke="#3a414a" fill="#3a414a"/><path d="M539.42 931.96l.02-6.03" stroke="#3a414a" stroke-linejoin="round" fill="none"/><path d="M539.92 931.95v.5h-1v-.5z" stroke="#3a414a" stroke-width=".05" fill="#3a414a"/><path d="M539.5 911.17l4.58 14.28-9.27-.03z" stroke="#3a414a" fill="#3a414a"/><path d="M10.5 991a.5.5 0 0 1 .5-.5h938a.5.5 0 0 1 .5.5.5.5 0 0 1-.5.5H11a.5.5 0 0 1-.5-.5z" fill="none"/><path d="M22.92 990.5h7.95m7.95 0h7.95m7.95 0h7.95m7.95 0h7.95m7.95 0h7.95m7.95 0h7.94m7.95 0h7.96m7.95 0h7.96m7.95 0h7.96m7.95 0h7.96m7.95 0h7.96m7.94 0h7.95m7.95 0h7.95m7.95 0h7.95m7.95 0h7.95m7.95 0h7.95m7.95 0h7.95m7.94 0h7.94m7.95 0h7.94m7.95 0h7.94m7.95 0h7.94m7.95 0h7.94m7.95 0h7.94m7.94 0h7.95m7.95 0h7.95m7.95 0h7.95m7.95 0h7.95m7.95 0h7.95m7.95 0h7.94m7.96 0h7.94m7.95 0h7.95m7.95 0h7.95m7.95 0h7.95m7.95 0h7.95m7.95 0h7.94m7.96 0h7.95m7.96 0h7.95m7.96 0h7.95m7.96 0H635m7.96 0h7.95m7.96 0h7.94m7.95 0h7.95m7.95 0h7.95m7.95 0h7.95m7.95 0h7.95m7.95 0h7.95m7.95 0h7.95m7.94 0h7.95m7.94 0H794m7.94 0h7.95m7.94 0h7.95m7.94 0h7.95m7.94 0h7.95m7.93 0h7.95m7.95 0h7.95m7.95 0h7.95m7.95 0h7.95m7.95 0h7.95m7.94 0h4.06l.07.02.08.03.06.05.05.05.05.06.05.07.02.08.02.07v.16l-.02.07-.03.08-.05.06-.05.05-.06.05-.07.05-.08.02-.07.02h-4.06m-7.94 0h-7.95m-7.95 0h-7.95m-7.95 0h-7.95m-7.95 0h-7.95m-7.95 0h-7.95m-7.94 0h-7.96m-7.95 0h-7.96m-7.95 0h-7.96m-7.95 0h-7.96m-7.95 0h-7.96m-7.95 0h-7.96m-7.94 0h-7.95m-7.95 0h-7.95m-7.95 0h-7.95m-7.95 0h-7.95m-7.95 0h-7.95m-7.95 0h-7.95m-7.95 0h-7.94m-7.95 0h-7.94m-7.95 0h-7.94m-7.95 0h-7.94m-7.95 0h-7.94m-7.95 0h-7.94m-7.95 0h-7.93m-7.95 0h-7.95m-7.95 0h-7.95m-7.95 0h-7.95m-7.95 0h-7.95m-7.95 0h-7.94m-7.96 0h-7.94m-7.95 0h-7.95m-7.95 0h-7.95m-7.95 0h-7.95m-7.95 0h-7.95m-7.95 0h-7.94m-7.96 0h-7.95m-7.96 0h-7.95m-7.96 0h-7.95m-7.96 0H325m-7.96 0h-7.95m-7.96 0h-7.94m-7.95 0h-7.95m-7.95 0h-7.95m-7.95 0h-7.95m-7.95 0h-7.95m-7.95 0h-7.95m-7.95 0h-7.94m-7.94 0h-7.95m-7.94 0H166m-7.94 0h-7.95m-7.94 0h-7.95m-7.94 0h-7.95m-7.94 0h-7.94m-7.95 0h-7.95m-7.95 0h-7.95m-7.95 0h-7.95m-7.95 0h-7.95m-7.95 0h-7.95m-7.95 0h-4.05l-.07-.02-.08-.03-.06-.05-.05-.05-.05-.06-.04-.07-.04-.08v-.07l-.02-.08v-.08l.02-.07.03-.08.04-.06.05-.05.06-.05.07-.05.08-.02.07-.02h4.05" stroke="#3a414a" fill="none"/><path d="M870 557.18a6 6 0 0 1 6-6h68a6 6 0 0 1 6 6v28a6 6 0 0 1-6 6h-68a6 6 0 0 1-6-6z" stroke="#3a414a" fill="#e3fae3"/><use xlink:href="#x" transform="matrix(1,0,0,1,874.9990460052818,556.1845050761713) translate(12.996419270833336 20.350477430555554)"/><use xlink:href="#y" transform="matrix(1,0,0,1,874.9990460052818,556.1845050761713) translate(27.66547309027778 48.04144965277777)"/><use xlink:href="#z" transform="matrix(1,0,0,1,874.9990460052818,556.1845050761713) translate(12.996419270833336 75.732421875)"/><path d="M881.85 563h56.3v17.24h-56.3z" fill="#fff" fill-opacity="0"/><path d="M892.95 567.76l-.06.25c-.9.08-1.5.5-2 1.12l-3.33 4.1-.94 3.72c-.03.15-.05.24-.05.42 0 .33.3.57 1.2.57h.33l-.05.26h-5.24l.08-.27h.27c1.23 0 1.55-.44 1.67-1l.98-3.92-1.42-3.77c-.27-.72-.74-1.22-1.97-1.22l.08-.24h4.77l-.06.25h-.32c-.8 0-.92.25-.92.65 0 .15.08.32.1.44l1.2 3.3h.07l2.78-3.4c.2-.23.27-.36.27-.54 0-.3-.34-.45-1.27-.45l.07-.24h3.78M898.17 572.4h-3.12v-.16c.84-.05 1.07-.28 1.07-.9v-5.08c0-.38-.1-.55-.34-.55-.1 0-.3.07-.5.15l-.3.1v-.15l2-1.02.12.03v6.75c0 .48.22.7 1.07.7v.16M914.67 574.67h-4.17v4.17h-1.05v-4.17h-4.17v-1.05h4.17v-4.17h1.05v4.17h4.17v1.05M930.1 567.76l-.05.25c-.88.08-1.5.5-1.98 1.12l-3.34 4.1-.94 3.72c-.04.15-.06.24-.06.42 0 .33.3.57 1.22.57h.3l-.05.26h-5.23l.07-.27h.27c1.24 0 1.56-.44 1.7-1l.96-3.92-1.42-3.77c-.27-.72-.74-1.22-1.97-1.22l.07-.24h4.77l-.05.25h-.3c-.8 0-.93.25-.93.65 0 .15.08.32.1.44l1.2 3.3h.07l2.77-3.4c.2-.23.26-.36.26-.54 0-.3-.34-.45-1.26-.45l.06-.24h3.78M936.23 570.86l-.6 1.55h-4.42v-.13l2.02-2.13c1.06-1.12 1.46-1.98 1.46-2.94 0-1.03-.6-1.6-1.56-1.6-.82 0-1.2.37-1.66 1.48l-.24-.06c.24-1.32.96-2.25 2.35-2.25 1.27 0 2.1.87 2.1 2 0 .88-.45 1.73-1.46 2.8l-1.85 1.98H935c.46 0 .7-.13 1.07-.76" fill="#303f49"/><path d="M407.06 1006.4a6 6 0 0 1 6-6H514a6 6 0 0 1 6 6v18.37a6 6 0 0 1-6 6H413.06a6 6 0 0 1-6-6z" stroke="#000" stroke-opacity="0" fill="#fff" fill-opacity="0"/><use xlink:href="#A" transform="matrix(1,0,0,1,412.0588235294117,1005.3924049219291) translate(-8.509765624999979 18.500434027777775)"/><path d="M820.8 882.54l28.25-40.78 14.26-22.6 9.36-16.3 6.87-13.26 5.38-11.55 4.4-10.57 3.7-10.1 3.2-10 2.82-10.22 2.5-10.86 2.24-12.06 2.02-14.14 1.8-18.06 1.54-27.12.65-46.85" stroke="#3a414a" stroke-linejoin="round" fill="none"/><path d="M821.2 882.8l-.7 1.03v-1.5z" stroke="#3a414a" stroke-width=".05" fill="#3a414a"/><path d="M909.98 593.3l4.43 14.33-9.26-.13z" stroke="#3a414a" fill="#3a414a"/><path d="M820.84 570.37l19.58 20.9 13.77 16 10.2 12.9 7.9 10.94 6.36 9.6 5.23 8.7 4.38 8.03 3.75 7.6 3.25 7.32 2.82 7.2 2.5 7.18 2.18 7.34 1.95 7.65 1.7 8.18 1.52 9.03 1.28 10.43 1.04 12.92.7 18.5-.8 85.3" stroke="#3a414a" stroke-linejoin="round" fill="none"/><path d="M821.22 570.04l-.72.67v-1.43z" stroke="#3a414a" stroke-width=".05" fill="#3a414a"/><path d="M910 860.83l-4.48-14.3 9.27.08z" stroke="#3a414a" fill="#3a414a"/><path d="M960 85.6a6 6 0 0 1 6-6h318a6 6 0 0 1 6 6V234a6 6 0 0 1-6 6H966a6 6 0 0 1-6-6z" stroke="#3a414a" fill="#fff"/><path d="M970 156a6 6 0 0 1 6-6h8a6 6 0 0 1 6 6v8a6 6 0 0 1-6 6h-8a6 6 0 0 1-6-6z" stroke="#3a414a" fill="#ffdda6"/><use xlink:href="#B" transform="matrix(1,0,0,1,975,155) translate(-12.777777777777779 16)"/><path d="M970 186a6 6 0 0 1 6-6h8a6 6 0 0 1 6 6v8a6 6 0 0 1-6 6h-8a6 6 0 0 1-6-6z" stroke="#3a414a" fill="#cfe4ff"/><use xlink:href="#C" transform="matrix(1,0,0,1,975,185) translate(-11.11111111111111 16)"/><path d="M970 216a6 6 0 0 1 6-6h8a6 6 0 0 1 6 6v8a6 6 0 0 1-6 6h-8a6 6 0 0 1-6-6z" stroke="#3a414a" fill="#e3fae3"/><use xlink:href="#D" transform="matrix(1,0,0,1,975,214.99999999999997) translate(0 16)"/><path d="M970 126.4a6 6 0 0 1 6-6h8a6 6 0 0 1 6 6v8a6 6 0 0 1-6 6h-8a6 6 0 0 1-6-6z" stroke="#3a414a" fill="#fff"/><path d="M1000 121.4a6 6 0 0 1 6-6h228a6 6 0 0 1 6 6v8a6 6 0 0 1-6 6h-228a6 6 0 0 1-6-6z" stroke="#000" stroke-opacity="0" fill="#fff" fill-opacity="0"/><use xlink:href="#E" transform="matrix(1,0,0,1,1005,120.39240492192948) translate(0 16.650390625)"/><use xlink:href="#F" transform="matrix(1,0,0,1,1005,120.39240492192948) translate(120.01953125 16.650390625)"/><path d="M1000 151.4a6 6 0 0 1 6-6h278a6 6 0 0 1 6 6v8a6 6 0 0 1-6 6h-278a6 6 0 0 1-6-6z" stroke="#000" stroke-opacity="0" fill="#fff" fill-opacity="0"/><g><use xlink:href="#G" transform="matrix(1,0,0,1,1005,150.39240492192948) translate(0 16.650390625)"/><use xlink:href="#H" transform="matrix(1,0,0,1,1005,150.39240492192948) translate(96.015625 16.650390625)"/><use xlink:href="#I" transform="matrix(1,0,0,1,1005,150.39240492192948) translate(180.029296875 16.650390625)"/><use xlink:href="#J" transform="matrix(1,0,0,1,1005,150.39240492192948) translate(252.041015625 16.650390625)"/></g><path d="M1000 181.4a6 6 0 0 1 6-6h278a6 6 0 0 1 6 6v12.1a6 6 0 0 1-6 6h-278a6 6 0 0 1-6-6z" stroke="#000" stroke-opacity="0" fill="#fff" fill-opacity="0"/><g><use xlink:href="#G" transform="matrix(1,0,0,1,1005.0000000000001,180.39240492192886) translate(0 16.650390625)"/><use xlink:href="#H" transform="matrix(1,0,0,1,1005.0000000000001,180.39240492192886) translate(96.015625 16.650390625)"/><use xlink:href="#I" transform="matrix(1,0,0,1,1005.0000000000001,180.39240492192886) translate(180.029296875 16.650390625)"/><use xlink:href="#K" transform="matrix(1,0,0,1,1005.0000000000001,180.39240492192886) translate(252.041015625 16.650390625)"/></g><path d="M1000 211a6 6 0 0 1 6-6h278a6 6 0 0 1 6 6v8a6 6 0 0 1-6 6h-278a6 6 0 0 1-6-6z" stroke="#000" stroke-opacity="0" fill="#fff" fill-opacity="0"/><g><use xlink:href="#L" transform="matrix(1,0,0,1,1005.0000000000002,210) translate(0 16.650390625)"/><use xlink:href="#M" transform="matrix(1,0,0,1,1005.0000000000002,210) translate(132.021484375 16.650390625)"/></g><path d="M965 92a6 6 0 0 1 6-6h228a6 6 0 0 1 6 6v8a6 6 0 0 1-6 6H971a6 6 0 0 1-6-6z" stroke="#000" stroke-opacity="0" fill="#fff" fill-opacity="0"/><g><use xlink:href="#N" transform="matrix(1,0,0,1,970,90.99999999999999) translate(0 16.650390625)"/></g><defs><path fill="#3a414a" d="M1121-976c0 225-142 341-344 379L1177 0H957L591-575H353V0H162v-1349h482c281 3 477 100 477 373zM633-726c181-1 296-73 296-247 0-149-101-223-304-223H353v470h280" id="O"/><path fill="#3a414a" d="M1000-272c3 95 12 159 101 161 21 0 41-3 59-7V-6c-44 10-86 16-139 16-141 2-191-84-197-217h-6C748-76 648 20 446 20c-207 0-318-120-318-322 0-266 194-348 454-354l236-4c12-191-40-305-222-305-140 0-220 47-232 172l-188-17c33-204 181-292 423-292 255 0 401 118 401 364v466zm-683-27c0 109 63 184 175 182 166-3 259-96 306-217 24-65 20-120 20-200-232 7-501-28-501 235" id="P"/><path fill="#3a414a" d="M706-1102c241 0 344 136 343 381V0H868v-695c1-168-57-273-220-268-190 6-283 138-283 336V0H185c-3-360 6-732-6-1082h170c4 54 7 126 8 185h3c63-121 164-204 346-205" id="Q"/><path fill="#3a414a" d="M914 0L548-499l-132 98V0H236v-1484h180v927l475-525h211L663-617 1125 0H914" id="R"/><g id="a"><use transform="matrix(0.010850694444444442,0,0,0.010850694444444442,0,0)" xlink:href="#O"/><use transform="matrix(0.010850694444444442,0,0,0.010850694444444442,13.33550347222222,0)" xlink:href="#P"/><use transform="matrix(0.010850694444444442,0,0,0.010850694444444442,26.67100694444444,0)" xlink:href="#Q"/><use transform="matrix(0.010850694444444442,0,0,0.010850694444444442,40.00651041666666,0)" xlink:href="#R"/></g><path fill="#3a414a" d="M148-1120c216-7 379-89 463-229h166v1204h353V0H157v-145h439v-1021c-79 124-254 184-448 194v-148" id="S"/><use transform="matrix(0.010850694444444442,0,0,0.010850694444444442,0,0)" xlink:href="#S" id="b"/><path fill="#3a414a" d="M285-1169c8 382 2 780 4 1169H129v-1349h237c86 239 188 461 253 720 69-258 169-481 255-720h225V0H937c2-390-5-788 6-1169-75 255-170 488-259 729H547c-90-240-185-475-262-729" id="T"/><path fill="#3a414a" d="M682 16c-209 0-323-80-324-285v-671H190v-142h170l58-282h120v282h432v142H538v652c2 114 60 155 182 155 106 0 209-16 297-34v137C921-4 806 16 682 16" id="U"/><path fill="#3a414a" d="M904-1102c199 0 220 177 220 381V0H956v-686c-3-114 0-215-60-264-70-33-125-4-158 71-26 56-39 140-39 252V0H531v-686c-3-114-1-215-61-264-78-41-136 24-157 84-24 69-39 159-39 259V0H105c-3-360 6-732-6-1082h149c6 50 3 123 8 175 36-100 83-195 216-195 135 0 166 79 196 196 42-105 93-196 236-196" id="V"/><path fill="#3a414a" d="M528 20c-247 0-343-132-343-381v-721h180v686c-4 177 45 284 224 277 194-8 279-136 279-336v-627h181c3 360-6 732 6 1082H885c-4-54-7-126-8-185h-3C809-64 714 20 528 20" id="W"/><path fill="#3a414a" d="M736-142h380V0H134v-142h422v-1200H267v-142h469v1342" id="X"/><g id="c"><use transform="matrix(0.010850694444444442,0,0,0.010850694444444442,0,0)" xlink:href="#T"/><use transform="matrix(0.010850694444444442,0,0,0.010850694444444442,13.33550347222222,0)" xlink:href="#P"/><use transform="matrix(0.010850694444444442,0,0,0.010850694444444442,26.67100694444444,0)" xlink:href="#U"/><use transform="matrix(0.010850694444444442,0,0,0.010850694444444442,40.00651041666666,0)" xlink:href="#V"/><use transform="matrix(0.010850694444444442,0,0,0.010850694444444442,53.34201388888888,0)" xlink:href="#W"/><use transform="matrix(0.010850694444444442,0,0,0.010850694444444442,66.6775173611111,0)" xlink:href="#X"/></g><path fill="#3a414a" d="M1034 0L896-382H333L196 0H0l510-1349h217L1228 0h-194zM847-531c-77-225-157-447-231-674-69 231-154 451-232 674h463" id="Y"/><path fill="#3a414a" d="M617-1102c355 0 481 238 477 599H322c5 222 84 388 301 388 144 0 244-59 284-166l158 45C1002-72 854 20 623 20c-342 0-490-220-490-568 0-346 151-554 484-554zm291 461c-18-192-90-328-289-328-194 0-287 128-295 328h584" id="Z"/><path fill="#3a414a" d="M745-142h380V0H143v-142h422v-798H246v-142h499v940zM545-1292v-192h200v192H545" id="aa"/><path fill="#3a414a" d="M615-1102c343 0 484 203 482 560-1 347-147 562-488 562-336 0-475-219-479-562-4-349 156-560 485-560zm-8 989c240 0 301-180 301-429 0-245-55-427-290-427-236 0-299 181-299 427 0 243 61 429 288 429" id="ab"/><g id="d"><use transform="matrix(0.010850694444444435,0,0,0.010850694444444435,0,0)" xlink:href="#Y"/><use transform="matrix(0.010850694444444435,0,0,0.010850694444444435,13.33550347222221,0)" xlink:href="#U"/><use transform="matrix(0.010850694444444435,0,0,0.010850694444444435,26.67100694444442,0)" xlink:href="#U"/><use transform="matrix(0.010850694444444435,0,0,0.010850694444444435,40.00651041666663,0)" xlink:href="#Z"/><use transform="matrix(0.010850694444444435,0,0,0.010850694444444435,53.34201388888884,0)" xlink:href="#Q"/><use transform="matrix(0.010850694444444435,0,0,0.010850694444444435,66.67751736111106,0)" xlink:href="#U"/><use transform="matrix(0.010850694444444435,0,0,0.010850694444444435,80.01302083333327,0)" xlink:href="#aa"/><use transform="matrix(0.010850694444444435,0,0,0.010850694444444435,93.34852430555547,0)" xlink:href="#ab"/><use transform="matrix(0.010850694444444435,0,0,0.010850694444444435,106.68402777777771,0)" xlink:href="#Q"/></g><path fill="#3a414a" d="M237 0v-1349h191v1193h672V0H237" id="ac"/><path fill="#3a414a" d="M168 279c222 39 310-114 368-290L66-1082h192c120 299 249 590 362 896 115-301 235-597 351-896h190L705 0c-65 164-130 320-275 396-67 36-177 35-262 18V279" id="ad"/><path fill="#3a414a" d="M839-1102c70 0 148 7 206 17v167c-112-18-268-36-363 15-129 69-208 203-208 395V0H294c-10-367 32-789-52-1082h171c21 75 41 161 48 250h5c67-152 152-270 373-270" id="ae"/><g id="e"><use transform="matrix(0.010850694444444435,0,0,0.010850694444444435,0,0)" xlink:href="#ac"/><use transform="matrix(0.010850694444444435,0,0,0.010850694444444435,13.33550347222221,0)" xlink:href="#P"/><use transform="matrix(0.010850694444444435,0,0,0.010850694444444435,26.67100694444442,0)" xlink:href="#ad"/><use transform="matrix(0.010850694444444435,0,0,0.010850694444444435,40.00651041666663,0)" xlink:href="#Z"/><use transform="matrix(0.010850694444444435,0,0,0.010850694444444435,53.34201388888884,0)" xlink:href="#ae"/></g><path fill="#3a414a" d="M865-914c-3-187-2-380-2-570h180v1261c0 76 1 155 6 223H877c-8-49-9-116-10-174h-5C801-44 708 26 530 26c-135 0-234-46-297-139s-95-232-95-419c0-377 131-566 392-566 176 0 271 63 335 184zm-286-51c-222 0-255 197-255 427 0 229 31 425 253 425 237 0 286-195 286-441 0-238-52-411-284-411" id="af"/><path fill="#3a414a" d="M631 20c-350 0-501-215-501-562 0-355 162-560 502-560 250 0 399 118 446 323l-192 14c-23-124-109-196-262-196-242 0-305 171-305 415 1 245 61 427 304 427 151 0 248-77 267-215l190 12C1039-107 883 20 631 20" id="ag"/><g id="f"><use transform="matrix(0.010850694444444442,0,0,0.010850694444444442,0,0)" xlink:href="#Y"/><use transform="matrix(0.010850694444444442,0,0,0.010850694444444442,13.33550347222222,0)" xlink:href="#X"/><use transform="matrix(0.010850694444444442,0,0,0.010850694444444442,26.67100694444444,0)" xlink:href="#X"/><use transform="matrix(0.010850694444444442,0,0,0.010850694444444442,40.00651041666666,0)" xlink:href="#O"/><use transform="matrix(0.010850694444444442,0,0,0.010850694444444442,53.34201388888888,0)" xlink:href="#Z"/><use transform="matrix(0.010850694444444442,0,0,0.010850694444444442,66.6775173611111,0)" xlink:href="#af"/><use transform="matrix(0.010850694444444442,0,0,0.010850694444444442,80.01302083333331,0)" xlink:href="#W"/><use transform="matrix(0.010850694444444442,0,0,0.010850694444444442,93.34852430555554,0)" xlink:href="#ag"/><use transform="matrix(0.010850694444444442,0,0,0.010850694444444442,106.68402777777774,0)" xlink:href="#Z"/></g><path fill="#3a414a" d="M102-681c0-398 126-689 513-689 165 0 291 58 379 174s132 287 132 515c-1 318-88 554-298 657-123 61-317 58-438-3-206-104-288-341-288-654zm749 406c94-160 97-656-5-807-57-85-130-132-231-132-104 0-178 47-234 132-101 153-99 655 1 809 57 89 130 138 232 138 109 0 184-49 237-140" id="ah"/><path fill="#3a414a" d="M698-1104c312 3 392 244 392 558 0 315-82 566-392 566-169 0-277-65-331-184h-5c8 188 2 394 4 589H185V-858c0-76-1-156-6-224h175c6 52 9 120 10 178h4c58-122 150-202 330-200zm-49 991c225 0 255-203 255-433 0-225-32-419-253-419-236 0-285 192-285 441 0 237 53 411 283 411" id="ai"/><path fill="#3a414a" d="M496 0v-299h235V0H496zm0-783v-299h235v299H496" id="aj"/><g id="g"><use transform="matrix(0.011935763888888888,0,0,0.011935763888888888,0,0)" xlink:href="#ah"/><use transform="matrix(0.011935763888888888,0,0,0.011935763888888888,14.669053819444443,0)" xlink:href="#ai"/><use transform="matrix(0.011935763888888888,0,0,0.011935763888888888,29.338107638888886,0)" xlink:href="#aj"/></g><path fill-opacity="0" d="M1018 0H810c-67-251-137-496-194-756C558-495 487-250 419 0H211L0-1349h189c48 393 110 772 142 1181 58-262 128-512 197-763h175c69 251 139 500 197 763 37-402 92-789 139-1181h189" id="ak"/><path fill-opacity="0" d="M-5 220v-96h1238v96H-5" id="al"/><path fill-opacity="0" d="M148-1120c216-7 379-89 463-229h166v1204h353V0H157v-145h439v-1021c-79 124-254 184-448 194v-148" id="am"/><g id="h"><use transform="matrix(0.011935763888888888,0,0,0.011935763888888888,0,0)" xlink:href="#ak"/><use transform="matrix(0.011935763888888888,0,0,0.011935763888888888,14.669053819444443,0)" xlink:href="#al"/><use transform="matrix(0.011935763888888888,0,0,0.011935763888888888,29.338107638888886,0)" xlink:href="#am"/></g><path fill-opacity="0" d="M611-1370c266 0 451 106 451 368 0 147-77 243-154 327-132 144-316 255-451 395-42 44-75 87-96 134h723V0H144v-117c124-264 387-411 582-603 73-72 151-147 151-271 0-161-104-231-266-231-163 0-249 90-268 238l-184-17c35-233 185-369 452-369" id="an"/><g id="i"><use transform="matrix(0.011935763888888888,0,0,0.011935763888888888,0,0)" xlink:href="#al"/><use transform="matrix(0.011935763888888888,0,0,0.011935763888888888,14.669053819444443,0)" xlink:href="#an"/></g><path fill="#3a414a" d="M614-1226c-167 1-283 53-283 213 0 183 186 193 334 234 230 63 463 120 463 409 0 286-219 387-518 390C309 23 131-98 79-338l185-37c34 165 149 248 351 246 184-2 324-58 324-238 0-203-207-221-372-266-210-57-422-111-422-377 0-267 201-356 470-360 279-5 430 101 480 324l-188 33c-28-141-121-215-293-213" id="ao"/><path fill="#3a414a" d="M648-963c-190 6-283 138-283 336V0H185v-1484h181c-2 197 6 404-9 587h3c62-120 159-205 339-205 242 0 351 135 350 381V0H868v-695c1-168-57-273-220-268" id="ap"/><path fill="#3a414a" d="M1048-32c-2 300-135 456-433 456-222-1-358-88-400-267l184-25c22 99 100 157 222 156 184-2 248-125 248-315 0-64 3-133-2-194C807-100 706-13 524-12c-306 0-381-228-381-537 0-318 85-550 400-550 164 0 271 83 325 202h3c1-60 3-134 12-185h171c-13 339-4 702-6 1050zM585-145c210-8 284-178 284-406 0-192-52-331-177-392-33-16-69-22-104-22-223 2-259 184-259 414 0 229 31 415 256 406" id="aq"/><g id="j"><use transform="matrix(0.0065104166666666635,0,0,0.0065104166666666635,0,0)" xlink:href="#ao"/><use transform="matrix(0.0065104166666666635,0,0,0.0065104166666666635,8.001302083333329,0)" xlink:href="#ap"/><use transform="matrix(0.0065104166666666635,0,0,0.0065104166666666635,16.002604166666657,0)" xlink:href="#P"/><use transform="matrix(0.0065104166666666635,0,0,0.0065104166666666635,24.003906249999986,0)" xlink:href="#ae"/><use transform="matrix(0.0065104166666666635,0,0,0.0065104166666666635,32.005208333333314,0)" xlink:href="#af"/><use transform="matrix(0.0065104166666666635,0,0,0.0065104166666666635,40.00651041666664,0)" xlink:href="#aa"/><use transform="matrix(0.0065104166666666635,0,0,0.0065104166666666635,48.00781249999997,0)" xlink:href="#Q"/><use transform="matrix(0.0065104166666666635,0,0,0.0065104166666666635,56.00911458333331,0)" xlink:href="#aq"/></g><g id="k"><use transform="matrix(0.011935763888888888,0,0,0.011935763888888888,0,0)" xlink:href="#ak"/><use transform="matrix(0.011935763888888888,0,0,0.011935763888888888,14.669053819444443,0)" xlink:href="#al"/><use transform="matrix(0.011935763888888888,0,0,0.011935763888888888,29.338107638888886,0)" xlink:href="#an"/></g><path fill-opacity="0" d="M614-836l333-513h205L717-705 1193 0H988L614-573 241 0H36l476-705-435-644h205" id="ar"/><use transform="matrix(0.011935763888888888,0,0,0.011935763888888888,0,0)" xlink:href="#ar" id="l"/><path fill-opacity="0" d="M708-584V0H520v-584L36-1349h205l374 611 372-611h205" id="as"/><g id="m"><use transform="matrix(0.011935763888888888,0,0,0.011935763888888888,0,0)" xlink:href="#as"/><use transform="matrix(0.011935763888888888,0,0,0.011935763888888888,14.669053819444443,0)" xlink:href="#al"/><use transform="matrix(0.011935763888888888,0,0,0.011935763888888888,29.338107638888886,0)" xlink:href="#am"/></g><path fill="#3a414a" d="M839-1335c-182-6-269 67-259 253h491v142H580V0H400v-940H138v-142h262c-15-293 132-408 418-402 94 2 200 7 281 21v145c-75-10-177-14-260-17" id="at"/><path fill="#3a414a" d="M932 0L611-444 288 0H94l415-556-397-526h199l300 421 298-421h201L713-558 1133 0H932" id="au"/><g id="n"><use transform="matrix(0.0065104166666666635,0,0,0.0065104166666666635,0,0)" xlink:href="#ao"/><use transform="matrix(0.0065104166666666635,0,0,0.0065104166666666635,8.001302083333329,0)" xlink:href="#ab"/><use transform="matrix(0.0065104166666666635,0,0,0.0065104166666666635,16.002604166666657,0)" xlink:href="#at"/><use transform="matrix(0.0065104166666666635,0,0,0.0065104166666666635,24.003906249999986,0)" xlink:href="#U"/><use transform="matrix(0.0065104166666666635,0,0,0.0065104166666666635,32.005208333333314,0)" xlink:href="#V"/><use transform="matrix(0.0065104166666666635,0,0,0.0065104166666666635,40.00651041666664,0)" xlink:href="#P"/><use transform="matrix(0.0065104166666666635,0,0,0.0065104166666666635,48.00781249999997,0)" xlink:href="#au"/></g><path fill-opacity="0" d="M614-1226c-167 1-283 53-283 213 0 183 186 193 334 234 230 63 463 120 463 409 0 286-219 387-518 390C309 23 131-98 79-338l185-37c34 165 149 248 351 246 184-2 324-58 324-238 0-203-207-221-372-266-210-57-422-111-422-377 0-267 201-356 470-360 279-5 430 101 480 324l-188 33c-28-141-121-215-293-213" id="av"/><g id="o"><use transform="matrix(0.011935763888888888,0,0,0.011935763888888888,0,0)" xlink:href="#av"/><use transform="matrix(0.011935763888888888,0,0,0.011935763888888888,14.669053819444443,0)" xlink:href="#al"/><use transform="matrix(0.011935763888888888,0,0,0.011935763888888888,29.338107638888886,0)" xlink:href="#am"/></g><g id="p"><use transform="matrix(0.011935763888888888,0,0,0.011935763888888888,0,0)" xlink:href="#as"/><use transform="matrix(0.011935763888888888,0,0,0.011935763888888888,14.669053819444443,0)" xlink:href="#al"/><use transform="matrix(0.011935763888888888,0,0,0.011935763888888888,29.338107638888886,0)" xlink:href="#am"/></g><g id="q"><use transform="matrix(0.011935763888888888,0,0,0.011935763888888888,0,0)" xlink:href="#ak"/><use transform="matrix(0.011935763888888888,0,0,0.011935763888888888,14.669053819444443,0)" xlink:href="#al"/><use transform="matrix(0.011935763888888888,0,0,0.011935763888888888,29.338107638888886,0)" xlink:href="#am"/></g><path fill="#3a414a" d="M611-1370c266 0 451 106 451 368 0 147-77 243-154 327-132 144-316 255-451 395-42 44-75 87-96 134h723V0H144v-117c124-264 387-411 582-603 73-72 151-147 151-271 0-161-104-231-266-231-163 0-249 90-268 238l-184-17c35-233 185-369 452-369" id="aw"/><use transform="matrix(0.010850694444444442,0,0,0.010850694444444442,0,0)" xlink:href="#aw" id="r"/><use transform="matrix(0.011935763888888888,0,0,0.011935763888888888,0,0)" xlink:href="#ar" id="s"/><path fill-opacity="0" d="M102-681c0-398 126-689 513-689 165 0 291 58 379 174s132 287 132 515c0 353-105 610-380 685 49 143 111 234 276 240 36 1 86-7 115-13v134c-94 24-238 34-327-3-143-59-210-191-259-346-336-41-449-320-449-697zm749 406c94-160 97-656-5-807-57-85-130-132-231-132-104 0-178 47-234 132-101 153-99 655 1 809 57 89 130 138 232 138 109 0 184-49 237-140" id="ax"/><g id="t"><use transform="matrix(0.011935763888888888,0,0,0.011935763888888888,0,0)" xlink:href="#ax"/><use transform="matrix(0.011935763888888888,0,0,0.011935763888888888,14.669053819444443,0)" xlink:href="#al"/><use transform="matrix(0.011935763888888888,0,0,0.011935763888888888,29.338107638888886,0)" xlink:href="#an"/></g><g id="u"><use transform="matrix(0.011935763888888888,0,0,0.011935763888888888,0,0)" xlink:href="#al"/><use transform="matrix(0.011935763888888888,0,0,0.011935763888888888,14.669053819444443,0)" xlink:href="#an"/></g><g id="v"><use transform="matrix(0.011935763888888888,0,0,0.011935763888888888,0,0)" xlink:href="#ak"/><use transform="matrix(0.011935763888888888,0,0,0.011935763888888888,14.669053819444443,0)" xlink:href="#al"/><use transform="matrix(0.011935763888888888,0,0,0.011935763888888888,29.338107638888886,0)" xlink:href="#an"/></g><g id="w"><use transform="matrix(0.0065104166666666635,0,0,0.0065104166666666635,0,0)" xlink:href="#ao"/><use transform="matrix(0.0065104166666666635,0,0,0.0065104166666666635,8.001302083333329,0)" xlink:href="#ab"/><use transform="matrix(0.0065104166666666635,0,0,0.0065104166666666635,16.002604166666657,0)" xlink:href="#at"/><use transform="matrix(0.0065104166666666635,0,0,0.0065104166666666635,24.003906249999986,0)" xlink:href="#U"/><use transform="matrix(0.0065104166666666635,0,0,0.0065104166666666635,32.005208333333314,0)" xlink:href="#V"/><use transform="matrix(0.0065104166666666635,0,0,0.0065104166666666635,40.00651041666664,0)" xlink:href="#P"/><use transform="matrix(0.0065104166666666635,0,0,0.0065104166666666635,48.00781249999997,0)" xlink:href="#au"/></g><g id="x"><use transform="matrix(0.011935763888888888,0,0,0.011935763888888888,0,0)" xlink:href="#as"/><use transform="matrix(0.011935763888888888,0,0,0.011935763888888888,14.669053819444443,0)" xlink:href="#al"/><use transform="matrix(0.011935763888888888,0,0,0.011935763888888888,29.338107638888886,0)" xlink:href="#am"/></g><path fill-opacity="0" d="M687-608v428H540v-428H116v-146h424v-428h147v428h424v146H687" id="ay"/><use transform="matrix(0.011935763888888888,0,0,0.011935763888888888,0,0)" xlink:href="#ay" id="y"/><g id="z"><use transform="matrix(0.011935763888888888,0,0,0.011935763888888888,0,0)" xlink:href="#as"/><use transform="matrix(0.011935763888888888,0,0,0.011935763888888888,14.669053819444443,0)" xlink:href="#al"/><use transform="matrix(0.011935763888888888,0,0,0.011935763888888888,29.338107638888886,0)" xlink:href="#an"/></g><g id="A"><use transform="matrix(0.010850694444444442,0,0,0.010850694444444442,0,0)" xlink:href="#Y"/><use transform="matrix(0.010850694444444442,0,0,0.010850694444444442,13.33550347222222,0)" xlink:href="#U"/><use transform="matrix(0.010850694444444442,0,0,0.010850694444444442,26.67100694444444,0)" xlink:href="#U"/><use transform="matrix(0.010850694444444442,0,0,0.010850694444444442,40.00651041666666,0)" xlink:href="#Z"/><use transform="matrix(0.010850694444444442,0,0,0.010850694444444442,53.34201388888888,0)" xlink:href="#Q"/><use transform="matrix(0.010850694444444442,0,0,0.010850694444444442,66.6775173611111,0)" xlink:href="#U"/><use transform="matrix(0.010850694444444442,0,0,0.010850694444444442,80.01302083333331,0)" xlink:href="#aa"/><use transform="matrix(0.010850694444444442,0,0,0.010850694444444442,93.34852430555554,0)" xlink:href="#ab"/><use transform="matrix(0.010850694444444442,0,0,0.010850694444444442,106.68402777777774,0)" xlink:href="#Q"/></g><path fill-opacity="0" d="M195 0l-74-108L45 0H8l94-129-87-119h37l69 98 67-98h37l-84 118L233 0h-38" id="az"/><path fill-opacity="0" d="M-5 72V49h209v23H-5" id="aA"/><path fill-opacity="0" d="M27 0v-27h64v-190l-56 39v-29l58-41h29v221h61V0H27" id="aB"/><g id="B"><use transform="matrix(0.05555555555555555,0,0,0.05555555555555555,0,0)" xlink:href="#az"/><use transform="matrix(0.05555555555555555,0,0,0.05555555555555555,13.333333333333332,0)" xlink:href="#aA"/><use transform="matrix(0.05555555555555555,0,0,0.05555555555555555,24.444444444444443,0)" xlink:href="#aB"/></g><path fill-opacity="0" d="M141 0L90-78 38 0H4l68-98-65-92h35l48 74 47-74h35l-64 92 68 98h-35" id="aC"/><path fill-opacity="0" d="M101-251c82-7 93 87 43 132L82-64C71-53 59-42 53-27h129V0H18c2-99 128-94 128-182 0-28-16-43-45-43s-46 15-49 41l-32-3c6-41 34-60 81-64" id="aD"/><g id="C"><use transform="matrix(0.05555555555555555,0,0,0.05555555555555555,0,0)" xlink:href="#aC"/><use transform="matrix(0.05555555555555555,0,0,0.05555555555555555,10,0)" xlink:href="#aA"/><use transform="matrix(0.05555555555555555,0,0,0.05555555555555555,21.11111111111111,0)" xlink:href="#aD"/></g><use transform="matrix(0.05555555555555555,0,0,0.05555555555555555,0,0)" xlink:href="#aC" id="D"/><path fill="#3a414a" d="M604-135c236 0 291-142 291-376v-838h190v859c5 340-142 510-480 510-326 0-463-164-463-492v-877h191v851c-3 222 46 363 271 363" id="aE"/><path fill="#3a414a" d="M873-819c-18-114-119-146-250-146-163 0-245 50-245 151 0 151 170 148 294 185 182 54 388 94 388 320 0 240-189 325-439 329-245 4-410-69-454-268l159-31c24 133 136 168 295 165 144-2 270-31 270-171 0-164-195-160-331-202-167-52-350-87-350-299 0-218 173-315 413-313 220 2 373 77 412 260" id="aF"/><g id="E"><use transform="matrix(0.009765625,0,0,0.009765625,0,0)" xlink:href="#aE"/><use transform="matrix(0.009765625,0,0,0.009765625,12.001953125,0)" xlink:href="#Q"/><use transform="matrix(0.009765625,0,0,0.009765625,24.00390625,0)" xlink:href="#aF"/><use transform="matrix(0.009765625,0,0,0.009765625,36.005859375,0)" xlink:href="#ap"/><use transform="matrix(0.009765625,0,0,0.009765625,48.0078125,0)" xlink:href="#P"/><use transform="matrix(0.009765625,0,0,0.009765625,60.009765625,0)" xlink:href="#ae"/><use transform="matrix(0.009765625,0,0,0.009765625,72.01171875,0)" xlink:href="#af"/><use transform="matrix(0.009765625,0,0,0.009765625,84.013671875,0)" xlink:href="#Z"/><use transform="matrix(0.009765625,0,0,0.009765625,96.015625,0)" xlink:href="#af"/></g><path fill="#3a414a" d="M1018 0H814c-67-224-138-444-200-673C552-442 476-224 407 0H204L21-1082h178c43 310 105 601 126 933 54-225 128-425 193-638h193c63 212 134 415 185 638 22-336 90-622 136-933h176" id="aG"/><g id="F"><use transform="matrix(0.009765625,0,0,0.009765625,0,0)" xlink:href="#aG"/><use transform="matrix(0.009765625,0,0,0.009765625,12.001953125,0)" xlink:href="#Z"/><use transform="matrix(0.009765625,0,0,0.009765625,24.00390625,0)" xlink:href="#aa"/><use transform="matrix(0.009765625,0,0,0.009765625,36.005859375,0)" xlink:href="#aq"/><use transform="matrix(0.009765625,0,0,0.009765625,48.0078125,0)" xlink:href="#ap"/><use transform="matrix(0.009765625,0,0,0.009765625,60.009765625,0)" xlink:href="#U"/></g><g id="G"><use transform="matrix(0.009765625,0,0,0.009765625,0,0)" xlink:href="#ao"/><use transform="matrix(0.009765625,0,0,0.009765625,12.001953125,0)" xlink:href="#ap"/><use transform="matrix(0.009765625,0,0,0.009765625,24.00390625,0)" xlink:href="#P"/><use transform="matrix(0.009765625,0,0,0.009765625,36.005859375,0)" xlink:href="#ae"/><use transform="matrix(0.009765625,0,0,0.009765625,48.0078125,0)" xlink:href="#af"/><use transform="matrix(0.009765625,0,0,0.009765625,60.009765625,0)" xlink:href="#Z"/><use transform="matrix(0.009765625,0,0,0.009765625,72.01171875,0)" xlink:href="#af"/></g><g id="H"><use transform="matrix(0.009765625,0,0,0.009765625,0,0)" xlink:href="#U"/><use transform="matrix(0.009765625,0,0,0.009765625,12.001953125,0)" xlink:href="#Z"/><use transform="matrix(0.009765625,0,0,0.009765625,24.00390625,0)" xlink:href="#Q"/><use transform="matrix(0.009765625,0,0,0.009765625,36.005859375,0)" xlink:href="#aF"/><use transform="matrix(0.009765625,0,0,0.009765625,48.0078125,0)" xlink:href="#ab"/><use transform="matrix(0.009765625,0,0,0.009765625,60.009765625,0)" xlink:href="#ae"/></g><path fill="#3a414a" d="M891-1484c-201 251-362 514-362 954 0 441 161 704 362 955H701C500 176 342-90 342-532c0-440 159-704 359-952h190" id="aH"/><g id="I"><use transform="matrix(0.009765625,0,0,0.009765625,0,0)" xlink:href="#aH"/><use transform="matrix(0.009765625,0,0,0.009765625,12.001953125,0)" xlink:href="#ae"/><use transform="matrix(0.009765625,0,0,0.009765625,24.00390625,0)" xlink:href="#P"/><use transform="matrix(0.009765625,0,0,0.009765625,36.005859375,0)" xlink:href="#Q"/><use transform="matrix(0.009765625,0,0,0.009765625,48.0078125,0)" xlink:href="#R"/></g><path fill="#3a414a" d="M1065-1013c47 164 49 500-1 665C999-130 875 20 611 20c-377 0-484-300-487-695-2-245 41-425 141-551 77-98 191-144 352-144 261 0 386 140 448 357zM741-155c199-92 203-504 159-785-26-168-96-284-283-284-281 0-308 256-311 549-2 181 18 324 80 428 46 77 115 118 227 120 47 0 90-10 128-28" id="aI"/><path fill="#3a414a" d="M528-1484c201 248 357 511 357 952 0 442-156 709-357 957H336C537 174 700-89 700-530c0-440-163-703-364-954h192" id="aJ"/><g id="J"><use transform="matrix(0.009765625,0,0,0.009765625,0,0)" xlink:href="#aI"/><use transform="matrix(0.009765625,0,0,0.009765625,12.001953125,0)" xlink:href="#aJ"/></g><g id="K"><use transform="matrix(0.009765625,0,0,0.009765625,0,0)" xlink:href="#S"/><use transform="matrix(0.009765625,0,0,0.009765625,12.001953125,0)" xlink:href="#aJ"/></g><g id="L"><use transform="matrix(0.009765625,0,0,0.009765625,0,0)" xlink:href="#O"/><use transform="matrix(0.009765625,0,0,0.009765625,12.001953125,0)" xlink:href="#Z"/><use transform="matrix(0.009765625,0,0,0.009765625,24.00390625,0)" xlink:href="#ai"/><use transform="matrix(0.009765625,0,0,0.009765625,36.005859375,0)" xlink:href="#X"/><use transform="matrix(0.009765625,0,0,0.009765625,48.0078125,0)" xlink:href="#aa"/><use transform="matrix(0.009765625,0,0,0.009765625,60.009765625,0)" xlink:href="#ag"/><use transform="matrix(0.009765625,0,0,0.009765625,72.01171875,0)" xlink:href="#P"/><use transform="matrix(0.009765625,0,0,0.009765625,84.013671875,0)" xlink:href="#U"/><use transform="matrix(0.009765625,0,0,0.009765625,96.015625,0)" xlink:href="#Z"/><use transform="matrix(0.009765625,0,0,0.009765625,108.017578125,0)" xlink:href="#af"/></g><g id="M"><use transform="matrix(0.009765625,0,0,0.009765625,0,0)" xlink:href="#U"/><use transform="matrix(0.009765625,0,0,0.009765625,12.001953125,0)" xlink:href="#Z"/><use transform="matrix(0.009765625,0,0,0.009765625,24.00390625,0)" xlink:href="#Q"/><use transform="matrix(0.009765625,0,0,0.009765625,36.005859375,0)" xlink:href="#aF"/><use transform="matrix(0.009765625,0,0,0.009765625,48.0078125,0)" xlink:href="#ab"/><use transform="matrix(0.009765625,0,0,0.009765625,60.009765625,0)" xlink:href="#ae"/></g><path fill="#3a414a" d="M1003 0L516-638 353-469V0H162v-1349h191v673l572-673h225L646-777 1227 0h-224" id="aK"/><g id="N"><use transform="matrix(0.009765625,0,0,0.009765625,0,0)" xlink:href="#aK"/><use transform="matrix(0.009765625,0,0,0.009765625,12.001953125,0)" xlink:href="#Z"/><use transform="matrix(0.009765625,0,0,0.009765625,24.00390625,0)" xlink:href="#ad"/><use transform="matrix(0.009765625,0,0,0.009765625,36.005859375,0)" xlink:href="#aj"/></g></defs></g></svg>