<svg xmlns="http://www.w3.org/2000/svg" xmlns:xlink="http://www.w3.org/1999/xlink" xmlns:lucid="lucid" width="1300" height="610"><g transform="translate(0 0)" lucid:page-tab-id="0_0"><path d="M210.54 135.62a6 6 0 0 1 6-6h28a6 6 0 0 1 6 6v68a6 6 0 0 1-6 6h-28a6 6 0 0 1-6-6z" stroke="#3a414a" fill="#ffdda6"/><use xlink:href="#a" transform="matrix(1,0,0,1,215.54150866635814,134.62025316455697) translate(-7.003580729166664 41.50499131944444)"/><path d="M250 135.62a6 6 0 0 1 6-6h28a6 6 0 0 1 6 6v68a6 6 0 0 1-6 6h-28a6 6 0 0 1-6-6z" stroke="#3a414a" fill="#cfe4ff"/><use xlink:href="#b" transform="matrix(1,0,0,1,254.99999999999997,134.62025316455697) translate(0.8309461805555571 42.53797743055556)"/><path d="M110 165.24a6 6 0 0 1 6-6h46a5.06 5.06 0 0 0 5.07-5.06 1.94 1.94 0 0 1 3.38-1.3l10.83 12.03a6.67 6.67 0 0 1 0 8.93l-10.83 12.03a1.94 1.94 0 0 1-3.38-1.3 5.06 5.06 0 0 0-5.07-5.07h-46a6 6 0 0 1-6-6z" stroke="#3a414a" fill="#fff"/><use xlink:href="#c" transform="matrix(1,0,0,1,114.99999999999999,154.11392405063293) translate(0.9947916666666856 19.048177083333332)"/><path d="M10 237.62a6 6 0 0 1 6-6h100.94a6 6 0 0 1 6 6V256a6 6 0 0 1-6 6H16a6 6 0 0 1-6-6z" stroke="#000" stroke-opacity="0" fill="#fff" fill-opacity="0"/><use xlink:href="#d" transform="matrix(1,0,0,1,15.000000000000028,236.62025316455697) translate(0 19.812934027777775)"/><use xlink:href="#e" transform="matrix(1,0,0,1,15.000000000000028,236.62025316455697) translate(66.6775173611111 19.812934027777775)"/><path d="M10 405.62a6 6 0 0 1 6-6h100.94a6 6 0 0 1 6 6V424a6 6 0 0 1-6 6H16a6 6 0 0 1-6-6z" stroke="#000" stroke-opacity="0" fill="#fff" fill-opacity="0"/><use xlink:href="#d" transform="matrix(1,0,0,1,15.000000000000028,404.6202531645569) translate(0 19.812934027777775)"/><use xlink:href="#f" transform="matrix(1,0,0,1,15.000000000000028,404.6202531645569) translate(66.6775173611111 19.812934027777775)"/><path d="M10.5 230.62a.5.5 0 0 1 .5-.5h408a.5.5 0 0 1 .5.5.5.5 0 0 1-.5.5H11a.5.5 0 0 1-.5-.5z" fill="none"/><path d="M22.77 230.12h7.84m7.86 0h7.85m7.85 0H62m7.85 0h7.84m7.84 0h7.84m7.85 0h7.85m7.84 0h7.85m7.85 0h7.84m7.85 0h7.85m7.85 0h7.85m7.84 0h7.84m7.84 0h7.85m7.85 0h7.84m7.85 0h7.84m7.86 0h7.85m7.85 0H266m7.85 0h7.84m7.84 0h7.84m7.85 0h7.85m7.84 0h7.85m7.85 0h7.84m7.85 0h7.85m7.85 0h7.85m7.84 0h7.84m7.84 0h7.85m7.85 0h4l.07.03.08.03.06.04.05.05.05.06.05.06.03.07v.07l.02.08v.08l-.02.08-.03.07-.05.06-.05.07-.06.06-.07.04-.08.03h-.07l-.08.02h-3.92m-7.85 0h-7.85m-7.84 0h-7.85m-7.85 0H368m-7.85 0h-7.84m-7.84 0h-7.84m-7.85 0h-7.85m-7.84 0h-7.85m-7.85 0h-7.84m-7.85 0h-7.85m-7.85 0h-7.85m-7.84 0h-7.84m-7.84 0h-7.85m-7.85 0h-7.84m-7.85 0h-7.84m-7.86 0h-7.85m-7.85 0H164m-7.85 0h-7.84m-7.84 0h-7.84m-7.85 0h-7.85m-7.84 0h-7.85m-7.84 0h-7.86m-7.85 0h-7.85m-7.85 0h-7.85m-7.84 0h-7.84m-7.85 0h-7.83m-7.85 0h-4l-.07-.02-.08-.03-.06-.04-.05-.06-.05-.06-.04-.05-.04-.07v-.08l-.02-.08v-.08l.02-.07.03-.08.04-.07.05-.06.06-.05.07-.04.08-.03.07-.02h4" stroke="#3a414a" fill="none"/><path d="M168.35 575.62a6 6 0 0 1 6-6H275.3a6 6 0 0 1 6 6V594a6 6 0 0 1-6 6H174.34a6 6 0 0 1-6-6z" stroke="#000" stroke-opacity="0" fill="#fff" fill-opacity="0"/><use xlink:href="#g" transform="matrix(1,0,0,1,173.34964458638095,574.620253164557) translate(11.49348958333335 19.81293402777777)"/><path d="M308.35 575.62a6 6 0 0 1 6-6H415.3a6 6 0 0 1 6 6V594a6 6 0 0 1-6 6H314.34a6 6 0 0 1-6-6z" stroke="#000" stroke-opacity="0" fill="#fff" fill-opacity="0"/><use xlink:href="#h" transform="matrix(1,0,0,1,313.3496445863809,574.620253164557) translate(-8.509765624999972 18.50043402777777)"/><path d="M120 345.62a6 6 0 0 1 6-6h68a6 6 0 0 1 6 6v28a6 6 0 0 1-6 6h-68a6 6 0 0 1-6-6z" stroke="#3a414a" fill="#e3fae3"/><use xlink:href="#i" transform="matrix(1,0,0,1,125,344.62025316455697) translate(27.66547309027778 22.287977430555554)"/><path d="M870 325.62a6 6 0 0 1 6-6h68a6 6 0 0 1 6 6v28a6 6 0 0 1-6 6h-68a6 6 0 0 1-6-6z" stroke="#3a414a" fill="#e3fae3"/><use xlink:href="#j" transform="matrix(1,0,0,1,875,324.62025316455697) translate(12.996419270833336 20.350477430555554)"/><use xlink:href="#k" transform="matrix(1,0,0,1,875,324.62025316455697) translate(27.66547309027778 48.04144965277777)"/><use xlink:href="#l" transform="matrix(1,0,0,1,875,324.62025316455697) translate(12.996419270833336 75.732421875)"/><path d="M210 345.62a6 6 0 0 1 6-6h28a6 6 0 0 1 6 6v28a6 6 0 0 1-6 6h-28a6 6 0 0 1-6-6z" stroke="#3a414a" fill="#ffdda6"/><use xlink:href="#m" transform="matrix(1,0,0,1,215,344.62025316455697) translate(-7.003580729166664 21.504991319444443)"/><path d="M550 385.6a6 6 0 0 1 6-6h28a6 6 0 0 1 6 6v28a6 6 0 0 1-6 6h-28a6 6 0 0 1-6-6z" stroke="#3a414a" fill="#e3fae3"/><use xlink:href="#i" transform="matrix(1,0,0,1,555,384.60759507807063) translate(7.665473090277779 22.225477430555554)"/><path d="M10 15.62a6 6 0 0 1 6-6h388a6 6 0 0 1 6 6v38a6 6 0 0 1-6 6H16a6 6 0 0 1-6-6z" stroke="#000" stroke-opacity="0" fill="#dfe3e8"/><use xlink:href="#n" transform="matrix(1,0,0,1,15.000000000000028,14.62025316455697) translate(61.644965277777885 26.00043402777776)"/><use xlink:href="#o" transform="matrix(1,0,0,1,15.000000000000028,14.62025316455697) translate(154.99348958333337 26.00043402777776)"/><use xlink:href="#p" transform="matrix(1,0,0,1,15.000000000000028,14.62025316455697) translate(221.67100694444443 26.00043402777776)"/><path d="M210 255.62a6 6 0 0 1 6-6h28a6 6 0 0 1 6 6v68a6 6 0 0 1-6 6h-28a6 6 0 0 1-6-6z" stroke="#3a414a" fill="#ffdda6"/><use xlink:href="#a" transform="matrix(1,0,0,1,215,254.62025316455697) translate(-7.003580729166664 41.50499131944444)"/><path d="M120 515.6a6 6 0 0 1 6-6h68a6 6 0 0 1 6 6v28a6 6 0 0 1-6 6h-68a6 6 0 0 1-6-6z" stroke="#3a414a" fill="#e3fae3"/><use xlink:href="#i" transform="matrix(1,0,0,1,125,514.6075950780706) translate(27.66547309027778 22.287977430555554)"/><path d="M249.73 515.6a6 6 0 0 1 6-6h28a6 6 0 0 1 6 6v28a6 6 0 0 1-6 6h-28a6 6 0 0 1-6-6z" stroke="#3a414a" fill="#cfe4ff"/><use xlink:href="#q" transform="matrix(1,0,0,1,254.72924566682082,514.6075950780706) translate(-7.003580729166664 21.504991319444443)"/><path d="M250 425.6a6 6 0 0 1 6-6h28a6 6 0 0 1 6 6v68a6 6 0 0 1-6 6h-28a6 6 0 0 1-6-6z" stroke="#3a414a" fill="#cfe4ff"/><use xlink:href="#b" transform="matrix(1,0,0,1,255,424.60759507807063) translate(0.33094618055555713 42.22547743055556)"/><path d="M330 345.62a6 6 0 0 1 6-6h28a6 6 0 0 1 6 6v28a6 6 0 0 1-6 6h-28a6 6 0 0 1-6-6z" stroke="#3a414a" fill="#e3fae3"/><use xlink:href="#r" transform="matrix(1,0,0,1,335,344.62025316455697) translate(7.665473090277779 22.225477430555554)"/><path d="M370 515.6a6 6 0 0 1 6-6h28a6 6 0 0 1 6 6v28a6 6 0 0 1-6 6h-28a6 6 0 0 1-6-6z" stroke="#3a414a" fill="#e3fae3"/><use xlink:href="#r" transform="matrix(1,0,0,1,375,514.6075950780706) translate(7.665473090277779 22.225477430555554)"/><path d="M330 515.6a6 6 0 0 1 6-6h28a6 6 0 0 1 6 6v28a6 6 0 0 1-6 6h-28a6 6 0 0 1-6-6z" stroke="#3a414a" fill="#e3fae3"/><use xlink:href="#r" transform="matrix(1,0,0,1,335,514.6075950780706) translate(7.665473090277779 22.225477430555554)"/><path d="M370 345.62a6 6 0 0 1 6-6h28a6 6 0 0 1 6 6v28a6 6 0 0 1-6 6h-28a6 6 0 0 1-6-6z" stroke="#3a414a" fill="#e3fae3"/><use xlink:href="#r" transform="matrix(1,0,0,1,375,344.62025316455697) translate(7.665473090277779 22.225477430555554)"/><path d="M230.54 210.62v22.12" stroke="#3a414a" fill="none"/><path d="M231.04 210.63h-1v-.5h1z" stroke="#3a414a" stroke-width=".05" fill="#3a414a"/><path d="M230.54 247.5l-4.63-14.26h9.28z" stroke="#3a414a" fill="#3a414a"/><path d="M270 210.62v192.1" stroke="#3a414a" fill="none"/><path d="M270.5 210.63h-1v-.5h1z" stroke="#3a414a" stroke-width=".05" fill="#3a414a"/><path d="M270 417.5l-4.63-14.28h9.26z" stroke="#3a414a" fill="#3a414a"/><path d="M251 359.62h62.12" stroke="#3a414a" stroke-linejoin="round" fill="none"/><path d="M251 360.12h-.5v-1h.5z" stroke="#3a414a" stroke-width=".05" fill="#3a414a"/><path d="M327.88 359.62l-14.26 4.64V355z" stroke="#3a414a" fill="#3a414a"/><path d="M251 359.63l3.57.07 3.9.25 3.7.4 3.6.52 3.43.65 3.34.8 3.23.9 3.14 1 3.08 1.15 3 1.26 2.94 1.38 2.9 1.52 2.84 1.65 2.8 1.78 2.8 1.94 2.75 2.08 2.75 2.27 2.73 2.46 2.7 2.67 2.72 2.88 2.7 3.13 2.7 3.4 2.7 3.7 2.67 4.06 2.68 4.4 2.65 4.85 2.63 5.28 2.58 5.8 2.53 6.38 2.43 6.98 2.3 7.66 2.16 8.36 1.93 9.1 1.65 9.8 1.33 10.52.93 11.08.04.97" stroke="#3a414a" stroke-linejoin="round" fill="none"/><path d="M251.03 359.13l-.03 1h-.5v-1z" stroke="#3a414a" stroke-width=".05" fill="#3a414a"/><path d="M349.95 507.5l-5.07-14.13 9.27-.28z" stroke="#3a414a" fill="#3a414a"/><path d="M290.73 529.6l1.4-.05 1.7-.16 1.54-.25 1.42-.32 1.32-.38 1.26-.45 1.2-.52 1.14-.58 1.1-.65 1.1-.74 1.08-.83 1.08-.94 1.1-1.1 1.1-1.25 1.17-1.5 1.23-1.78 1.33-2.24 1.5-2.9 1.8-4.15 2.77-7.66 8.6-25.8 2.5-5.77 2.25-4.37 2.13-3.57 2.07-3.02 2.06-2.63 2.06-2.33 2.1-2.1 2.1-1.82 22.75-19.37 5.77-5.9 4-4.74 3.08-4.2 2.46-3.95 2.04-3.84 1.68-3.82 1.4-3.92 1-3.6" stroke="#3a414a" stroke-linejoin="round" fill="none"/><path d="M290.76 530.1h-.53v-1h.5z" stroke="#3a414a" stroke-width=".05" fill="#3a414a"/><path d="M389.8 381.73l2.96 14.7-9.2-1.07z" stroke="#3a414a" fill="#3a414a"/><path d="M290.73 529.6h22.4" stroke="#3a414a" fill="none"/><path d="M290.74 530.1h-.5v-1h.5z" stroke="#3a414a" stroke-width=".05" fill="#3a414a"/><path d="M327.88 529.6l-14.26 4.64v-9.27z" stroke="#3a414a" fill="#3a414a"/><path d="M654.7 165.24a6 6 0 0 1 6-6h46a5.06 5.06 0 0 0 5.07-5.06 1.94 1.94 0 0 1 3.4-1.3l10.82 12.03a6.67 6.67 0 0 1 0 8.93l-10.84 12.03a1.94 1.94 0 0 1-3.4-1.3 5.06 5.06 0 0 0-5.05-5.07h-46a6 6 0 0 1-6-6z" stroke="#3a414a" fill="#fff"/><use xlink:href="#c" transform="matrix(1,0,0,1,659.7058823529412,154.11392405063293) translate(0.9947916666666856 19.048177083333332)"/><path d="M650 325.62a6 6 0 0 1 6-6h28a6 6 0 0 1 6 6v28a6 6 0 0 1-6 6h-28a6 6 0 0 1-6-6z" stroke="#3a414a" fill="#ffdda6"/><use xlink:href="#s" transform="matrix(1,0,0,1,655,324.62025316455697) translate(-7.003580729166664 22.004991319444443)"/><path d="M750 325.62a6 6 0 0 1 6-6h68a6 6 0 0 1 6 6v28a6 6 0 0 1-6 6h-68a6 6 0 0 1-6-6z" stroke="#3a414a" fill="#ffdda6"/><use xlink:href="#m" transform="matrix(1,0,0,1,755,324.620253164557) translate(13.496419270833336 22.225477430555554)"/><path d="M550 15.62a6 6 0 0 1 6-6h388a6 6 0 0 1 6 6v38a6 6 0 0 1-6 6H556a6 6 0 0 1-6-6z" stroke="#000" stroke-opacity="0" fill="#dfe3e8"/><use xlink:href="#t" transform="matrix(1,0,0,1,555,14.62025316455697) translate(81.6482204861112 26.00043402777776)"/><use xlink:href="#o" transform="matrix(1,0,0,1,555,14.62025316455697) translate(134.99023437500006 26.00043402777776)"/><use xlink:href="#p" transform="matrix(1,0,0,1,555,14.62025316455697) translate(201.6677517361111 26.00043402777776)"/><path d="M690 495.6a6 6 0 0 1 6-6h28a6 6 0 0 1 6 6v28a6 6 0 0 1-6 6h-28a6 6 0 0 1-6-6z" stroke="#3a414a" fill="#cfe4ff"/><use xlink:href="#q" transform="matrix(1,0,0,1,695,494.60759521654643) translate(-7.003580729166664 22.004991319444443)"/><path d="M831 339.62l22.12.18" stroke="#3a414a" stroke-linejoin="round" fill="none"/><path d="M831.02 339.12v1h-.52v-1z" stroke="#3a414a" stroke-width=".05" fill="#3a414a"/><path d="M867.88 339.92l-14.3 4.52.07-9.27z" stroke="#3a414a" fill="#3a414a"/><path d="M831 339.64l7.3.32 5.8.8 4.65 1.1 3.88 1.3 3.4 1.52 3.08 1.72 2.9 2 2.82 2.37 2.86 2.9 3.07 3.75 3.6 5.36 5.34 9.88 4.56 9.88 4.3 10.34 5.18 14.27 5.22 16.77 4.33 16.56 3.05 14.43 1.93 11.8.7 6.08" stroke="#3a414a" stroke-linejoin="round" fill="none"/><path d="M831.03 339.14l-.04 1-.5-.02v-1z" stroke="#3a414a" stroke-width=".05" fill="#3a414a"/><path d="M909.9 487.5l-5.5-13.94 9.24-.58z" stroke="#3a414a" fill="#3a414a"/><path d="M831 509.22l2.6-.12 2.46-.35 2.07-.5 1.76-.6 1.56-.72 1.4-.8 1.33-.94 1.23-1.1 1.2-1.25 1.22-1.53 1.24-1.92 1.34-2.6 1.66-4.16 6.93-21.18 1.66-3.2 1.58-2.47 1.6-2.04 1.66-1.73 1.76-1.52 1.9-1.33 2.1-1.22 2.4-1.08.86-.33 1.3-.5 1.3-.6 1.3-.68 1.32-.77 1.32-.88 1.34-1 1.37-1.1 1.4-1.27 1.44-1.45 1.48-1.66 1.54-1.9 1.6-2.22 1.65-2.57 1.74-3.02 1.8-3.57 1.9-4.25 1.95-5.1 2-6.17 2-7.48 1.93-9.03 1.7-10.7 1.3-12.03.12-2.1" stroke="#3a414a" stroke-linejoin="round" fill="none"/><path d="M831.04 509.72l-.54.02v-1l.5-.02z" stroke="#3a414a" stroke-width=".05" fill="#3a414a"/><path d="M909.93 361.74l4.07 14.44-9.27-.37z" stroke="#3a414a" fill="#3a414a"/><path d="M821.27 509.92l31.85-.4M821.28 509.92h-.5" stroke="#3a414a" fill="none"/><path d="M867.88 509.32l-14.2 4.82-.12-9.27z" stroke="#3a414a" fill="#3a414a"/><path d="M870 495.62a6 6 0 0 1 6-6h68a6 6 0 0 1 6 6v28a6 6 0 0 1-6 6h-68a6 6 0 0 1-6-6z" stroke="#3a414a" fill="#e3fae3"/><use xlink:href="#j" transform="matrix(1,0,0,1,875,494.6202533030327) translate(12.996419270833336 20.350477430555554)"/><use xlink:href="#k" transform="matrix(1,0,0,1,875,494.6202533030327) translate(27.66547309027778 48.04144965277777)"/><use xlink:href="#l" transform="matrix(1,0,0,1,875,494.6202533030327) translate(12.996419270833336 75.732421875)"/><path d="M750 495.24a6 6 0 0 1 6-6h68a6 6 0 0 1 6 6v28a6 6 0 0 1-6 6h-68a6 6 0 0 1-6-6z" stroke="#3a414a" fill="#cfe4ff"/><use xlink:href="#u" transform="matrix(1,0,0,1,755,494.2405066089516) translate(13.496419270833336 22.225477430555554)"/><path d="M10.5 400.62a.5.5 0 0 1 .5-.5h408a.5.5 0 0 1 .5.5.5.5 0 0 1-.5.5H11a.5.5 0 0 1-.5-.5z" fill="none"/><path d="M22.77 400.12h7.84m7.86 0h7.85m7.85 0H62m7.85 0h7.84m7.84 0h7.84m7.85 0h7.85m7.84 0h7.85m7.85 0h7.84m7.85 0h7.85m7.85 0h7.85m7.84 0h7.84m7.84 0h7.85m7.85 0h7.84m7.85 0h7.84m7.86 0h7.85m7.85 0H266m7.85 0h7.84m7.84 0h7.84m7.85 0h7.85m7.84 0h7.85m7.85 0h7.84m7.85 0h7.85m7.85 0h7.85m7.84 0h7.84m7.84 0h7.85m7.85 0h4l.07.02.08.04.06.04.05.05.05.06.05.06.03.07v.07l.02.08v.08l-.02.07-.03.08-.05.06-.05.07-.06.05-.07.05-.08.03h-.07l-.08.02h-3.92m-7.85 0h-7.85m-7.84 0h-7.85m-7.85 0H368m-7.85 0h-7.84m-7.84 0h-7.84m-7.85 0h-7.85m-7.84 0h-7.85m-7.85 0h-7.84m-7.85 0h-7.85m-7.85 0h-7.85m-7.84 0h-7.84m-7.84 0h-7.85m-7.85 0h-7.84m-7.85 0h-7.84m-7.86 0h-7.85m-7.85 0H164m-7.85 0h-7.84m-7.84 0h-7.84m-7.85 0h-7.85m-7.84 0h-7.85m-7.84 0h-7.86m-7.85 0h-7.85m-7.85 0h-7.85m-7.84 0h-7.84m-7.85 0h-7.83m-7.85 0h-4l-.07-.02-.08-.03-.06-.05-.05-.05-.05-.06-.04-.05-.04-.08v-.07l-.02-.08v-.08l.02-.07.03-.08.04-.07.05-.06.06-.05.07-.05.08-.03h.07l.08-.02h3.92" stroke="#3a414a" fill="none"/><path d="M10.5 570.62a.5.5 0 0 1 .5-.5h408a.5.5 0 0 1 .5.5.5.5 0 0 1-.5.5H11a.5.5 0 0 1-.5-.5z" fill="none"/><path d="M22.77 570.12h7.84m7.86 0h7.85m7.85 0H62m7.85 0h7.84m7.84 0h7.84m7.85 0h7.85m7.84 0h7.85m7.85 0h7.84m7.85 0h7.85m7.85 0h7.85m7.84 0h7.84m7.84 0h7.85m7.85 0h7.84m7.85 0h7.84m7.86 0h7.85m7.85 0H266m7.85 0h7.84m7.84 0h7.84m7.85 0h7.85m7.84 0h7.85m7.85 0h7.84m7.85 0h7.85m7.85 0h7.85m7.84 0h7.84m7.84 0h7.85m7.85 0h4l.07.02.08.03.06.05.05.05.05.06.05.06.03.07v.07l.02.08v.08l-.02.07-.03.08-.05.06-.05.07-.06.05-.07.05-.08.03h-.07l-.08.02h-3.92m-7.85 0h-7.85m-7.84 0h-7.85m-7.85 0H368m-7.85 0h-7.84m-7.84 0h-7.84m-7.85 0h-7.85m-7.84 0h-7.85m-7.85 0h-7.84m-7.85 0h-7.85m-7.85 0h-7.85m-7.84 0h-7.84m-7.84 0h-7.85m-7.85 0h-7.84m-7.85 0h-7.84m-7.86 0h-7.85m-7.85 0H164m-7.85 0h-7.84m-7.84 0h-7.84m-7.85 0h-7.85m-7.84 0h-7.85m-7.84 0h-7.86m-7.85 0h-7.85m-7.85 0h-7.85m-7.84 0h-7.84m-7.85 0h-7.83m-7.85 0h-4l-.07-.02-.08-.03-.06-.05-.05-.05-.05-.06-.04-.05-.04-.08v-.07l-.02-.08v-.08l.02-.07.03-.08.04-.07.05-.06.06-.05.07-.05.08-.02.07-.02h4" stroke="#3a414a" fill="none"/><path d="M690 575.62a6 6 0 0 1 6-6h100.94a6 6 0 0 1 6 6V594a6 6 0 0 1-6 6H696a6 6 0 0 1-6-6z" stroke="#000" stroke-opacity="0" fill="#fff" fill-opacity="0"/><use xlink:href="#g" transform="matrix(1,0,0,1,694.9999999999999,574.620253164557) translate(11.49348958333335 19.81293402777777)"/><path d="M837.06 575.62a6 6 0 0 1 6-6H944a6 6 0 0 1 6 6V594a6 6 0 0 1-6 6H843.06a6 6 0 0 1-6-6z" stroke="#000" stroke-opacity="0" fill="#fff" fill-opacity="0"/><use xlink:href="#v" transform="matrix(1,0,0,1,842.0588235294117,574.620253164557) translate(-8.509765624999972 18.50043402777777)"/><path d="M220 163.82h21.88v16.24H220z" fill="#fff" fill-opacity="0"/><path d="M237.58 165.55l-.06.26c-1.06.06-1.74.7-2.14 1.24l-7 9.2h-.46v-7.06h-.17l-4.75 7.06h-.46v-9.1c0-.87-.53-1.33-1.42-1.33h-.16l.06-.25h4.6l-.06.26h-.1c-.64 0-1.23 0-1.23 1.14v6.02h.08l3.62-5.3v-.97c0-.5-.3-.9-1.3-.9h-.14l.07-.25h4.55l-.06.26h-.3c-.98 0-1.13.6-1.13 1.16v6.3h.1l4.45-5.9c.27-.35.64-.85.64-1.15 0-.25-.22-.4-.88-.4h-.27l.07-.25h3.86M239.08 178.38h-3.12v-.17c.84-.04 1.07-.27 1.07-.9v-5.06c0-.4-.1-.56-.34-.56-.12 0-.3.06-.5.14l-.32.1v-.15l2.02-1.03.1.04v6.74c0 .48.23.7 1.08.7v.16" fill="#303f49"/><path d="M220 281.5h21.88v16.24H220z" fill="#fff" fill-opacity="0"/><path d="M237.58 283.24l-.06.25c-1.06.04-1.74.7-2.14 1.22l-7 9.2h-.46v-7.06h-.17l-4.75 7.06h-.46v-9.1c0-.87-.53-1.33-1.42-1.33h-.16l.06-.26h4.6l-.06.25h-.1c-.64 0-1.23 0-1.23 1.13v6.02h.08l3.62-5.3v-.98c0-.5-.3-.88-1.3-.88h-.14l.07-.26h4.55l-.06.25h-.3c-.98 0-1.13.58-1.13 1.14v6.3h.1l4.45-5.9c.27-.35.64-.85.64-1.15 0-.26-.22-.4-.88-.4h-.27l.07-.26h3.86M239.08 296.06h-3.12v-.17c.84-.05 1.07-.3 1.07-.9v-5.08c0-.4-.1-.56-.34-.56-.12 0-.3.06-.5.14l-.32.1v-.15l2.02-1.02.1.03v6.74c0 .5.23.7 1.08.7v.16" fill="#303f49"/><path d="M260 163.82h21.88v16.24H260z" fill="#fff" fill-opacity="0"/><path d="M277.58 165.55l-.06.26c-1.06.06-1.74.7-2.14 1.24l-7 9.2h-.46v-7.06h-.18l-4.74 7.06h-.46v-9.1c0-.87-.53-1.33-1.42-1.33h-.16l.06-.25h4.6l-.06.26h-.1c-.64 0-1.23 0-1.23 1.14v6.02h.08l3.62-5.3v-.97c0-.5-.3-.9-1.3-.9h-.14l.07-.25h4.55l-.06.26h-.3c-.98 0-1.13.6-1.13 1.16v6.3h.1l4.45-5.9c.27-.35.64-.85.64-1.15 0-.25-.22-.4-.88-.4h-.27l.07-.25h3.86M279.98 176.83l-.6 1.55h-4.43v-.14l2-2.13c1.08-1.1 1.48-1.97 1.48-2.93 0-1.02-.6-1.6-1.57-1.6-.8 0-1.2.37-1.66 1.48l-.23-.06c.23-1.33.96-2.25 2.34-2.25 1.3 0 2.1.86 2.1 1.98 0 .9-.44 1.74-1.44 2.8l-1.86 2h2.64c.47 0 .7-.13 1.08-.77" fill="#303f49"/><path d="M258.8 451.5h21.87v16.23H258.8z" fill="#fff" fill-opacity="0"/><path d="M276.37 453.22l-.06.26c-1.05.05-1.74.7-2.13 1.23l-7 9.2h-.46v-7.05h-.17l-4.74 7.06h-.47v-9.08c0-.88-.53-1.34-1.43-1.34h-.15l.06-.26h4.6l-.06.26h-.1c-.63 0-1.22 0-1.22 1.13v6.03h.08l3.6-5.3v-.97c0-.5-.3-.88-1.3-.88h-.13l.06-.26h4.56l-.08.26h-.3c-.98 0-1.12.6-1.12 1.15v6.3h.1l4.44-5.9c.27-.35.63-.85.63-1.15 0-.26-.2-.4-.86-.4h-.26l.06-.26h3.87M278.77 464.5l-.6 1.55h-4.43v-.14l2-2.12c1.07-1.12 1.48-1.98 1.48-2.94 0-1.02-.6-1.6-1.57-1.6-.8 0-1.2.37-1.66 1.48l-.25-.06c.24-1.32.96-2.25 2.35-2.25 1.28.02 2.1.88 2.1 2 0 .9-.45 1.74-1.45 2.8l-1.87 2h2.64c.48 0 .72-.13 1.1-.77" fill="#303f49"/><path d="M153.53 352.5h12.94v14.23h-12.94z" fill="#fff" fill-opacity="0"/><path d="M166.46 354.25l-.06.25h-.06c-1.1 0-1.57.5-2.16 1.2l-3 3.4 1.55 4.23c.2.55.46 1.1 1.26 1.1h.2l-.05.25h-4.5l.07-.26h.18c.6 0 1.07-.06 1.07-.65 0-.13-.02-.26-.06-.42l-1.1-3.1-2.9 3.2c-.13.17-.18.32-.18.46 0 .3.3.52.9.52h.35l-.07.26h-3.97l.06-.26c.85-.1 1.64-.6 2.23-1.23l3.32-3.68-1.36-3.7c-.18-.5-.46-1.32-1.64-1.32h-.14l.06-.25H161l-.06.25h-.3c-.48 0-.84.07-.84.56 0 .13.04.27.1.45l.96 2.87 2.62-2.94c.14-.18.24-.37.24-.54-.02-.27-.2-.4-.72-.4h-.15l.07-.25h3.54" fill="#303f49"/><path d="M153.53 522.5h12.94v14.22h-12.94z" fill="#fff" fill-opacity="0"/><path d="M166.46 524.24l-.06.25h-.06c-1.1 0-1.57.5-2.16 1.17l-3 3.4 1.55 4.25c.2.54.46 1.1 1.26 1.1h.2l-.05.24h-4.5l.07-.25h.18c.6 0 1.07-.06 1.07-.65 0-.13-.02-.25-.06-.4l-1.1-3.1-2.9 3.2c-.13.16-.18.3-.18.45 0 .3.3.5.9.5h.35l-.07.26h-3.97l.06-.25c.85-.1 1.64-.58 2.23-1.22l3.32-3.67-1.36-3.68c-.18-.5-.46-1.33-1.64-1.33h-.14l.06-.26H161l-.06.25h-.3c-.48 0-.84.05-.84.55 0 .13.04.27.1.45l.96 2.86 2.62-2.94c.14-.18.24-.37.24-.55-.02-.25-.2-.38-.72-.38h-.15l.07-.26h3.54" fill="#303f49"/><path d="M222.64 352.5h15.8v16.25h-15.8z" fill="#fff" fill-opacity="0"/><path d="M233.74 354.25l-.06.25c-.88.07-1.5.5-1.98 1.1l-3.34 4.1-.94 3.73c-.04.14-.05.24-.05.42 0 .33.3.57 1.2.57h.33l-.06.26h-5.24l.06-.26h.28c1.22 0 1.54-.45 1.67-1l1-3.92-1.44-3.78c-.27-.72-.73-1.22-1.96-1.22l.06-.25h4.78l-.06.25h-.3c-.8 0-.93.24-.93.64 0 .15.07.32.1.43l1.2 3.3h.07l2.78-3.38c.2-.25.25-.37.25-.55 0-.3-.33-.45-1.26-.45l.06-.25h3.78M235.63 367.07h-3.1v-.17c.82-.04 1.06-.28 1.06-.9v-5.07c0-.38-.1-.55-.35-.55-.1 0-.3.05-.5.13l-.3.13v-.16l2-1.03.1.03v6.74c0 .5.24.7 1.08.7v.17" fill="#303f49"/><path d="M342.1 352.5h15.8v16.25h-15.8z" fill="#fff" fill-opacity="0"/><path d="M353.2 354.25l-.06.25c-.88.07-1.5.5-2 1.1l-3.32 4.1-.94 3.73c-.04.14-.05.24-.05.42 0 .33.28.57 1.2.57h.33l-.06.26h-5.24l.06-.26h.27c1.22 0 1.54-.45 1.67-1l.97-3.92-1.42-3.78c-.27-.72-.73-1.22-1.96-1.22l.06-.25h4.78l-.07.25h-.3c-.8 0-.93.24-.93.64 0 .15.08.32.12.43l1.2 3.3h.06l2.78-3.38c.2-.25.25-.37.25-.55 0-.3-.32-.45-1.25-.45l.06-.25h3.8M355.1 367.07h-3.12v-.17c.83-.04 1.07-.28 1.07-.9v-5.07c0-.38-.1-.55-.34-.55-.1 0-.3.05-.5.13l-.3.13v-.16l2.02-1.03.1.03v6.74c0 .5.23.7 1.07.7v.17" fill="#303f49"/><path d="M342.1 522.5h15.8v16.24h-15.8z" fill="#fff" fill-opacity="0"/><path d="M353.2 524.24l-.06.25c-.88.05-1.5.5-2 1.1l-3.32 4.08-.94 3.74c-.04.14-.05.24-.05.4 0 .35.28.6 1.2.6h.33l-.06.24h-5.24l.06-.25h.27c1.22 0 1.54-.44 1.67-.98l.97-3.93-1.42-3.8c-.27-.7-.73-1.2-1.96-1.2l.06-.26h4.78l-.07.25h-.3c-.8 0-.93.23-.93.63 0 .14.08.32.12.43l1.2 3.3h.06l2.78-3.38c.2-.24.25-.37.25-.54 0-.3-.32-.45-1.25-.45l.06-.26h3.8M355.1 537.06h-3.12v-.17c.83-.06 1.07-.3 1.07-.9v-5.08c0-.4-.1-.56-.34-.56-.1 0-.3.06-.5.14l-.3.1v-.15l2.02-1.02.1.03v6.74c0 .5.23.7 1.07.7v.16" fill="#303f49"/><path d="M262.1 522.5h15.8v16.24h-15.8z" fill="#fff" fill-opacity="0"/><path d="M273.2 524.24l-.06.25c-.88.05-1.5.5-2 1.1l-3.32 4.08-.94 3.74c-.04.14-.05.24-.05.4 0 .35.28.6 1.2.6h.33l-.06.24h-5.24l.06-.25h.27c1.22 0 1.54-.44 1.67-.98l.97-3.93-1.42-3.8c-.27-.7-.73-1.2-1.96-1.2l.06-.26h4.78l-.07.25h-.3c-.8 0-.93.23-.93.63 0 .14.08.32.12.43l1.2 3.3h.06l2.78-3.38c.2-.24.25-.37.25-.54 0-.3-.32-.45-1.25-.45l.06-.26h3.8M276 535.5l-.6 1.56h-4.43v-.14l2-2.13c1.07-1.13 1.48-2 1.48-2.95 0-1.02-.6-1.6-1.57-1.6-.8 0-1.2.37-1.66 1.48l-.24-.06c.24-1.32.96-2.24 2.35-2.24 1.28 0 2.1.87 2.1 1.98 0 .9-.45 1.75-1.46 2.8l-1.86 2h2.65c.48 0 .7-.12 1.1-.76" fill="#303f49"/><path d="M382.1 351.5h15.8v16.24h-15.8z" fill="#fff" fill-opacity="0"/><path d="M393.2 353.24l-.06.25c-.88.06-1.5.5-2 1.1l-3.32 4.08-.94 3.74c-.04.14-.05.24-.05.4 0 .35.28.6 1.2.6h.33l-.06.24h-5.24l.06-.25h.27c1.22 0 1.54-.44 1.67-.98l.97-3.93-1.42-3.8c-.27-.7-.73-1.2-1.96-1.2l.06-.26h4.78l-.07.25h-.3c-.8 0-.93.23-.93.63 0 .14.08.32.12.43l1.2 3.3h.06l2.78-3.38c.2-.24.25-.37.25-.54 0-.3-.32-.45-1.25-.45l.06-.26h3.8M396 364.5l-.6 1.56h-4.43v-.14l2-2.13c1.07-1.13 1.48-2 1.48-2.94 0-1.03-.6-1.6-1.57-1.6-.8 0-1.2.36-1.66 1.47l-.24-.06c.24-1.32.96-2.24 2.35-2.24 1.28 0 2.1.87 2.1 2 0 .88-.45 1.72-1.46 2.78l-1.86 2h2.65c.48 0 .7-.12 1.1-.75" fill="#303f49"/><path d="M382.1 522.5h15.8v16.24h-15.8z" fill="#fff" fill-opacity="0"/><path d="M393.2 524.24l-.06.25c-.88.05-1.5.5-2 1.1l-3.32 4.08-.94 3.74c-.04.14-.05.24-.05.4 0 .35.28.6 1.2.6h.33l-.06.24h-5.24l.06-.25h.27c1.22 0 1.54-.44 1.67-.98l.97-3.93-1.42-3.8c-.27-.7-.73-1.2-1.96-1.2l.06-.26h4.78l-.07.25h-.3c-.8 0-.93.23-.93.63 0 .14.08.32.12.43l1.2 3.3h.06l2.78-3.38c.2-.24.25-.37.25-.54 0-.3-.32-.45-1.25-.45l.06-.26h3.8M396 535.5l-.6 1.56h-4.43v-.14l2-2.13c1.07-1.13 1.48-2 1.48-2.95 0-1.02-.6-1.6-1.57-1.6-.8 0-1.2.37-1.66 1.48l-.24-.06c.24-1.32.96-2.24 2.35-2.24 1.28 0 2.1.87 2.1 1.98 0 .9-.45 1.75-1.46 2.8l-1.86 2h2.65c.48 0 .7-.12 1.1-.76" fill="#303f49"/><path d="M10 135.62a6 6 0 0 1 6-6h68a6 6 0 0 1 6 6v68a6 6 0 0 1-6 6H16a6 6 0 0 1-6-6z" stroke="#3a414a" fill="#fff"/><path d="M41.2 163.82h17.6v14.22H41.2z" fill="#fff"/><path d="M58.8 165.55l-.08.26c-1.05.06-1.74.7-2.14 1.24l-7 9.2h-.45v-7.06h-.18l-4.74 7.06h-.46v-9.1c0-.87-.52-1.33-1.42-1.33h-.16l.07-.25h4.6l-.07.26h-.1c-.63 0-1.22 0-1.22 1.14v6.02h.08l3.6-5.3v-.97c0-.5-.3-.9-1.3-.9h-.13l.05-.25h4.55l-.06.26h-.3c-.98 0-1.12.6-1.12 1.16v6.3h.1l4.43-5.9c.27-.35.64-.85.64-1.15 0-.25-.22-.4-.87-.4h-.27l.06-.25h3.87" fill="#303f49"/><path d="M550 135.62a6 6 0 0 1 6-6h68a6 6 0 0 1 6 6v68a6 6 0 0 1-6 6h-68a6 6 0 0 1-6-6z" stroke="#3a414a" fill="#fff"/><path d="M581.2 163.56h17.6v14.22h-17.6z" fill="#fff"/><path d="M598.8 165.3l-.08.26c-1.05.04-1.74.7-2.14 1.23l-7 9.18h-.45v-7.05h-.18l-4.74 7.05h-.46v-9.08c0-.88-.52-1.34-1.42-1.34h-.16l.07-.26h4.6l-.07.26h-.1c-.63 0-1.22 0-1.22 1.13v6h.08l3.6-5.3v-.97c0-.5-.3-.87-1.3-.87h-.13l.05-.26h4.55l-.06.26h-.3c-.98 0-1.12.6-1.12 1.15v6.3h.1l4.43-5.9c.27-.35.64-.84.64-1.14 0-.26-.22-.4-.87-.4h-.27l.06-.26h3.87" fill="#303f49"/><path d="M550.5 228.62a.5.5 0 0 1 .5-.5h398a.5.5 0 0 1 .5.5.5.5 0 0 1-.5.5H551a.5.5 0 0 1-.5-.5z" fill="none"/><path d="M562.94 228.12h7.96m7.96 0h7.96m7.96 0h7.96m7.96 0h7.96m7.96 0h7.96m7.96 0h7.96m7.96 0h7.96m7.96 0h7.96m7.96 0h7.96m7.96 0h7.96m7.96 0h7.96m7.96 0h7.96m7.96 0h7.96m7.96 0h7.96m7.96 0h7.96m7.96 0h7.96m7.96 0h7.96m7.96 0h7.96m7.96 0h7.96m7.96 0h7.96m7.96 0h7.96m7.96 0h7.96m7.96 0h7.96m7.96 0h7.96m7.96 0h4.06l.07.03.08.03.06.04.05.05.05.06.05.06.02.07.02.07v.16l-.02.08-.03.07-.05.06-.05.07-.06.06-.07.04-.08.03h-.07l-.08.02h-3.98m-7.96 0h-7.96m-7.96 0h-7.96m-7.96 0h-7.96m-7.96 0h-7.96m-7.96 0h-7.96m-7.96 0h-7.96m-7.96 0h-7.96m-7.96 0h-7.96m-7.96 0h-7.96m-7.96 0h-7.96m-7.96 0h-7.96m-7.96 0h-7.96m-7.96 0h-7.96m-7.96 0h-7.96m-7.96 0h-7.96m-7.96 0h-7.96m-7.96 0h-7.96m-7.96 0h-7.96m-7.96 0h-7.96m-7.96 0h-7.96m-7.96 0h-7.96m-7.96 0h-7.96m-7.96 0h-7.96m-7.96 0h-7.96m-7.96 0h-4.06l-.07-.02-.08-.03-.06-.04-.05-.06-.05-.06-.05-.05-.02-.07-.02-.08v-.16l.02-.07.03-.08.05-.07.05-.06.06-.05.07-.04.08-.03.07-.02h4.06" stroke="#3a414a" fill="none"/><path d="M640.5 398.62a.5.5 0 0 1 .5-.5h308a.5.5 0 0 1 .5.5.5.5 0 0 1-.5.5H641a.5.5 0 0 1-.5-.5z" fill="none"/><path d="M653.16 398.12h8.1m8.1 0h8.1m8.12 0h8.1m8.1 0h8.12m8.1 0h8.1m8.1 0h8.12m8.1 0h8.1m8.1 0h8.12m8.1 0h8.1m8.1 0h8.12m8.1 0h8.1m8.1 0h8.12m8.1 0h8.1m8.12 0h8.1m8.1 0h8.1m8.12 0h8.1m8.1 0h8.1m8.12 0h8.1m8.1 0h4.14l.07.02.08.04.06.04.05.05.05.06.05.06.02.07.02.07v.16l-.02.07-.03.08-.05.06-.05.07-.06.05-.07.05-.08.03h-.07l-.08.02h-4.05m-8.1 0h-8.1m-8.12 0h-8.1m-8.1 0h-8.1m-8.12 0h-8.1m-8.1 0h-8.1m-8.1 0h-8.12m-8.1 0h-8.1m-8.1 0h-8.12m-8.1 0h-8.1m-8.1 0h-8.12m-8.1 0h-8.1m-8.1 0h-8.12m-8.1 0h-8.1m-8.12 0H718m-8.1 0h-8.1m-8.12 0h-8.1m-8.1 0h-8.1m-8.12 0h-8.1m-8.1 0h-4.14l-.07-.02-.08-.03-.06-.05-.05-.05-.05-.06-.05-.05-.02-.08-.02-.07v-.16l.02-.07.03-.08.05-.07.05-.06.06-.05.07-.05.08-.03h.07l.08-.02h4.05" stroke="#3a414a" fill="none"/><path d="M550.5 568.62a.5.5 0 0 1 .5-.5h398a.5.5 0 0 1 .5.5.5.5 0 0 1-.5.5H551a.5.5 0 0 1-.5-.5z" fill="none"/><path d="M562.94 568.12h7.96m7.96 0h7.96m7.96 0h7.96m7.96 0h7.96m7.96 0h7.96m7.96 0h7.96m7.96 0h7.96m7.96 0h7.96m7.96 0h7.96m7.96 0h7.96m7.96 0h7.96m7.96 0h7.96m7.96 0h7.96m7.96 0h7.96m7.96 0h7.96m7.96 0h7.96m7.96 0h7.96m7.96 0h7.96m7.96 0h7.96m7.96 0h7.96m7.96 0h7.96m7.96 0h7.96m7.96 0h7.96m7.96 0h7.96m7.96 0h4.06l.07.02.08.03.06.05.05.05.05.06.05.06.02.07.02.07v.16l-.02.07-.03.08-.05.06-.05.07-.06.05-.07.05-.08.03h-.07l-.08.02h-3.98m-7.96 0h-7.96m-7.96 0h-7.96m-7.96 0h-7.96m-7.96 0h-7.96m-7.96 0h-7.96m-7.96 0h-7.96m-7.96 0h-7.96m-7.96 0h-7.96m-7.96 0h-7.96m-7.96 0h-7.96m-7.96 0h-7.96m-7.96 0h-7.96m-7.96 0h-7.96m-7.96 0h-7.96m-7.96 0h-7.96m-7.96 0h-7.96m-7.96 0h-7.96m-7.96 0h-7.96m-7.96 0h-7.96m-7.96 0h-7.96m-7.96 0h-7.96m-7.96 0h-7.96m-7.96 0h-7.96m-7.96 0h-7.96m-7.96 0h-4.06l-.07-.02-.08-.03-.06-.05-.05-.05-.05-.06-.05-.05-.02-.08-.02-.07v-.16l.02-.07.03-.08.05-.07.05-.06.06-.05.07-.05.08-.02.07-.02h4.06" stroke="#3a414a" fill="none"/><path d="M590 385.62a6 6 0 0 1 6-6h28a6 6 0 0 1 6 6v28a6 6 0 0 1-6 6h-28a6 6 0 0 1-6-6z" stroke="#3a414a" fill="#e3fae3"/><use xlink:href="#i" transform="matrix(1,0,0,1,595,384.620253164557) translate(7.665473090277779 22.225477430555554)"/><path d="M570 378.6l.08-2.06.22-2.35.34-2.16.45-2 .53-1.87.64-1.77.73-1.68.82-1.62.92-1.55 1.04-1.52 1.15-1.48 1.3-1.46 1.44-1.46 1.63-1.44 1.86-1.43 2.13-1.45 2.46-1.45 2.88-1.46 3.43-1.47 4.15-1.48 5.1-1.47 6.47-1.43 8.5-1.32 11.9-1.1 2.92-.06" stroke="#3a414a" stroke-linejoin="round" fill="none"/><path d="M570.52 378.6l-.02.5h-1l.02-.52z" stroke="#3a414a" stroke-width=".05" fill="#3a414a"/><path d="M647.88 339.66l-14.13 5.02-.25-9.26z" stroke="#3a414a" fill="#3a414a"/><path d="M610 420.62l.17 5.53.5 5.94.8 5.78 1.13 5.65L614 449l1.67 5.24 1.9 5.04 2.15 4.8 2.34 4.55 2.52 4.3 2.68 4.03 2.83 3.77 2.94 3.52 3.07 3.27 3.18 3.02 3.27 2.78 3.35 2.54 3.44 2.32 3.52 2.1 3.6 1.88 3.7 1.67 3.78 1.47 3.87 1.25 4 1.05 1.44.3" stroke="#3a414a" stroke-linejoin="round" fill="none"/><path d="M610.5 420.62l-1 .03v-.53h1z" stroke="#3a414a" stroke-width=".05" fill="#3a414a"/><path d="M687.9 509.44l-14.68 3.1.97-9.2z" stroke="#3a414a" fill="#3a414a"/><path d="M560.13 391.5H580v16.24h-19.87z" fill="#fff" fill-opacity="0"/><path d="M573.06 393.24l-.06.25h-.07c-1.1 0-1.56.5-2.15 1.17l-3 3.4 1.55 4.25c.2.55.46 1.1 1.26 1.1h.2l-.05.24h-4.5l.07-.25h.18c.6 0 1.07-.05 1.07-.65 0-.12-.02-.25-.06-.4l-1.1-3.1-2.9 3.2c-.13.16-.18.3-.18.45 0 .3.3.5.9.5h.35l-.07.26h-3.97l.06-.25c.85-.1 1.64-.58 2.23-1.22l3.32-3.67-1.36-3.68c-.18-.5-.46-1.33-1.64-1.33h-.14l.06-.26h4.52l-.06.25h-.3c-.5 0-.84.06-.84.55 0 .13.04.27.1.45l.96 2.86 2.62-2.94c.14-.18.24-.37.24-.55-.02-.25-.2-.38-.72-.38h-.15l.07-.26h3.54M577.2 406.06h-3.12v-.17c.83-.05 1.07-.3 1.07-.9v-5.08c0-.4-.1-.56-.34-.56-.1 0-.3.06-.5.14l-.3.1v-.15l2.02-1.02.1.03v6.74c0 .5.23.7 1.07.7v.16" fill="#303f49"/><path d="M600.06 392.5h19.88v16.24h-19.88z" fill="#fff" fill-opacity="0"/><path d="M613 394.24l-.07.25h-.06c-1.1 0-1.56.5-2.15 1.17l-3 3.4 1.54 4.25c.2.55.47 1.1 1.26 1.1h.23l-.07.24h-4.48l.06-.25h.18c.6 0 1.07-.05 1.07-.65 0-.12 0-.25-.06-.4l-1.1-3.1-2.9 3.2c-.13.16-.18.3-.18.45 0 .3.28.5.9.5h.34l-.06.26h-3.98l.07-.25c.86-.1 1.64-.58 2.23-1.22l3.32-3.67-1.35-3.68c-.18-.5-.45-1.33-1.63-1.33h-.15l.07-.26h4.52l-.07.25h-.3c-.48 0-.83.06-.83.55 0 .13.03.27.1.45l.95 2.86 2.6-2.94c.16-.18.25-.37.25-.55 0-.25-.2-.38-.72-.38h-.14l.05-.26H613M618.03 405.5l-.6 1.56H613v-.14l2.02-2.13c1.06-1.13 1.46-2 1.46-2.94 0-1.03-.6-1.6-1.57-1.6-.8 0-1.2.36-1.64 1.47l-.24-.06c.24-1.32.96-2.24 2.35-2.24 1.27 0 2.1.87 2.1 2 0 .88-.46 1.72-1.46 2.78l-1.85 2h2.64c.46 0 .7-.12 1.07-.75" fill="#303f49"/><path d="M660.06 331.5h19.88v16.24h-19.88z" fill="#fff" fill-opacity="0"/><path d="M673 333.24l-.07.25h-.06c-1.1 0-1.56.5-2.15 1.17l-3 3.4 1.54 4.25c.2.55.47 1.1 1.26 1.1h.23l-.07.24h-4.48l.06-.25h.18c.6 0 1.07-.05 1.07-.65 0-.12 0-.25-.06-.4l-1.1-3.1-2.9 3.2c-.13.16-.18.3-.18.45 0 .3.28.5.9.5h.34l-.06.26h-3.98l.07-.25c.86-.1 1.64-.58 2.23-1.22l3.32-3.67-1.35-3.68c-.18-.5-.45-1.33-1.63-1.33h-.15l.07-.26h4.52l-.07.25h-.3c-.48 0-.83.06-.83.55 0 .13.03.27.1.45l.95 2.86 2.6-2.94c.16-.18.25-.37.25-.55 0-.25-.2-.38-.72-.38h-.14l.05-.26H673M677.13 346.06H674v-.17c.85-.05 1.08-.3 1.08-.9v-5.08c0-.4-.1-.56-.33-.56-.12 0-.3.06-.5.14l-.32.1v-.15l2.02-1.02.1.03v6.74c0 .5.23.7 1.08.7v.16" fill="#303f49"/><path d="M700 501.5h19.87v16.24H700z" fill="#fff" fill-opacity="0"/><path d="M712.93 503.24l-.06.25h-.06c-1.1 0-1.56.5-2.15 1.17l-3 3.4 1.55 4.25c.2.55.46 1.1 1.26 1.1h.22l-.06.24h-4.5l.08-.25h.17c.6 0 1.07-.05 1.07-.65 0-.12 0-.25-.06-.4l-1.1-3.1-2.9 3.2c-.14.16-.2.3-.2.45 0 .3.3.5.9.5h.36l-.06.26h-3.98l.06-.25c.87-.1 1.65-.58 2.24-1.22l3.32-3.67-1.36-3.68c-.17-.5-.44-1.33-1.63-1.33h-.14l.05-.26h4.52l-.06.25h-.3c-.47 0-.82.06-.82.55 0 .13.03.27.1.45l.95 2.86 2.62-2.94c.14-.18.24-.37.24-.55-.03-.25-.22-.38-.73-.38h-.14l.06-.26h3.53M717.97 514.5l-.6 1.56h-4.43v-.14l2-2.13c1.07-1.13 1.48-1.98 1.48-2.94 0-1.03-.6-1.6-1.57-1.6-.8 0-1.2.36-1.66 1.47l-.25-.06c.24-1.32.96-2.24 2.35-2.24 1.28 0 2.1.87 2.1 2 0 .88-.45 1.72-1.45 2.8l-1.87 1.97h2.64c.48 0 .72-.12 1.1-.75" fill="#303f49"/><path d="M750 135.62a6 6 0 0 1 6-6h68a6 6 0 0 1 6 6v28a6 6 0 0 1-6 6h-68a6 6 0 0 1-6-6z" stroke="#3a414a" fill="#ffdda6"/><use xlink:href="#a" transform="matrix(1,0,0,1,755,134.62025316455697) translate(12.996419270833336 22.225477430555554)"/><path d="M779.06 142h21.88v16.24h-21.88z" fill="#fff" fill-opacity="0"/><path d="M796.64 143.74l-.06.25c-1.06.04-1.74.7-2.14 1.22l-7 9.2h-.46v-7.06h-.18l-4.74 7.06h-.46v-9.1c0-.86-.53-1.33-1.42-1.33h-.16l.06-.26h4.6l-.06.25h-.12c-.62 0-1.2 0-1.2 1.13v6.02h.07l3.6-5.3v-.98c0-.5-.3-.88-1.3-.88h-.13l.07-.26h4.56l-.07.25h-.3c-.98 0-1.13.58-1.13 1.14v6.3h.1l4.44-5.9c.28-.35.64-.84.64-1.15 0-.26-.2-.4-.86-.4h-.27l.07-.26h3.87M798.13 156.56h-3.1v-.17c.82-.05 1.06-.3 1.06-.9v-5.08c0-.38-.1-.55-.35-.55-.1 0-.3.05-.5.13l-.3.1v-.14l2-1.03.1.03v6.74c0 .5.24.7 1.08.7v.16" fill="#303f49"/><path d="M750 175.62a6 6 0 0 1 6-6h68a6 6 0 0 1 6 6v28a6 6 0 0 1-6 6h-68a6 6 0 0 1-6-6z" stroke="#3a414a" fill="#cfe4ff"/><use xlink:href="#w" transform="matrix(1,0,0,1,755,174.62025316455697) translate(12.996419270833336 22.225477430555554)"/><path d="M779.06 182.5h21.88v16.24h-21.88z" fill="#fff" fill-opacity="0"/><path d="M796.64 184.24l-.06.25c-1.06.04-1.74.7-2.14 1.22l-7 9.2h-.46v-7.06h-.18l-4.74 7.06h-.46v-9.1c0-.86-.53-1.33-1.42-1.33h-.16l.06-.26h4.6l-.06.25h-.12c-.62 0-1.2 0-1.2 1.13v6.02h.07l3.6-5.3v-.98c0-.5-.3-.88-1.3-.88h-.13l.07-.26h4.56l-.07.25h-.3c-.98 0-1.13.58-1.13 1.14v6.3h.1l4.44-5.9c.28-.35.64-.84.64-1.15 0-.26-.2-.4-.86-.4h-.27l.07-.26h3.87M799.04 195.5l-.6 1.56H794v-.14l2.02-2.13c1.06-1.13 1.47-2 1.47-2.95 0-1.02-.62-1.6-1.58-1.6-.8 0-1.2.37-1.66 1.48l-.24-.06c.24-1.32.96-2.24 2.35-2.24 1.28 0 2.1.87 2.1 1.98 0 .9-.45 1.75-1.45 2.8l-1.87 2h2.64c.47 0 .7-.12 1.08-.75" fill="#303f49"/><path d="M750 275.62a6 6 0 0 1 6-6h68a6 6 0 0 1 6 6v28a6 6 0 0 1-6 6h-68a6 6 0 0 1-6-6z" stroke="#3a414a" fill="#ffdda6"/><use xlink:href="#a" transform="matrix(1,0,0,1,755,274.62025316455697) translate(12.996419270833336 22.225477430555554)"/><path d="M779.06 282.38h21.88v16.24h-21.88z" fill="#fff" fill-opacity="0"/><path d="M796.64 284.12l-.06.25c-1.06.05-1.74.7-2.14 1.23l-7 9.2h-.46v-7.06h-.18l-4.74 7.06h-.46v-9.1c0-.86-.53-1.33-1.42-1.33h-.16l.06-.25h4.6l-.06.25h-.12c-.62 0-1.2 0-1.2 1.14v6.03h.07l3.6-5.3v-.98c0-.5-.3-.88-1.3-.88h-.13l.07-.25h4.56l-.07.25h-.3c-.98 0-1.13.6-1.13 1.15v6.3h.1l4.44-5.9c.28-.35.64-.85.64-1.15 0-.25-.2-.4-.86-.4h-.27l.07-.25h3.87M798.13 296.94h-3.1v-.17c.82-.04 1.06-.28 1.06-.9v-5.07c0-.38-.1-.56-.35-.56-.1 0-.3.06-.5.14l-.3.1v-.14l2-1.03.1.04v6.74c0 .5.24.7 1.08.7v.16" fill="#303f49"/><path d="M750 447a6 6 0 0 1 6-6h68a6 6 0 0 1 6 6v28a6 6 0 0 1-6 6h-68a6 6 0 0 1-6-6z" stroke="#3a414a" fill="#cfe4ff"/><use xlink:href="#w" transform="matrix(1,0,0,1,755,446) translate(12.996419270833336 22.225477430555554)"/><path d="M779.06 453.88h21.88v16.24h-21.88z" fill="#fff" fill-opacity="0"/><path d="M796.64 455.62l-.06.25c-1.06.05-1.74.7-2.14 1.23l-7 9.2h-.46v-7.06h-.18l-4.74 7.06h-.46v-9.1c0-.87-.53-1.33-1.42-1.33h-.16l.06-.25h4.6l-.06.25h-.12c-.62 0-1.2 0-1.2 1.14v6.03h.07l3.6-5.3v-.98c0-.5-.3-.88-1.3-.88h-.13l.07-.25h4.56l-.07.25h-.3c-.98 0-1.13.6-1.13 1.15v6.3h.1l4.44-5.9c.28-.35.64-.85.64-1.15 0-.25-.2-.4-.86-.4h-.27l.07-.25h3.87M799.04 466.9l-.6 1.54H794v-.14l2.02-2.13c1.06-1.12 1.47-1.98 1.47-2.94 0-1.02-.62-1.6-1.58-1.6-.8 0-1.2.37-1.66 1.48l-.24-.05c.24-1.32.96-2.24 2.35-2.24 1.28 0 2.1.88 2.1 2 0 .9-.45 1.73-1.45 2.8l-1.87 1.98h2.64c.47 0 .7-.12 1.08-.75" fill="#303f49"/><path d="M782.1 331.5h15.8v16.24h-15.8z" fill="#fff" fill-opacity="0"/><path d="M793.2 333.24l-.07.25c-.87.06-1.48.5-1.98 1.1l-3.33 4.08-.95 3.74c-.03.14-.04.24-.04.4 0 .35.28.6 1.2.6h.33l-.06.24h-5.24l.06-.25h.27c1.22 0 1.54-.44 1.67-.98l.97-3.93-1.42-3.8c-.27-.7-.73-1.2-1.96-1.2l.06-.26h4.78l-.07.25h-.3c-.8 0-.93.23-.93.63 0 .14.08.32.12.43l1.2 3.3h.06l2.78-3.38c.2-.24.25-.37.25-.54 0-.3-.32-.45-1.25-.45l.06-.26h3.8M795.1 346.06h-3.12v-.17c.83-.05 1.07-.3 1.07-.9v-5.08c0-.4-.1-.56-.34-.56-.1 0-.3.06-.5.14l-.3.1v-.15l2.02-1.02.1.03v6.74c0 .5.23.7 1.07.7v.16" fill="#303f49"/><path d="M782.1 501.5h15.8v16.24h-15.8z" fill="#fff" fill-opacity="0"/><path d="M793.2 503.24l-.07.25c-.87.06-1.48.5-1.98 1.1l-3.33 4.08-.95 3.74c-.03.14-.04.24-.04.4 0 .35.28.6 1.2.6h.33l-.06.24h-5.24l.06-.25h.27c1.22 0 1.54-.44 1.67-.98l.97-3.93-1.42-3.8c-.27-.7-.73-1.2-1.96-1.2l.06-.26h4.78l-.07.25h-.3c-.8 0-.93.23-.93.63 0 .14.08.32.12.43l1.2 3.3h.06l2.78-3.38c.2-.24.25-.37.25-.54 0-.3-.32-.45-1.25-.45l.06-.26h3.8M796 514.5l-.6 1.56h-4.43v-.14l2-2.13c1.07-1.13 1.48-1.98 1.48-2.94 0-1.03-.6-1.6-1.57-1.6-.8 0-1.2.36-1.66 1.47l-.24-.06c.24-1.32.96-2.24 2.35-2.24 1.28 0 2.1.87 2.1 2 0 .88-.45 1.72-1.46 2.8l-1.86 1.97h2.65c.48 0 .72-.12 1.1-.75" fill="#303f49"/><path d="M885.18 331.5h49.64v16.24h-49.64z" fill="#fff" fill-opacity="0"/><path d="M896.28 333.24l-.07.25c-.87.06-1.47.5-1.97 1.1l-3.34 4.08-.95 3.74c-.03.14-.05.24-.05.4 0 .35.3.6 1.22.6h.32l-.07.24h-5.24l.07-.25h.27c1.23 0 1.55-.44 1.68-.98l.97-3.93-1.42-3.8c-.27-.7-.73-1.2-1.96-1.2l.06-.26h4.78l-.07.25h-.3c-.8 0-.92.23-.92.63 0 .14.08.32.1.43l1.2 3.3h.07l2.78-3.38c.2-.24.26-.37.26-.54 0-.3-.35-.45-1.27-.45l.06-.26h3.78M898.17 346.06h-3.12v-.17c.84-.05 1.08-.3 1.08-.9v-5.08c0-.4-.1-.56-.34-.56-.13 0-.32.06-.52.14l-.3.1v-.15l2-1.02.12.03v6.74c0 .5.22.7 1.07.7v.16M914.67 340.15h-4.16v4.17h-1.05v-4.17h-4.17v-1.05h4.17v-4.17h1.05v4.17h4.17v1.05M930.1 333.24l-.05.25c-.88.06-1.48.5-1.98 1.1l-3.34 4.08-.94 3.74c-.04.14-.06.24-.06.4 0 .35.3.6 1.22.6h.32l-.07.24h-5.23l.07-.25h.27c1.24 0 1.56-.44 1.7-.98l.96-3.93-1.42-3.8c-.27-.7-.74-1.2-1.96-1.2l.06-.26h4.77l-.05.25h-.3c-.8 0-.93.23-.93.63 0 .14.08.32.1.43l1.2 3.3h.07l2.77-3.38c.2-.24.26-.37.26-.54 0-.3-.34-.45-1.26-.45l.06-.26h3.78M932.9 344.5l-.6 1.56h-4.4v-.14l2-2.13c1.06-1.13 1.47-2 1.47-2.94 0-1.03-.62-1.6-1.58-1.6-.82 0-1.2.36-1.66 1.47l-.24-.06c.24-1.32.96-2.24 2.35-2.24 1.27 0 2.1.87 2.1 2 0 .88-.46 1.72-1.46 2.78l-1.87 2h2.64c.47 0 .7-.12 1.08-.75" fill="#303f49"/><path d="M885.18 501.5h49.64v16.24h-49.64z" fill="#fff" fill-opacity="0"/><path d="M896.28 503.24l-.07.25c-.87.06-1.47.5-1.97 1.1l-3.34 4.08-.95 3.74c-.03.14-.05.24-.05.4 0 .35.3.6 1.22.6h.32l-.07.24h-5.24l.07-.25h.27c1.23 0 1.55-.44 1.68-.98l.97-3.93-1.42-3.8c-.27-.7-.73-1.2-1.96-1.2l.06-.26h4.78l-.07.25h-.3c-.8 0-.92.23-.92.63 0 .14.08.32.1.43l1.2 3.3h.07l2.78-3.38c.2-.24.26-.37.26-.54 0-.3-.35-.45-1.27-.45l.06-.26h3.78M898.17 516.06h-3.12v-.17c.84-.05 1.08-.3 1.08-.9v-5.08c0-.4-.1-.56-.34-.56-.13 0-.32.06-.52.14l-.3.1v-.15l2-1.02.12.03v6.74c0 .5.22.7 1.07.7v.16M914.67 510.15h-4.16v4.17h-1.05v-4.17h-4.17v-1.05h4.17v-4.17h1.05v4.17h4.17v1.05M930.1 503.24l-.05.25c-.88.06-1.48.5-1.98 1.1l-3.34 4.08-.94 3.74c-.04.14-.06.24-.06.4 0 .35.3.6 1.22.6h.32l-.07.24h-5.23l.07-.25h.27c1.24 0 1.56-.44 1.7-.98l.96-3.93-1.42-3.8c-.27-.7-.74-1.2-1.96-1.2l.06-.26h4.77l-.05.25h-.3c-.8 0-.93.23-.93.63 0 .14.08.32.1.43l1.2 3.3h.07l2.77-3.38c.2-.24.26-.37.26-.54 0-.3-.34-.45-1.26-.45l.06-.26h3.78M932.9 514.5l-.6 1.56h-4.4v-.14l2-2.13c1.06-1.13 1.47-1.98 1.47-2.94 0-1.03-.62-1.6-1.58-1.6-.82 0-1.2.36-1.66 1.47l-.24-.06c.24-1.32.96-2.24 2.35-2.24 1.27 0 2.1.87 2.1 2 0 .88-.46 1.72-1.46 2.8l-1.87 1.97h2.64c.47 0 .7-.12 1.08-.75" fill="#303f49"/><path d="M749.13 149.96l-4.86 4.47-5.2 5.52-5.05 6.16-4.73 6.7-4.3 7.1-3.7 7.25-3.1 7.28-2.46 7.14-1.83 6.9-1.25 6.57-.64 5.05-.36 6.02.07 5.67.45 5.33.8 5.03 1.1 4.77 1.38 4.52 1.67 4.3 1.96 4.13 2.25 3.97 2.55 3.83 2.88 3.72 3.24 3.6 3.66 3.55 2.3 1.93" stroke="#3a414a" stroke-linejoin="round" fill="none"/><path d="M749.5 150.3l-.04.04-.68-.74.72-.66z" stroke="#3a414a" stroke-width=".05" fill="#3a414a"/><path d="M748.16 288.72l-14.42-4.14 5.18-7.68z" stroke="#3a414a" fill="#3a414a"/><path d="M749.3 190.08l-4.54 9.67-4.32 10.35-3.92 10.62-3.52 10.9-3.1 11.24-2.7 11.58-2.24 11.96-1.8 12.38-1.3 12.82-.8 13.3-.27 13.8.33 14.3.97 14.83 1.64 15.33 2.37 15.76 3.13 16.12 3.87 16.3 4.58 16.27 5.2 15.9.82 2.18" stroke="#3a414a" stroke-linejoin="round" fill="none"/><path d="M749.5 190.2l-.67-.32.67-1.44z" stroke="#3a414a" stroke-width=".05" fill="#3a414a"/><path d="M748.93 459.5l-9.4-11.7 8.68-3.3z" stroke="#3a414a" fill="#3a414a"/><path d="M10 575.62a6 6 0 0 1 6-6h36.8a6 6 0 0 1 6 6v19.16a6 6 0 0 1-6 6H16a6 6 0 0 1-6-6z" stroke="#000" stroke-opacity="0" fill="#fff" fill-opacity="0"/><use xlink:href="#x" transform="matrix(1,0,0,1,15.000000000000028,574.620253164557) translate(0 18.500434027777775)"/><path d="M960 86a6 6 0 0 1 6-6h318a6 6 0 0 1 6 6v148.4a6 6 0 0 1-6 6H966a6 6 0 0 1-6-6z" stroke="#3a414a" fill="#fff"/><path d="M970 156a6 6 0 0 1 6-6h8a6 6 0 0 1 6 6v8a6 6 0 0 1-6 6h-8a6 6 0 0 1-6-6z" stroke="#3a414a" fill="#ffdda6"/><use xlink:href="#y" transform="matrix(1,0,0,1,975,154.99999999999994) translate(-12.777777777777779 16)"/><path d="M970 186a6 6 0 0 1 6-6h8a6 6 0 0 1 6 6v8a6 6 0 0 1-6 6h-8a6 6 0 0 1-6-6z" stroke="#3a414a" fill="#cfe4ff"/><use xlink:href="#z" transform="matrix(1,0,0,1,975,184.99999999999994) translate(-11.11111111111111 16)"/><path d="M970 216a6 6 0 0 1 6-6h8a6 6 0 0 1 6 6v8a6 6 0 0 1-6 6h-8a6 6 0 0 1-6-6z" stroke="#3a414a" fill="#e3fae3"/><use xlink:href="#A" transform="matrix(1,0,0,1,975,214.99999999999994) translate(0 16)"/><path d="M970 126.4a6 6 0 0 1 6-6h8a6 6 0 0 1 6 6v8a6 6 0 0 1-6 6h-8a6 6 0 0 1-6-6z" stroke="#3a414a" fill="#fff"/><path d="M1000 121.4a6 6 0 0 1 6-6h228a6 6 0 0 1 6 6v8a6 6 0 0 1-6 6h-228a6 6 0 0 1-6-6z" stroke="#000" stroke-opacity="0" fill="#fff" fill-opacity="0"/><g><use xlink:href="#B" transform="matrix(1,0,0,1,1005,120.3924049219292) translate(0 16.650390625)"/><use xlink:href="#C" transform="matrix(1,0,0,1,1005,120.3924049219292) translate(120.01953125 16.650390625)"/></g><path d="M1000 151.4a6 6 0 0 1 6-6h278a6 6 0 0 1 6 6v8a6 6 0 0 1-6 6h-278a6 6 0 0 1-6-6z" stroke="#000" stroke-opacity="0" fill="#fff" fill-opacity="0"/><g><use xlink:href="#D" transform="matrix(1,0,0,1,1005,150.3924049219292) translate(0 16.650390625)"/><use xlink:href="#E" transform="matrix(1,0,0,1,1005,150.3924049219292) translate(96.015625 16.650390625)"/><use xlink:href="#F" transform="matrix(1,0,0,1,1005,150.3924049219292) translate(180.029296875 16.650390625)"/><use xlink:href="#G" transform="matrix(1,0,0,1,1005,150.3924049219292) translate(252.041015625 16.650390625)"/></g><path d="M1000 181.4a6 6 0 0 1 6-6h278a6 6 0 0 1 6 6v12.1a6 6 0 0 1-6 6h-278a6 6 0 0 1-6-6z" stroke="#000" stroke-opacity="0" fill="#fff" fill-opacity="0"/><g><use xlink:href="#D" transform="matrix(1,0,0,1,1005.0000000000001,180.3924049219292) translate(0 16.650390625)"/><use xlink:href="#E" transform="matrix(1,0,0,1,1005.0000000000001,180.3924049219292) translate(96.015625 16.650390625)"/><use xlink:href="#F" transform="matrix(1,0,0,1,1005.0000000000001,180.3924049219292) translate(180.029296875 16.650390625)"/><use xlink:href="#H" transform="matrix(1,0,0,1,1005.0000000000001,180.3924049219292) translate(252.041015625 16.650390625)"/></g><path d="M1000 211a6 6 0 0 1 6-6h278a6 6 0 0 1 6 6v8a6 6 0 0 1-6 6h-278a6 6 0 0 1-6-6z" stroke="#000" stroke-opacity="0" fill="#fff" fill-opacity="0"/><g><use xlink:href="#I" transform="matrix(1,0,0,1,1005.0000000000002,209.99999999999994) translate(0 16.650390625)"/><use xlink:href="#J" transform="matrix(1,0,0,1,1005.0000000000002,209.99999999999994) translate(132.021484375 16.650390625)"/></g><path d="M965 92a6 6 0 0 1 6-6h228a6 6 0 0 1 6 6v8a6 6 0 0 1-6 6H971a6 6 0 0 1-6-6z" stroke="#000" stroke-opacity="0" fill="#fff" fill-opacity="0"/><g><use xlink:href="#K" transform="matrix(1,0,0,1,970,90.99999999999994) translate(0 16.650390625)"/></g><defs><path fill-opacity="0" d="M1018 0H810c-67-251-137-496-194-756C558-495 487-250 419 0H211L0-1349h189c48 393 110 772 142 1181 58-262 128-512 197-763h175c69 251 139 500 197 763 37-402 92-789 139-1181h189" id="L"/><path fill-opacity="0" d="M-5 220v-96h1238v96H-5" id="M"/><path fill-opacity="0" d="M148-1120c216-7 379-89 463-229h166v1204h353V0H157v-145h439v-1021c-79 124-254 184-448 194v-148" id="N"/><g id="a"><use transform="matrix(0.011935763888888888,0,0,0.011935763888888888,0,0)" xlink:href="#L"/><use transform="matrix(0.011935763888888888,0,0,0.011935763888888888,14.669053819444443,0)" xlink:href="#M"/><use transform="matrix(0.011935763888888888,0,0,0.011935763888888888,29.338107638888886,0)" xlink:href="#N"/></g><path fill-opacity="0" d="M611-1370c266 0 451 106 451 368 0 147-77 243-154 327-132 144-316 255-451 395-42 44-75 87-96 134h723V0H144v-117c124-264 387-411 582-603 73-72 151-147 151-271 0-161-104-231-266-231-163 0-249 90-268 238l-184-17c35-233 185-369 452-369" id="O"/><g id="b"><use transform="matrix(0.011935763888888888,0,0,0.011935763888888888,0,0)" xlink:href="#M"/><use transform="matrix(0.011935763888888888,0,0,0.011935763888888888,14.669053819444443,0)" xlink:href="#O"/></g><path fill="#3a414a" d="M614-1226c-167 1-283 53-283 213 0 183 186 193 334 234 230 63 463 120 463 409 0 286-219 387-518 390C309 23 131-98 79-338l185-37c34 165 149 248 351 246 184-2 324-58 324-238 0-203-207-221-372-266-210-57-422-111-422-377 0-267 201-356 470-360 279-5 430 101 480 324l-188 33c-28-141-121-215-293-213" id="P"/><path fill="#3a414a" d="M648-963c-190 6-283 138-283 336V0H185v-1484h181c-2 197 6 404-9 587h3c62-120 159-205 339-205 242 0 351 135 350 381V0H868v-695c1-168-57-273-220-268" id="Q"/><path fill="#3a414a" d="M1000-272c3 95 12 159 101 161 21 0 41-3 59-7V-6c-44 10-86 16-139 16-141 2-191-84-197-217h-6C748-76 648 20 446 20c-207 0-318-120-318-322 0-266 194-348 454-354l236-4c12-191-40-305-222-305-140 0-220 47-232 172l-188-17c33-204 181-292 423-292 255 0 401 118 401 364v466zm-683-27c0 109 63 184 175 182 166-3 259-96 306-217 24-65 20-120 20-200-232 7-501-28-501 235" id="R"/><path fill="#3a414a" d="M839-1102c70 0 148 7 206 17v167c-112-18-268-36-363 15-129 69-208 203-208 395V0H294c-10-367 32-789-52-1082h171c21 75 41 161 48 250h5c67-152 152-270 373-270" id="S"/><path fill="#3a414a" d="M865-914c-3-187-2-380-2-570h180v1261c0 76 1 155 6 223H877c-8-49-9-116-10-174h-5C801-44 708 26 530 26c-135 0-234-46-297-139s-95-232-95-419c0-377 131-566 392-566 176 0 271 63 335 184zm-286-51c-222 0-255 197-255 427 0 229 31 425 253 425 237 0 286-195 286-441 0-238-52-411-284-411" id="T"/><path fill="#3a414a" d="M745-142h380V0H143v-142h422v-798H246v-142h499v940zM545-1292v-192h200v192H545" id="U"/><path fill="#3a414a" d="M706-1102c241 0 344 136 343 381V0H868v-695c1-168-57-273-220-268-190 6-283 138-283 336V0H185c-3-360 6-732-6-1082h170c4 54 7 126 8 185h3c63-121 164-204 346-205" id="V"/><path fill="#3a414a" d="M1048-32c-2 300-135 456-433 456-222-1-358-88-400-267l184-25c22 99 100 157 222 156 184-2 248-125 248-315 0-64 3-133-2-194C807-100 706-13 524-12c-306 0-381-228-381-537 0-318 85-550 400-550 164 0 271 83 325 202h3c1-60 3-134 12-185h171c-13 339-4 702-6 1050zM585-145c210-8 284-178 284-406 0-192-52-331-177-392-33-16-69-22-104-22-223 2-259 184-259 414 0 229 31 415 256 406" id="W"/><g id="c"><use transform="matrix(0.0065104166666666635,0,0,0.0065104166666666635,0,0)" xlink:href="#P"/><use transform="matrix(0.0065104166666666635,0,0,0.0065104166666666635,8.001302083333329,0)" xlink:href="#Q"/><use transform="matrix(0.0065104166666666635,0,0,0.0065104166666666635,16.002604166666657,0)" xlink:href="#R"/><use transform="matrix(0.0065104166666666635,0,0,0.0065104166666666635,24.003906249999986,0)" xlink:href="#S"/><use transform="matrix(0.0065104166666666635,0,0,0.0065104166666666635,32.005208333333314,0)" xlink:href="#T"/><use transform="matrix(0.0065104166666666635,0,0,0.0065104166666666635,40.00651041666664,0)" xlink:href="#U"/><use transform="matrix(0.0065104166666666635,0,0,0.0065104166666666635,48.00781249999997,0)" xlink:href="#V"/><use transform="matrix(0.0065104166666666635,0,0,0.0065104166666666635,56.00911458333331,0)" xlink:href="#W"/></g><path fill="#3a414a" d="M1121-976c0 225-142 341-344 379L1177 0H957L591-575H353V0H162v-1349h482c281 3 477 100 477 373zM633-726c181-1 296-73 296-247 0-149-101-223-304-223H353v470h280" id="X"/><path fill="#3a414a" d="M914 0L548-499l-132 98V0H236v-1484h180v927l475-525h211L663-617 1125 0H914" id="Y"/><g id="d"><use transform="matrix(0.010850694444444442,0,0,0.010850694444444442,0,0)" xlink:href="#X"/><use transform="matrix(0.010850694444444442,0,0,0.010850694444444442,13.33550347222222,0)" xlink:href="#R"/><use transform="matrix(0.010850694444444442,0,0,0.010850694444444442,26.67100694444444,0)" xlink:href="#V"/><use transform="matrix(0.010850694444444442,0,0,0.010850694444444442,40.00651041666666,0)" xlink:href="#Y"/></g><path fill="#3a414a" d="M148-1120c216-7 379-89 463-229h166v1204h353V0H157v-145h439v-1021c-79 124-254 184-448 194v-148" id="Z"/><use transform="matrix(0.010850694444444442,0,0,0.010850694444444442,0,0)" xlink:href="#Z" id="e"/><path fill="#3a414a" d="M611-1370c266 0 451 106 451 368 0 147-77 243-154 327-132 144-316 255-451 395-42 44-75 87-96 134h723V0H144v-117c124-264 387-411 582-603 73-72 151-147 151-271 0-161-104-231-266-231-163 0-249 90-268 238l-184-17c35-233 185-369 452-369" id="aa"/><use transform="matrix(0.010850694444444442,0,0,0.010850694444444442,0,0)" xlink:href="#aa" id="f"/><path fill="#3a414a" d="M285-1169c8 382 2 780 4 1169H129v-1349h237c86 239 188 461 253 720 69-258 169-481 255-720h225V0H937c2-390-5-788 6-1169-75 255-170 488-259 729H547c-90-240-185-475-262-729" id="ab"/><path fill="#3a414a" d="M682 16c-209 0-323-80-324-285v-671H190v-142h170l58-282h120v282h432v142H538v652c2 114 60 155 182 155 106 0 209-16 297-34v137C921-4 806 16 682 16" id="ac"/><path fill="#3a414a" d="M904-1102c199 0 220 177 220 381V0H956v-686c-3-114 0-215-60-264-70-33-125-4-158 71-26 56-39 140-39 252V0H531v-686c-3-114-1-215-61-264-78-41-136 24-157 84-24 69-39 159-39 259V0H105c-3-360 6-732-6-1082h149c6 50 3 123 8 175 36-100 83-195 216-195 135 0 166 79 196 196 42-105 93-196 236-196" id="ad"/><path fill="#3a414a" d="M528 20c-247 0-343-132-343-381v-721h180v686c-4 177 45 284 224 277 194-8 279-136 279-336v-627h181c3 360-6 732 6 1082H885c-4-54-7-126-8-185h-3C809-64 714 20 528 20" id="ae"/><path fill="#3a414a" d="M736-142h380V0H134v-142h422v-1200H267v-142h469v1342" id="af"/><g id="g"><use transform="matrix(0.01085069444444444,0,0,0.01085069444444444,0,0)" xlink:href="#ab"/><use transform="matrix(0.01085069444444444,0,0,0.01085069444444444,13.335503472222218,0)" xlink:href="#R"/><use transform="matrix(0.01085069444444444,0,0,0.01085069444444444,26.671006944444436,0)" xlink:href="#ac"/><use transform="matrix(0.01085069444444444,0,0,0.01085069444444444,40.00651041666666,0)" xlink:href="#ad"/><use transform="matrix(0.01085069444444444,0,0,0.01085069444444444,53.34201388888887,0)" xlink:href="#ae"/><use transform="matrix(0.01085069444444444,0,0,0.01085069444444444,66.67751736111109,0)" xlink:href="#af"/></g><path fill="#3a414a" d="M1034 0L896-382H333L196 0H0l510-1349h217L1228 0h-194zM847-531c-77-225-157-447-231-674-69 231-154 451-232 674h463" id="ag"/><path fill="#3a414a" d="M655-135c108 0 195-33 260-74v-336H622v-160h479v572C981-54 839 20 639 20c-388 0-526-306-526-701 0-406 129-689 529-689 261 0 392 137 461 331l-171 56c-47-131-122-231-288-231-281 0-330 245-330 533 0 179 28 314 84 407s142 139 257 139" id="ah"/><path fill="#3a414a" d="M617-1102c355 0 481 238 477 599H322c5 222 84 388 301 388 144 0 244-59 284-166l158 45C1002-72 854 20 623 20c-342 0-490-220-490-568 0-346 151-554 484-554zm291 461c-18-192-90-328-289-328-194 0-287 128-295 328h584" id="ai"/><g id="h"><use transform="matrix(0.01085069444444444,0,0,0.01085069444444444,0,0)" xlink:href="#ag"/><use transform="matrix(0.01085069444444444,0,0,0.01085069444444444,13.335503472222218,0)" xlink:href="#af"/><use transform="matrix(0.01085069444444444,0,0,0.01085069444444444,26.671006944444436,0)" xlink:href="#af"/><use transform="matrix(0.01085069444444444,0,0,0.01085069444444444,40.00651041666666,0)" xlink:href="#ah"/><use transform="matrix(0.01085069444444444,0,0,0.01085069444444444,53.34201388888887,0)" xlink:href="#R"/><use transform="matrix(0.01085069444444444,0,0,0.01085069444444444,66.67751736111109,0)" xlink:href="#ac"/><use transform="matrix(0.01085069444444444,0,0,0.01085069444444444,80.0130208333333,0)" xlink:href="#Q"/><use transform="matrix(0.01085069444444444,0,0,0.01085069444444444,93.34852430555553,0)" xlink:href="#ai"/><use transform="matrix(0.01085069444444444,0,0,0.01085069444444444,106.68402777777771,0)" xlink:href="#S"/></g><path fill-opacity="0" d="M614-836l333-513h205L717-705 1193 0H988L614-573 241 0H36l476-705-435-644h205" id="aj"/><use transform="matrix(0.011935763888888888,0,0,0.011935763888888888,0,0)" xlink:href="#aj" id="i"/><path fill-opacity="0" d="M708-584V0H520v-584L36-1349h205l374 611 372-611h205" id="ak"/><g id="j"><use transform="matrix(0.011935763888888888,0,0,0.011935763888888888,0,0)" xlink:href="#ak"/><use transform="matrix(0.011935763888888888,0,0,0.011935763888888888,14.669053819444443,0)" xlink:href="#M"/><use transform="matrix(0.011935763888888888,0,0,0.011935763888888888,29.338107638888886,0)" xlink:href="#N"/></g><path fill-opacity="0" d="M687-608v428H540v-428H116v-146h424v-428h147v428h424v146H687" id="al"/><use transform="matrix(0.011935763888888888,0,0,0.011935763888888888,0,0)" xlink:href="#al" id="k"/><g id="l"><use transform="matrix(0.011935763888888888,0,0,0.011935763888888888,0,0)" xlink:href="#ak"/><use transform="matrix(0.011935763888888888,0,0,0.011935763888888888,14.669053819444443,0)" xlink:href="#M"/><use transform="matrix(0.011935763888888888,0,0,0.011935763888888888,29.338107638888886,0)" xlink:href="#O"/></g><g id="m"><use transform="matrix(0.011935763888888888,0,0,0.011935763888888888,0,0)" xlink:href="#ak"/><use transform="matrix(0.011935763888888888,0,0,0.011935763888888888,14.669053819444443,0)" xlink:href="#M"/><use transform="matrix(0.011935763888888888,0,0,0.011935763888888888,29.338107638888886,0)" xlink:href="#N"/></g><path fill="#3a414a" d="M650-1214c-281 0-336 244-336 533 0 295 60 546 347 546 188 0 263-142 322-282l159 65C1058-155 935 20 659 20c-401 0-546-295-546-701 0-407 135-689 536-689 264 0 391 146 466 335l-168 65c-47-129-127-244-297-244" id="am"/><path fill="#3a414a" d="M615-1102c343 0 484 203 482 560-1 347-147 562-488 562-336 0-475-219-479-562-4-349 156-560 485-560zm-8 989c240 0 301-180 301-429 0-245-55-427-290-427-236 0-299 181-299 427 0 243 61 429 288 429" id="an"/><g id="n"><use transform="matrix(0.010850694444444435,0,0,0.010850694444444435,0,0)" xlink:href="#am"/><use transform="matrix(0.010850694444444435,0,0,0.010850694444444435,13.33550347222221,0)" xlink:href="#an"/><use transform="matrix(0.010850694444444435,0,0,0.010850694444444435,26.67100694444442,0)" xlink:href="#af"/><use transform="matrix(0.010850694444444435,0,0,0.010850694444444435,40.00651041666663,0)" xlink:href="#ae"/><use transform="matrix(0.010850694444444435,0,0,0.010850694444444435,53.34201388888884,0)" xlink:href="#ad"/><use transform="matrix(0.010850694444444435,0,0,0.010850694444444435,66.67751736111106,0)" xlink:href="#V"/></g><path fill="#3a414a" d="M1018 0H810c-67-251-137-496-194-756C558-495 487-250 419 0H211L0-1349h189c48 393 110 772 142 1181 58-262 128-512 197-763h175c69 251 139 500 197 763 37-402 92-789 139-1181h189" id="ao"/><path fill="#3a414a" d="M873-819c-18-114-119-146-250-146-163 0-245 50-245 151 0 151 170 148 294 185 182 54 388 94 388 320 0 240-189 325-439 329-245 4-410-69-454-268l159-31c24 133 136 168 295 165 144-2 270-31 270-171 0-164-195-160-331-202-167-52-350-87-350-299 0-218 173-315 413-313 220 2 373 77 412 260" id="ap"/><g id="o"><use transform="matrix(0.010850694444444435,0,0,0.010850694444444435,0,0)" xlink:href="#ao"/><use transform="matrix(0.010850694444444435,0,0,0.010850694444444435,13.33550347222221,0)" xlink:href="#U"/><use transform="matrix(0.010850694444444435,0,0,0.010850694444444435,26.67100694444442,0)" xlink:href="#ap"/><use transform="matrix(0.010850694444444435,0,0,0.010850694444444435,40.00651041666663,0)" xlink:href="#ai"/></g><g id="p"><use transform="matrix(0.010850694444444435,0,0,0.010850694444444435,0,0)" xlink:href="#P"/><use transform="matrix(0.010850694444444435,0,0,0.010850694444444435,13.33550347222221,0)" xlink:href="#Q"/><use transform="matrix(0.010850694444444435,0,0,0.010850694444444435,26.67100694444442,0)" xlink:href="#R"/><use transform="matrix(0.010850694444444435,0,0,0.010850694444444435,40.00651041666663,0)" xlink:href="#S"/><use transform="matrix(0.010850694444444435,0,0,0.010850694444444435,53.34201388888884,0)" xlink:href="#T"/><use transform="matrix(0.010850694444444435,0,0,0.010850694444444435,66.67751736111106,0)" xlink:href="#U"/><use transform="matrix(0.010850694444444435,0,0,0.010850694444444435,80.01302083333327,0)" xlink:href="#V"/><use transform="matrix(0.010850694444444435,0,0,0.010850694444444435,93.34852430555547,0)" xlink:href="#W"/></g><g id="q"><use transform="matrix(0.011935763888888888,0,0,0.011935763888888888,0,0)" xlink:href="#aj"/><use transform="matrix(0.011935763888888888,0,0,0.011935763888888888,14.669053819444443,0)" xlink:href="#M"/><use transform="matrix(0.011935763888888888,0,0,0.011935763888888888,29.338107638888886,0)" xlink:href="#O"/></g><path fill-opacity="0" d="M1155 0H73v-143l818-1050H146v-156h962v139L290-156h865V0" id="aq"/><use transform="matrix(0.011935763888888888,0,0,0.011935763888888888,0,0)" xlink:href="#aq" id="r"/><path fill-opacity="0" d="M614-1226c-167 1-283 53-283 213 0 183 186 193 334 234 230 63 463 120 463 409 0 286-219 387-518 390C309 23 131-98 79-338l185-37c34 165 149 248 351 246 184-2 324-58 324-238 0-203-207-221-372-266-210-57-422-111-422-377 0-267 201-356 470-360 279-5 430 101 480 324l-188 33c-28-141-121-215-293-213" id="ar"/><g id="s"><use transform="matrix(0.011935763888888888,0,0,0.011935763888888888,0,0)" xlink:href="#ar"/><use transform="matrix(0.011935763888888888,0,0,0.011935763888888888,14.669053819444443,0)" xlink:href="#M"/><use transform="matrix(0.011935763888888888,0,0,0.011935763888888888,29.338107638888886,0)" xlink:href="#N"/></g><path fill="#3a414a" d="M1018 0H814c-67-224-138-444-200-673C552-442 476-224 407 0H204L21-1082h178c43 310 105 601 126 933 54-225 128-425 193-638h193c63 212 134 415 185 638 22-336 90-622 136-933h176" id="as"/><g id="t"><use transform="matrix(0.010850694444444435,0,0,0.010850694444444435,0,0)" xlink:href="#X"/><use transform="matrix(0.010850694444444435,0,0,0.010850694444444435,13.33550347222221,0)" xlink:href="#an"/><use transform="matrix(0.010850694444444435,0,0,0.010850694444444435,26.67100694444442,0)" xlink:href="#as"/></g><g id="u"><use transform="matrix(0.011935763888888888,0,0,0.011935763888888888,0,0)" xlink:href="#ak"/><use transform="matrix(0.011935763888888888,0,0,0.011935763888888888,14.669053819444443,0)" xlink:href="#M"/><use transform="matrix(0.011935763888888888,0,0,0.011935763888888888,29.338107638888886,0)" xlink:href="#O"/></g><path fill="#3a414a" d="M631 20c-350 0-501-215-501-562 0-355 162-560 502-560 250 0 399 118 446 323l-192 14c-23-124-109-196-262-196-242 0-305 171-305 415 1 245 61 427 304 427 151 0 248-77 267-215l190 12C1039-107 883 20 631 20" id="at"/><g id="v"><use transform="matrix(0.01085069444444444,0,0,0.01085069444444444,0,0)" xlink:href="#ag"/><use transform="matrix(0.01085069444444444,0,0,0.01085069444444444,13.335503472222218,0)" xlink:href="#af"/><use transform="matrix(0.01085069444444444,0,0,0.01085069444444444,26.671006944444436,0)" xlink:href="#af"/><use transform="matrix(0.01085069444444444,0,0,0.01085069444444444,40.00651041666666,0)" xlink:href="#X"/><use transform="matrix(0.01085069444444444,0,0,0.01085069444444444,53.34201388888887,0)" xlink:href="#ai"/><use transform="matrix(0.01085069444444444,0,0,0.01085069444444444,66.67751736111109,0)" xlink:href="#T"/><use transform="matrix(0.01085069444444444,0,0,0.01085069444444444,80.0130208333333,0)" xlink:href="#ae"/><use transform="matrix(0.01085069444444444,0,0,0.01085069444444444,93.34852430555553,0)" xlink:href="#at"/><use transform="matrix(0.01085069444444444,0,0,0.01085069444444444,106.68402777777771,0)" xlink:href="#ai"/></g><g id="w"><use transform="matrix(0.011935763888888888,0,0,0.011935763888888888,0,0)" xlink:href="#L"/><use transform="matrix(0.011935763888888888,0,0,0.011935763888888888,14.669053819444443,0)" xlink:href="#M"/><use transform="matrix(0.011935763888888888,0,0,0.011935763888888888,29.338107638888886,0)" xlink:href="#O"/></g><path fill="#3a414a" d="M102-681c0-398 126-689 513-689 165 0 291 58 379 174s132 287 132 515c-1 318-88 554-298 657-123 61-317 58-438-3-206-104-288-341-288-654zm749 406c94-160 97-656-5-807-57-85-130-132-231-132-104 0-178 47-234 132-101 153-99 655 1 809 57 89 130 138 232 138 109 0 184-49 237-140" id="au"/><path fill="#3a414a" d="M698-1104c312 3 392 244 392 558 0 315-82 566-392 566-169 0-277-65-331-184h-5c8 188 2 394 4 589H185V-858c0-76-1-156-6-224h175c6 52 9 120 10 178h4c58-122 150-202 330-200zm-49 991c225 0 255-203 255-433 0-225-32-419-253-419-236 0-285 192-285 441 0 237 53 411 283 411" id="av"/><path fill="#3a414a" d="M496 0v-299h235V0H496zm0-783v-299h235v299H496" id="aw"/><g id="x"><use transform="matrix(0.010850694444444442,0,0,0.010850694444444442,0,0)" xlink:href="#au"/><use transform="matrix(0.010850694444444442,0,0,0.010850694444444442,13.33550347222222,0)" xlink:href="#av"/><use transform="matrix(0.010850694444444442,0,0,0.010850694444444442,26.67100694444444,0)" xlink:href="#aw"/></g><path fill-opacity="0" d="M195 0l-74-108L45 0H8l94-129-87-119h37l69 98 67-98h37l-84 118L233 0h-38" id="ax"/><path fill-opacity="0" d="M-5 72V49h209v23H-5" id="ay"/><path fill-opacity="0" d="M27 0v-27h64v-190l-56 39v-29l58-41h29v221h61V0H27" id="az"/><g id="y"><use transform="matrix(0.05555555555555555,0,0,0.05555555555555555,0,0)" xlink:href="#ax"/><use transform="matrix(0.05555555555555555,0,0,0.05555555555555555,13.333333333333332,0)" xlink:href="#ay"/><use transform="matrix(0.05555555555555555,0,0,0.05555555555555555,24.444444444444443,0)" xlink:href="#az"/></g><path fill-opacity="0" d="M141 0L90-78 38 0H4l68-98-65-92h35l48 74 47-74h35l-64 92 68 98h-35" id="aA"/><path fill-opacity="0" d="M101-251c82-7 93 87 43 132L82-64C71-53 59-42 53-27h129V0H18c2-99 128-94 128-182 0-28-16-43-45-43s-46 15-49 41l-32-3c6-41 34-60 81-64" id="aB"/><g id="z"><use transform="matrix(0.05555555555555555,0,0,0.05555555555555555,0,0)" xlink:href="#aA"/><use transform="matrix(0.05555555555555555,0,0,0.05555555555555555,10,0)" xlink:href="#ay"/><use transform="matrix(0.05555555555555555,0,0,0.05555555555555555,21.11111111111111,0)" xlink:href="#aB"/></g><use transform="matrix(0.05555555555555555,0,0,0.05555555555555555,0,0)" xlink:href="#aA" id="A"/><path fill="#3a414a" d="M604-135c236 0 291-142 291-376v-838h190v859c5 340-142 510-480 510-326 0-463-164-463-492v-877h191v851c-3 222 46 363 271 363" id="aC"/><g id="B"><use transform="matrix(0.009765625,0,0,0.009765625,0,0)" xlink:href="#aC"/><use transform="matrix(0.009765625,0,0,0.009765625,12.001953125,0)" xlink:href="#V"/><use transform="matrix(0.009765625,0,0,0.009765625,24.00390625,0)" xlink:href="#ap"/><use transform="matrix(0.009765625,0,0,0.009765625,36.005859375,0)" xlink:href="#Q"/><use transform="matrix(0.009765625,0,0,0.009765625,48.0078125,0)" xlink:href="#R"/><use transform="matrix(0.009765625,0,0,0.009765625,60.009765625,0)" xlink:href="#S"/><use transform="matrix(0.009765625,0,0,0.009765625,72.01171875,0)" xlink:href="#T"/><use transform="matrix(0.009765625,0,0,0.009765625,84.013671875,0)" xlink:href="#ai"/><use transform="matrix(0.009765625,0,0,0.009765625,96.015625,0)" xlink:href="#T"/></g><g id="C"><use transform="matrix(0.009765625,0,0,0.009765625,0,0)" xlink:href="#as"/><use transform="matrix(0.009765625,0,0,0.009765625,12.001953125,0)" xlink:href="#ai"/><use transform="matrix(0.009765625,0,0,0.009765625,24.00390625,0)" xlink:href="#U"/><use transform="matrix(0.009765625,0,0,0.009765625,36.005859375,0)" xlink:href="#W"/><use transform="matrix(0.009765625,0,0,0.009765625,48.0078125,0)" xlink:href="#Q"/><use transform="matrix(0.009765625,0,0,0.009765625,60.009765625,0)" xlink:href="#ac"/></g><g id="D"><use transform="matrix(0.009765625,0,0,0.009765625,0,0)" xlink:href="#P"/><use transform="matrix(0.009765625,0,0,0.009765625,12.001953125,0)" xlink:href="#Q"/><use transform="matrix(0.009765625,0,0,0.009765625,24.00390625,0)" xlink:href="#R"/><use transform="matrix(0.009765625,0,0,0.009765625,36.005859375,0)" xlink:href="#S"/><use transform="matrix(0.009765625,0,0,0.009765625,48.0078125,0)" xlink:href="#T"/><use transform="matrix(0.009765625,0,0,0.009765625,60.009765625,0)" xlink:href="#ai"/><use transform="matrix(0.009765625,0,0,0.009765625,72.01171875,0)" xlink:href="#T"/></g><g id="E"><use transform="matrix(0.009765625,0,0,0.009765625,0,0)" xlink:href="#ac"/><use transform="matrix(0.009765625,0,0,0.009765625,12.001953125,0)" xlink:href="#ai"/><use transform="matrix(0.009765625,0,0,0.009765625,24.00390625,0)" xlink:href="#V"/><use transform="matrix(0.009765625,0,0,0.009765625,36.005859375,0)" xlink:href="#ap"/><use transform="matrix(0.009765625,0,0,0.009765625,48.0078125,0)" xlink:href="#an"/><use transform="matrix(0.009765625,0,0,0.009765625,60.009765625,0)" xlink:href="#S"/></g><path fill="#3a414a" d="M891-1484c-201 251-362 514-362 954 0 441 161 704 362 955H701C500 176 342-90 342-532c0-440 159-704 359-952h190" id="aD"/><g id="F"><use transform="matrix(0.009765625,0,0,0.009765625,0,0)" xlink:href="#aD"/><use transform="matrix(0.009765625,0,0,0.009765625,12.001953125,0)" xlink:href="#S"/><use transform="matrix(0.009765625,0,0,0.009765625,24.00390625,0)" xlink:href="#R"/><use transform="matrix(0.009765625,0,0,0.009765625,36.005859375,0)" xlink:href="#V"/><use transform="matrix(0.009765625,0,0,0.009765625,48.0078125,0)" xlink:href="#Y"/></g><path fill="#3a414a" d="M1065-1013c47 164 49 500-1 665C999-130 875 20 611 20c-377 0-484-300-487-695-2-245 41-425 141-551 77-98 191-144 352-144 261 0 386 140 448 357zM741-155c199-92 203-504 159-785-26-168-96-284-283-284-281 0-308 256-311 549-2 181 18 324 80 428 46 77 115 118 227 120 47 0 90-10 128-28" id="aE"/><path fill="#3a414a" d="M528-1484c201 248 357 511 357 952 0 442-156 709-357 957H336C537 174 700-89 700-530c0-440-163-703-364-954h192" id="aF"/><g id="G"><use transform="matrix(0.009765625,0,0,0.009765625,0,0)" xlink:href="#aE"/><use transform="matrix(0.009765625,0,0,0.009765625,12.001953125,0)" xlink:href="#aF"/></g><g id="H"><use transform="matrix(0.009765625,0,0,0.009765625,0,0)" xlink:href="#Z"/><use transform="matrix(0.009765625,0,0,0.009765625,12.001953125,0)" xlink:href="#aF"/></g><g id="I"><use transform="matrix(0.009765625,0,0,0.009765625,0,0)" xlink:href="#X"/><use transform="matrix(0.009765625,0,0,0.009765625,12.001953125,0)" xlink:href="#ai"/><use transform="matrix(0.009765625,0,0,0.009765625,24.00390625,0)" xlink:href="#av"/><use transform="matrix(0.009765625,0,0,0.009765625,36.005859375,0)" xlink:href="#af"/><use transform="matrix(0.009765625,0,0,0.009765625,48.0078125,0)" xlink:href="#U"/><use transform="matrix(0.009765625,0,0,0.009765625,60.009765625,0)" xlink:href="#at"/><use transform="matrix(0.009765625,0,0,0.009765625,72.01171875,0)" xlink:href="#R"/><use transform="matrix(0.009765625,0,0,0.009765625,84.013671875,0)" xlink:href="#ac"/><use transform="matrix(0.009765625,0,0,0.009765625,96.015625,0)" xlink:href="#ai"/><use transform="matrix(0.009765625,0,0,0.009765625,108.017578125,0)" xlink:href="#T"/></g><g id="J"><use transform="matrix(0.009765625,0,0,0.009765625,0,0)" xlink:href="#ac"/><use transform="matrix(0.009765625,0,0,0.009765625,12.001953125,0)" xlink:href="#ai"/><use transform="matrix(0.009765625,0,0,0.009765625,24.00390625,0)" xlink:href="#V"/><use transform="matrix(0.009765625,0,0,0.009765625,36.005859375,0)" xlink:href="#ap"/><use transform="matrix(0.009765625,0,0,0.009765625,48.0078125,0)" xlink:href="#an"/><use transform="matrix(0.009765625,0,0,0.009765625,60.009765625,0)" xlink:href="#S"/></g><path fill="#3a414a" d="M1003 0L516-638 353-469V0H162v-1349h191v673l572-673h225L646-777 1227 0h-224" id="aG"/><path fill="#3a414a" d="M168 279c222 39 310-114 368-290L66-1082h192c120 299 249 590 362 896 115-301 235-597 351-896h190L705 0c-65 164-130 320-275 396-67 36-177 35-262 18V279" id="aH"/><g id="K"><use transform="matrix(0.009765625,0,0,0.009765625,0,0)" xlink:href="#aG"/><use transform="matrix(0.009765625,0,0,0.009765625,12.001953125,0)" xlink:href="#ai"/><use transform="matrix(0.009765625,0,0,0.009765625,24.00390625,0)" xlink:href="#aH"/><use transform="matrix(0.009765625,0,0,0.009765625,36.005859375,0)" xlink:href="#aw"/></g></defs></g></svg>